<svg width="25" height="24" viewBox="0 0 25 24" fill="none" xmlns="http://www.w3.org/2000/svg">
<g id="svgexport-16 (26) 1" clip-path="url(#clip0_1435_15492)">
<g id="Group">
<path id="Vector" d="M24.3823 12.7953L22.9678 10.564L23.8068 8.0599C23.8622 7.89429 23.8586 7.71463 23.7966 7.55136C23.7347 7.3881 23.6182 7.25127 23.4669 7.16405L21.1779 5.84448L20.757 3.237C20.7287 3.0646 20.6418 2.90723 20.511 2.79138C20.3803 2.67553 20.2136 2.60828 20.039 2.60096L17.3989 2.49759L15.8149 0.383666C15.7102 0.243776 15.5603 0.144489 15.3907 0.102718C15.2211 0.0609466 15.0422 0.0792747 14.8846 0.15458L12.4997 1.28883L10.1138 0.153649C9.95595 0.0791552 9.77722 0.061358 9.60776 0.103256C9.4383 0.145155 9.28847 0.244187 9.1835 0.383666L7.59946 2.49759L4.95938 2.60096C4.78497 2.60793 4.61832 2.67496 4.48765 2.7907C4.35698 2.90643 4.27031 3.06377 4.24233 3.23606L3.8214 5.84354L1.53241 7.16312C1.38096 7.25019 1.26429 7.38696 1.20217 7.55024C1.14005 7.71352 1.13631 7.89325 1.19157 8.05897L2.03062 10.5631L0.616997 12.7953C0.523745 12.943 0.484397 13.1185 0.505608 13.2919C0.52682 13.4653 0.607289 13.6261 0.733402 13.747L2.63966 15.575L2.42547 18.2067C2.41122 18.3809 2.45757 18.5546 2.55667 18.6985C2.65577 18.8424 2.80154 18.9476 2.96932 18.9964L5.50695 19.7274L6.5397 22.1589C6.60751 22.3201 6.72918 22.4527 6.88393 22.534C7.03867 22.6154 7.21687 22.6405 7.38807 22.605L9.97692 22.0742L12.0201 23.7476C12.1588 23.8603 12.3292 23.919 12.4997 23.919C12.6701 23.919 12.8396 23.8603 12.9792 23.7476L15.0224 22.0742L17.6113 22.605C17.9623 22.6795 18.319 22.4904 18.4596 22.1589L19.4924 19.7274L22.03 18.9964C22.1979 18.9478 22.3437 18.8426 22.4429 18.6986C22.542 18.5547 22.5883 18.3809 22.5738 18.2067L22.3597 15.575L24.2659 13.747C24.392 13.6261 24.4725 13.4653 24.4937 13.2919C24.5149 13.1185 24.4756 12.943 24.3823 12.7953ZM17.9726 9.15318L12.6729 17.093C12.4727 17.3891 12.1625 17.5875 11.8543 17.5875C11.547 17.5875 11.2034 17.4152 10.9845 17.1954L7.09379 13.2423C6.96626 13.1115 6.89488 12.936 6.89488 12.7534C6.89488 12.5707 6.96626 12.3953 7.09379 12.2645L8.05391 11.2867C8.11682 11.2234 8.19162 11.1732 8.27401 11.1389C8.35639 11.1047 8.44474 11.087 8.53396 11.087C8.62319 11.087 8.71153 11.1047 8.79392 11.1389C8.8763 11.1732 8.9511 11.2234 9.01402 11.2867L11.5461 13.8588L15.7218 7.60266C15.7713 7.52806 15.8351 7.46406 15.9096 7.4144C15.9841 7.36474 16.0677 7.33041 16.1556 7.31342C16.2435 7.29643 16.3339 7.29712 16.4216 7.31544C16.5092 7.33376 16.5923 7.36935 16.666 7.42014L17.7919 8.194C18.102 8.40819 18.1821 8.83935 17.9726 9.15318Z" fill="#545454"/>
</g>
</g>
<defs>
<clipPath id="clip0_1435_15492">
<rect width="24" height="24" fill="white" transform="translate(0.5)"/>
</clipPath>
</defs>
</svg>
