<svg width="25" height="24" viewBox="0 0 25 24" fill="none" xmlns="http://www.w3.org/2000/svg">
<g id="svgexport-16 (24) 1" clip-path="url(#clip0_1435_15478)">
<g id="Group">
<path id="Vector" d="M24.0972 10.9252L20.4598 7.28788V3.08616C20.4598 2.32644 19.8442 1.71074 19.0833 1.71074C18.3242 1.71074 17.7086 2.32644 17.7086 3.08616V4.53668L15.0003 1.82832C13.6613 0.490046 11.3333 0.49242 9.99731 1.83074L0.902658 10.9252C0.365781 11.4631 0.365781 12.3336 0.902658 12.8707C1.43978 13.4085 2.3119 13.4085 2.84883 12.8707L11.9426 3.77599C12.2389 3.48129 12.761 3.48129 13.0557 3.77511L22.151 12.8707C22.2787 12.9985 22.4304 13.0999 22.5973 13.169C22.7643 13.2381 22.9432 13.2736 23.1239 13.2734C23.4761 13.2734 23.8283 13.1395 24.0972 12.8707C24.6343 12.3336 24.6343 11.4632 24.0972 10.9252Z" fill="#545454"/>
<path id="Vector_2" d="M12.9773 6.3869C12.7131 6.12282 12.2852 6.12282 12.0218 6.3869L4.02212 14.3842C3.89536 14.5112 3.82419 14.6833 3.82422 14.8627V20.6956C3.82422 22.0644 4.93402 23.1741 6.30271 23.1741H10.2634V17.0404H14.7349V23.1741H18.6956C20.0642 23.1741 21.174 22.0644 21.174 20.6957V14.8627C21.174 14.6828 21.103 14.5105 20.9761 14.3842L12.9773 6.3869Z" fill="#545454"/>
</g>
</g>
<defs>
<clipPath id="clip0_1435_15478">
<rect width="24" height="24" fill="white" transform="translate(0.5)"/>
</clipPath>
</defs>
</svg>
