<svg width="24" height="24" viewBox="0 0 24 24" fill="none" xmlns="http://www.w3.org/2000/svg">
<g id="svgexport-16 (25) 1" clip-path="url(#clip0_1435_15485)">
<g id="Group">
<path id="Vector" d="M22.3633 19.6364H18.5452C16.1391 19.6364 14.1816 17.6789 14.1816 15.2728C14.1816 12.8668 16.1391 10.9093 18.5452 10.9093H22.3633C22.4349 10.9093 22.5059 10.8953 22.5721 10.8679C22.6383 10.8405 22.6985 10.8003 22.7491 10.7496C22.7998 10.699 22.8399 10.6388 22.8673 10.5726C22.8947 10.5064 22.9088 10.4355 22.9088 10.3638V8.7275C22.9088 7.5837 22.0216 6.6535 20.9006 6.56329L17.7681 1.09179C17.4778 0.585754 17.009 0.224073 16.4481 0.0738875C15.8899 -0.0752748 15.3061 0.00306481 14.8064 0.293873L4.06783 6.5457H2.1818C0.978529 6.5457 0 7.52418 0 8.7275V21.8182C0 23.0215 0.978478 24 2.1818 24H20.727C21.9302 24 22.9088 23.0215 22.9088 21.8182V20.1819C22.9088 20.1102 22.8947 20.0393 22.8673 19.9731C22.8399 19.9069 22.7998 19.8467 22.7491 19.7961C22.6985 19.7454 22.6383 19.7052 22.5721 19.6778C22.5059 19.6504 22.4349 19.6363 22.3633 19.6364ZM18.4445 4.4698L19.633 6.5457H14.8789L18.4445 4.4698ZM6.23598 6.5457L15.3556 1.23666C15.6022 1.0923 15.8904 1.05395 16.1658 1.12748C16.4444 1.20204 16.6766 1.38209 16.821 1.63403L16.8221 1.63603L8.38935 6.5457H6.23598Z" fill="#545454"/>
<path id="Vector_2" d="M22.3623 12.0001H18.5442C16.7395 12.0001 15.2715 13.4681 15.2715 15.2728C15.2715 17.0775 16.7395 18.5455 18.5442 18.5455H22.3623C23.2646 18.5455 23.9986 17.8115 23.9986 16.9091V13.6365C23.9986 12.7341 23.2646 12.0001 22.3623 12.0001ZM18.5442 16.3637C17.9428 16.3637 17.4533 15.8742 17.4533 15.2728C17.4533 14.6714 17.9428 14.1819 18.5442 14.1819C19.1455 14.1819 19.635 14.6714 19.635 15.2728C19.6351 15.8742 19.1456 16.3637 18.5442 16.3637Z" fill="#545454"/>
</g>
</g>
<defs>
<clipPath id="clip0_1435_15485">
<rect width="24" height="24" fill="white"/>
</clipPath>
</defs>
</svg>
