<svg width="101" height="100" viewBox="0 0 101 100" fill="none" xmlns="http://www.w3.org/2000/svg">
<g id="vidhana-soudha-119679 1">
<path id="Vector" d="M80.0584 84.1975C81.258 84.1975 82.2394 83.2531 82.2394 82.0988C82.2394 80.9444 81.258 80 80.0584 80C78.8588 80 77.8773 80.9444 77.8773 82.0988C77.8773 83.2531 78.8588 84.1975 80.0584 84.1975ZM80.0584 81.0494C80.7127 81.0494 81.1489 81.4691 81.1489 82.0988C81.1489 82.7284 80.7127 83.1481 80.0584 83.1481C79.404 83.1481 78.9678 82.7284 78.9678 82.0988C78.9678 81.4691 79.404 81.0494 80.0584 81.0494ZM27.7127 84.1975C28.9123 84.1975 29.8938 83.2531 29.8938 82.0988C29.8938 80.9444 28.9123 80 27.7127 80C26.5131 80 25.5316 80.9444 25.5316 82.0988C25.5316 83.2531 26.5131 84.1975 27.7127 84.1975ZM27.7127 81.0494C28.367 81.0494 28.8032 81.4691 28.8032 82.0988C28.8032 82.7284 28.367 83.1481 27.7127 83.1481C27.0584 83.1481 26.6222 82.7284 26.6222 82.0988C26.6222 81.4691 27.0584 81.0494 27.7127 81.0494ZM29.2394 95.7407H25.9678C25.6407 95.7407 25.4226 95.9506 25.4226 96.2654V98.3642C25.4226 98.679 25.6407 98.8889 25.9678 98.8889H29.2394C29.5666 98.8889 29.7847 98.679 29.7847 98.3642V96.2654C29.7847 96.0556 29.5666 95.7407 29.2394 95.7407ZM28.6942 97.8395H26.5131V96.7901H28.6942V97.8395ZM30.33 86.2963H29.2394H25.9678H24.8773C24.5501 86.2963 24.332 86.5062 24.332 86.821C24.332 87.1358 24.5501 87.3457 24.8773 87.3457H25.4226V93.1173C25.4226 93.4321 25.6407 93.642 25.9678 93.642H29.2394C29.5666 93.642 29.7847 93.4321 29.7847 93.1173V87.3457H30.33C30.6571 87.3457 30.8752 87.1358 30.8752 86.821C30.8752 86.5062 30.6571 86.2963 30.33 86.2963ZM28.6942 92.5926H26.5131V87.3457H28.6942V92.5926ZM81.5851 95.7407H78.3135C77.9864 95.7407 77.7682 95.9506 77.7682 96.2654V98.3642C77.7682 98.679 77.9864 98.8889 78.3135 98.8889H81.5851C81.9123 98.8889 82.1304 98.679 82.1304 98.3642V96.2654C82.1304 96.0556 81.9123 95.7407 81.5851 95.7407ZM81.0399 97.8395H78.8588V96.7901H81.0399V97.8395ZM82.6757 86.2963H81.5851H78.3135H77.223C76.8958 86.2963 76.6777 86.5062 76.6777 86.821C76.6777 87.1358 76.8958 87.3457 77.223 87.3457H77.7682V93.1173C77.7682 93.4321 77.9864 93.642 78.3135 93.642H81.5851C81.9123 93.642 82.1304 93.4321 82.1304 93.1173V87.3457H82.6757C83.0028 87.3457 83.2209 87.1358 83.2209 86.821C83.2209 86.5062 83.0028 86.2963 82.6757 86.2963ZM81.0399 92.5926H78.8588V87.3457H81.0399V92.5926Z" fill="#8A8A8A"/>
<path id="Vector_2" d="M87.1161 97.6899H85.5807V64.4426C85.5807 64.1156 85.3614 63.8976 85.0324 63.8976H84.484V60.4094L84.5937 60.3004C85.2517 59.5373 85.471 58.4472 85.3614 57.4662C85.2517 56.4851 84.7033 55.504 83.9356 54.959L79.11 51.1437V50.8167C79.439 50.5987 79.7681 50.2717 79.7681 49.8356C79.7681 49.1816 79.2197 48.6366 78.5617 48.6366C77.9036 48.6366 77.3553 49.1816 77.3553 49.8356C77.3553 50.2717 77.5746 50.7077 78.0133 50.8167V51.1437L73.1877 54.959C72.42 55.613 71.8716 56.4851 71.7619 57.4662C71.6523 58.4472 71.8716 59.4283 72.5297 60.1914V62.9165H71.9813C71.6523 62.9165 71.4329 63.1346 71.4329 63.4616V64.0066H64.6332L62.6591 61.0634V57.1391L64.8526 53.8689C64.9622 53.6509 64.9622 53.4329 64.8526 53.3239C64.7429 53.1059 64.5235 52.9969 64.4139 52.9969H62.6591V51.6888L62.7688 51.5798C63.7558 50.2717 64.0849 48.6366 63.7558 47.1105C63.4268 45.5844 62.4398 44.2763 61.014 43.5132L57.2851 41.5511V39.3709C57.2851 39.0439 57.0658 38.8259 56.7368 38.8259H56.1884V37.7358C56.1884 36.5367 55.2014 35.5557 53.995 35.5557C52.7886 35.5557 51.8015 36.5367 51.8015 37.7358V38.8259H51.2531C50.9241 38.8259 50.7048 39.0439 50.7048 39.3709V41.5511C50.7048 41.5511 50.7048 41.5511 50.7048 41.6601L46.8662 43.5132C45.3308 44.3853 44.3438 45.9114 44.0147 47.4375C43.7954 48.8546 44.1244 50.1627 45.0018 51.3617V52.9969H43.4664C43.247 52.9969 43.0277 53.1059 43.0277 53.3239C42.918 53.5419 42.918 53.7599 43.0277 53.8689L45.0018 56.8121V60.9544L43.1373 63.7886H36.228V63.2436C36.228 62.9165 36.0086 62.6985 35.6796 62.6985H35.1312V60.3004L35.2409 60.1914C35.8989 59.4283 36.1183 58.3382 36.0086 57.3572C35.8989 56.3761 35.3506 55.395 34.5829 54.85L29.7573 51.0347V50.7077C30.0863 50.4897 30.4153 50.1627 30.4153 49.7266C30.4153 49.0726 29.8669 48.5276 29.2089 48.5276C28.5509 48.5276 28.0025 49.0726 28.0025 49.7266C28.0025 50.1627 28.2219 50.5987 28.6605 50.7077V51.0347L23.8349 54.959C23.0672 55.613 22.5189 56.4851 22.4092 57.4662C22.2995 58.4472 22.5189 59.4283 23.1769 60.1914V64.0066H22.6285C22.2995 64.0066 22.0802 64.2246 22.0802 64.5516V97.7989H20.4351C20.1061 97.7989 19.8867 98.0169 19.8867 98.344C19.8867 98.671 20.1061 98.889 20.4351 98.889H22.6285H31.4024H31.9507H33.0475H36.4473H38.9698H43.4664H45.9888H50.4854H57.0658H61.5624H64.1945H68.6911H71.3233H73.5167H75.7102H75.8198H85.0324H87.1161C87.4452 98.889 87.6645 98.671 87.6645 98.344C87.6645 98.0169 87.4452 97.6899 87.1161 97.6899ZM72.749 57.5752C72.8587 56.8121 73.1877 56.1581 73.7361 55.722L78.452 52.0158L83.1679 55.722C83.7163 56.1581 84.155 56.8121 84.155 57.5752C84.2646 58.3382 84.0453 58.9923 83.6066 59.5373H73.1877C72.8587 58.9923 72.749 58.3382 72.749 57.5752ZM73.5167 60.6274H83.3873V63.8976H79.0004H75.7102V63.3526C75.7102 63.0255 75.4908 62.8075 75.1618 62.8075H73.5167V60.6274ZM71.3233 83.5189H68.6911V79.1586H71.3233V83.5189ZM68.6911 84.609H71.3233V87.8792H68.6911V84.609ZM71.3233 78.0686H68.6911V74.7983H71.3233V78.0686ZM71.8716 73.7083H71.3233H68.6911H68.1427H64.7429H64.1945H61.5624H60.9043H57.6142H57.0658H50.4854H49.9371H46.5372H45.9888H43.4664H42.918H39.5181H38.9698H36.4473H35.8989H31.9507H30.854V71.5281H76.9166V73.7083H75.9295H71.8716ZM61.5624 79.1586H64.1945V83.5189H61.5624V79.1586ZM64.1945 78.0686H61.5624V74.7983H64.1945V78.0686ZM61.5624 84.609H64.1945V87.8792H61.5624V84.609ZM50.4854 79.1586H57.0658V83.5189H50.4854V79.1586ZM57.0658 78.0686H50.4854V74.7983H57.0658V78.0686ZM50.4854 84.609H57.0658V87.8792H50.4854V84.609ZM43.3567 79.1586H45.8792V83.5189H43.3567V79.1586ZM45.9888 78.0686H43.4664V74.7983H45.9888V78.0686ZM43.3567 84.609H45.8792V87.8792H43.3567V84.609ZM38.8601 78.0686H36.3376V74.7983H38.8601V78.0686ZM36.3376 79.1586H38.8601V83.5189H36.3376V79.1586ZM36.3376 84.609H38.8601V87.8792H36.3376V84.609ZM77.3553 70.438H30.196H29.4283L31.6217 68.2579H32.3894H35.6796H35.7893H49.9371H57.6142H71.8716H75.1618H76.1489L78.3423 70.438H77.3553ZM32.9378 63.8976H35.1312V67.1678H32.9378V63.8976ZM46.0985 57.3572H48.4016L48.292 60.6274H46.0985V57.3572ZM51.6918 60.7364H49.3887L49.4984 57.4662H58.3819L58.2722 60.7364H55.9691H55.8594L53.995 59.6463C53.7756 59.5373 53.6659 59.5373 53.4466 59.6463L51.6918 60.7364ZM58.1625 63.8976V62.2625C58.1625 62.0445 58.0528 61.9355 57.8335 61.8265L57.7238 61.7175H58.4915L59.9173 63.8976H58.3819H58.1625ZM59.4786 57.3572H61.4527V60.6274H59.3689L59.4786 57.3572ZM49.279 56.2671L47.8533 54.0869H60.027L58.6012 56.2671H49.279ZM49.8274 61.7175L49.7177 61.8265C49.4984 61.9355 49.3887 62.1535 49.3887 62.2625V63.8976H49.1694H47.7436L49.1694 61.7175H49.8274ZM50.4854 62.5895L53.7756 60.7364L57.0658 62.5895V67.1678H50.4854V62.5895ZM72.42 63.8976H74.6134V67.1678H72.42V63.8976ZM71.3233 67.1678H58.1625V64.9877H58.4915H64.3042H71.3233V67.1678ZM61.343 63.8976L59.9173 61.7175H61.7817L63.3171 63.8976H61.343ZM61.7817 56.2671H59.9173L61.343 54.0869H62.0011H63.3171L61.7817 56.2671ZM52.6789 37.7358C52.6789 37.1908 53.2272 36.6457 53.7756 36.6457C54.324 36.6457 54.8723 37.0818 54.8723 37.7358V38.8259H52.6789V37.7358ZM51.5822 39.916H55.9691V41.006H51.5822V39.916ZM45.1115 47.6555C45.3308 46.3474 46.2082 45.1483 47.4146 44.4943L51.9112 42.0961H55.7497L60.2463 44.4943C61.343 45.1483 62.2204 46.1294 62.4398 47.3285C62.6591 48.5276 62.4398 49.7266 61.672 50.8167H55.8594V49.6176C55.8594 48.6366 55.4207 47.8735 54.5433 47.3285L53.8853 46.8924C53.6659 46.7834 53.4466 46.7834 53.3369 46.8924L52.6789 47.3285C51.9112 47.8735 51.4725 48.6366 51.4725 49.6176V50.8167H45.7695C45.2211 49.8356 44.8921 48.7456 45.1115 47.6555ZM54.8723 50.8167H52.6789V49.6176C52.6789 49.0726 53.0079 48.5276 53.4466 48.2005L53.7756 47.9825L54.1046 48.2005C54.5433 48.5276 54.8723 48.9636 54.8723 49.6176V50.8167ZM46.0985 51.9068H61.4527V52.9969H46.0985V51.9068ZM45.5501 54.0869H46.4275L47.8533 56.2671H45.8792L44.4534 54.0869H45.5501ZM45.8792 61.7175H47.8533L46.4275 63.8976H44.4534L45.8792 61.7175ZM36.3376 64.9877H43.4664H49.1694H49.3887V67.1678H36.3376V64.9877ZM23.3962 57.5752C23.5059 56.8121 23.8349 56.1581 24.3833 55.722L29.0992 52.0158L33.8152 55.722C34.3635 56.1581 34.8022 56.8121 34.8022 57.5752C34.9119 58.3382 34.6925 58.9923 34.2539 59.5373H23.8349C23.5059 58.9923 23.3962 58.3382 23.3962 57.5752ZM24.164 60.6274H34.0345V62.8075H32.3894C32.0604 62.8075 31.8411 63.0255 31.8411 63.3526V63.8976H28.5509H24.164V60.6274ZM31.2927 97.6899H23.0672V64.9877H23.6156H28.5509H31.8411V67.1678H31.4024C31.2927 67.1678 31.0733 67.2768 30.9637 67.2768L27.6735 70.5471C27.5638 70.6561 27.4541 70.9831 27.5638 71.0921C27.6735 71.2011 27.8928 71.4191 28.1122 71.4191H29.6476V74.1443C29.6476 74.4713 29.8669 74.6893 30.196 74.6893H31.8411V97.5809H31.2927V97.6899ZM32.9378 97.6899V74.7983H35.2409V78.6136V84.064V88.4243V97.6899H32.9378ZM36.3376 97.6899V88.9693H38.8601V97.6899H36.3376ZM39.9568 97.6899V88.4243V84.064V78.6136V74.7983H42.26V97.6899H39.9568ZM43.3567 97.6899V88.9693H45.8792V97.6899H43.3567ZM47.0856 97.6899V84.064V74.7983H49.3887V97.6899H47.0856ZM50.4854 97.6899V88.9693H57.0658V97.6899H50.4854ZM58.1625 97.6899V74.7983H60.4656V97.6899H58.1625ZM61.5624 97.6899V88.9693H64.1945V97.6899H61.5624ZM65.2913 97.6899V74.7983H67.5944V97.6899H65.2913ZM68.6911 97.6899V88.9693H71.3233V97.6899H68.6911ZM73.5167 97.6899H72.42V88.4243V84.064V78.6136V74.7983H74.7231V97.6899H73.5167ZM75.8198 97.6899V74.7983H77.3553C77.6843 74.7983 77.9036 74.5803 77.9036 74.2533V71.5281H79.6584C79.8777 71.5281 80.0971 71.4191 80.2067 71.2011C80.3164 70.9831 80.2068 70.7651 80.0971 70.6561L76.8069 67.3858C76.6972 67.2768 76.5875 67.2768 76.3682 67.2768H75.7102V65.0967H79.0004H83.9356H84.484V97.7989H75.8198V97.6899Z" fill="#8A8A8A"/>
</g>
</svg>
