<svg width="100" height="100" viewBox="0 0 100 100" fill="none" xmlns="http://www.w3.org/2000/svg">
<g id="open-hand-monument-161356 1">
<g id="g169">
<path id="path171" d="M31.1121 37.9405L36.3604 41.2479C37.0067 41.6209 37.7325 41.7195 38.4078 41.5851C38.0909 41.5257 37.7761 41.4193 37.4805 41.2479L32.2321 37.9405C31.83 37.6448 31.326 37.618 30.9844 37.87C31.0258 37.8935 31.0706 37.9103 31.1121 37.9405Z" fill="#8A8A8A"/>
</g>
<g id="g213">
<path id="path215" d="M60.4902 99.3186H62.7303V97.0786C62.7303 98.3162 61.7279 99.3186 60.4902 99.3186Z" fill="#8A8A8A"/>
</g>
<path id="path274" d="M49.8885 31.1113C48.8462 31.1113 47.9983 31.971 47.9983 33.0303V35.064C47.9983 35.3757 48.2493 35.6286 48.556 35.6286C48.8627 35.6286 49.1115 35.3757 49.1115 35.064V33.0303C49.1115 32.5944 49.4606 32.2407 49.8906 32.2407C50.3184 32.2407 50.6654 32.5944 50.6654 33.0303L50.635 43.9133C50.635 43.9671 50.6465 44.009 50.648 44.0611C49.8286 43.8955 49.0004 43.7806 48.1697 43.6927C48.0817 43.6626 47.9886 43.6465 47.8919 43.6641H47.8898C46.5414 43.5361 45.1849 43.501 43.8338 43.5913C43.2944 43.6274 42.7579 43.6839 42.2214 43.7545V42.9693C42.2214 42.6576 41.9725 42.4046 41.6658 42.4046C41.3591 42.4046 41.1102 42.6576 41.1102 42.9693V43.9287C38.3007 44.4248 35.5694 45.3932 33.0655 46.7785L31.4965 38.6968C31.4165 38.3083 31.4636 38.0132 31.6202 37.9115C31.7569 37.8178 32.0012 37.8592 32.2257 38.024L37.4514 41.3723C38.9503 42.2475 40.8803 41.8658 41.9392 40.4812C42.167 40.1831 42.3279 39.8313 42.4102 39.4688L43.7687 33.1494C43.7764 33.1099 43.7817 33.0698 43.7817 33.0303C43.7817 32.5944 44.1286 32.2407 44.5564 32.2407C44.9842 32.2407 45.3333 32.5944 45.3333 33.0303V35.064C45.3333 35.3757 45.5801 35.6286 45.8867 35.6286C46.1934 35.6286 46.4423 35.3757 46.4423 35.064V33.0325C46.4423 31.9743 45.5964 31.1135 44.5564 31.1135C43.5364 31.1135 42.7017 31.9397 42.6684 32.9685L41.4119 38.9151L41.3338 39.1842C41.2815 39.4146 41.1859 39.6237 41.0603 39.7886C40.3392 40.7305 39.0254 40.9912 38.0243 40.4062L32.8507 37.0932C32.2818 36.6697 31.5468 36.6175 31.0213 36.9631C30.7524 37.1381 30.1538 37.6784 30.4071 38.9218L32.102 47.652C33.2599 53.6143 34.6724 56.3095 39.9991 56.605V64.9911H29.4436C29.1369 64.9911 28.888 65.2441 28.888 65.5558V98.8709H26.1102C25.8036 98.8709 25.5547 99.1239 25.5547 99.4355C25.5547 99.7472 25.8036 100 26.1102 100H29.4436H64.9991H68.3325C68.6391 100 68.888 99.7472 68.888 99.4355C68.888 99.1239 68.6391 98.8709 68.3325 98.8709H65.5547V65.5558C65.5547 65.2441 65.3058 64.9911 64.9991 64.9911H43.3325V56.5587L43.9661 56.5168C44.1932 56.4981 44.4162 56.4555 44.6411 56.4241C44.6602 56.4248 44.6782 56.4304 44.6975 56.4307H44.7062C44.7831 56.4307 44.8566 56.4131 44.9232 56.3844C46.368 56.1471 47.7907 55.6557 49.3242 54.8338C51.0398 53.9134 52.7344 52.6527 54.3611 51.0863L55.2378 50.2415C56.0034 49.5029 57.0463 49.1157 58.0786 49.1541L60.8585 49.4099C62.2563 49.524 63.2016 48.9826 63.645 47.7799C63.8361 47.1927 63.7892 46.5632 63.5148 46.0109C63.2403 45.4587 62.772 45.0483 62.1931 44.8551L58.0482 43.4655C57.6526 43.3345 57.0543 43.1948 56.4054 43.5008C56.3698 43.5178 56.3345 43.5389 56.3034 43.5626C55.0967 44.492 53.0296 45.6114 52.2018 45.1992C51.8974 45.0445 51.7418 44.6112 51.7418 43.9133L51.7765 33.0303C51.7765 31.9721 50.9296 31.1113 49.8885 31.1113ZM43.888 37.0403C43.7347 37.0403 43.6102 37.1668 43.6102 37.3226C43.6102 37.4785 43.7347 37.605 43.888 37.605H44.9991C45.1525 37.605 45.2769 37.4785 45.2769 37.3226C45.2769 37.1668 45.1525 37.0403 44.9991 37.0403H43.888ZM48.3325 37.0403C48.1791 37.0403 48.0547 37.1668 48.0547 37.3226C48.0547 37.4785 48.1791 37.605 48.3325 37.605H49.4436C49.5969 37.605 49.7214 37.4785 49.7214 37.3226C49.7214 37.1668 49.5969 37.0403 49.4436 37.0403H48.3325ZM46.1102 39.2989C45.9569 39.2989 45.8325 39.4254 45.8325 39.5813C45.8325 39.7371 45.9569 39.8636 46.1102 39.8636H47.2214C47.3747 39.8636 47.4991 39.7371 47.4991 39.5813C47.4991 39.4254 47.3747 39.2989 47.2214 39.2989H46.1102ZM43.888 41.5576C43.7347 41.5576 43.6102 41.6841 43.6102 41.8399C43.6102 41.9958 43.7347 42.1223 43.888 42.1223H44.9991C45.1525 42.1223 45.2769 41.9958 45.2769 41.8399C45.2769 41.6841 45.1525 41.5576 44.9991 41.5576H43.888ZM48.3325 41.5576C48.1791 41.5576 48.0547 41.6841 48.0547 41.8399C48.0547 41.9958 48.1791 42.1223 48.3325 42.1223H49.4436C49.5969 42.1223 49.7214 41.9958 49.7214 41.8399C49.7214 41.6841 49.5969 41.5576 49.4436 41.5576H48.3325ZM57.3038 44.4449C57.4324 44.4543 57.5641 44.4901 57.7075 44.5375L61.8524 45.9249C62.148 46.0232 62.3884 46.2359 62.5295 46.5182C62.6695 46.8017 62.6933 47.1227 62.6033 47.4027C62.4222 47.8895 62.0806 48.3799 60.9583 48.285L58.1589 48.027C56.8266 47.9784 55.4616 48.4746 54.4783 49.421L53.6016 50.2658C52.0471 51.761 50.4366 52.9606 48.8099 53.8324C47.3379 54.6217 45.9854 55.083 44.6194 55.2904C43.5955 55.2201 42.7769 54.3467 42.7769 53.292C42.7769 52.943 42.8663 52.6021 43.0352 52.2994C43.1863 52.0284 43.0935 51.6821 42.8268 51.5274C42.5613 51.3772 42.2206 51.4703 42.0673 51.7414C41.8039 52.2123 41.6636 52.7477 41.6636 53.292C41.6636 54.1374 42.0014 54.9107 42.5447 55.4779L42.3581 55.4889C42.2147 55.4979 42.0717 55.5021 41.9284 55.5021H41.0386C35.8236 55.5021 34.486 53.6834 33.326 48.0512H41.6658C41.7425 48.0512 41.8164 48.0357 41.8828 48.0071C42.0822 47.9213 42.2214 47.7203 42.2214 47.4866V44.8993C42.6464 44.8407 43.0729 44.8023 43.4996 44.7647L43.9661 46.8976C44.1584 47.5797 44.774 48.032 45.5352 48.0512H45.5829C46.3296 48.0512 46.9512 47.6255 47.1823 46.9197L47.6141 45.1838L47.9136 46.7653C48.0981 47.5185 48.7356 48.0343 49.5 48.0512H49.5347C50.2814 48.0512 50.9217 47.5641 51.1406 46.7962L51.3273 45.9271C51.4424 46.0374 51.5671 46.1356 51.7135 46.2094C52.2862 46.4972 53.006 46.4284 53.7274 46.2139C54.3913 46.8376 55.2416 47.2042 56.145 47.2042C56.6072 47.2042 57.0625 47.1136 57.4991 46.9351C57.5836 46.899 57.6452 46.8215 57.6641 46.73C57.6841 46.6385 57.6591 46.5441 57.5946 46.4763C57.1272 45.9838 56.7956 45.3817 56.6072 44.7228C56.7042 44.6532 56.8705 44.5427 56.924 44.5022C57.0496 44.4508 57.1752 44.4354 57.3038 44.4449ZM45.6545 44.6677C45.9658 44.6695 46.2763 44.6937 46.5877 44.7074L46.1189 46.6021C46.0378 46.8471 45.8234 46.9399 45.5612 46.9241C45.3601 46.9196 45.1014 46.8264 45.0425 46.6197L44.6237 44.6985C44.9672 44.6861 45.3103 44.6656 45.6545 44.6677ZM48.6884 44.886C49.2478 44.9582 49.8039 45.0496 50.3572 45.1595L50.0642 46.516C49.9542 46.8978 49.6373 46.9321 49.5217 46.9219C49.4217 46.9196 49.0876 46.8829 48.9987 46.5227L48.6884 44.886ZM56.1385 45.0492C56.3143 45.5885 56.5626 46.0964 56.911 46.5381C56.0162 46.7766 55.0746 46.5522 54.3437 45.9955C55.0183 45.719 55.655 45.3623 56.1385 45.0492ZM41.1102 45.0735V46.9219H35.2769C37.1391 46.0704 39.1012 45.4445 41.1102 45.0735ZM41.1102 56.6337H41.9262H42.2214V64.9911H41.1102V56.6337ZM29.9991 66.1204H64.4436V98.8709H63.3325V97.1769V85.8836V67.8144C63.3325 67.5027 63.0836 67.2498 62.7769 67.2498H31.6658C31.3591 67.2498 31.1102 67.5027 31.1102 67.8144V98.8709H29.9991V66.1204ZM32.2214 68.3791H39.9991V90.9656H39.4436C39.1369 90.9656 38.888 91.2186 38.888 91.5303V98.8709H32.2214V68.3791ZM41.1102 68.3791H42.2214V90.9656H41.1102V68.3791ZM43.3325 68.3791H62.2214V83.6404C61.7556 83.2819 61.1829 83.0603 60.5547 83.0603H49.4436C47.9114 83.0603 46.6658 84.3263 46.6658 85.8836V97.1769C46.6658 97.8154 46.8838 98.3975 47.2365 98.8709H44.4436V91.5303C44.4436 91.2186 44.1947 90.9656 43.888 90.9656H43.3325V68.3791ZM49.4436 84.1896H60.5547C61.4736 84.1896 62.2214 84.9497 62.2214 85.8836V97.1769C62.2214 98.1108 61.4736 98.8709 60.5547 98.8709H49.4436C48.5247 98.8709 47.7769 98.1108 47.7769 97.1769V85.8836C47.7769 84.9497 48.5247 84.1896 49.4436 84.1896ZM39.9991 92.0949H40.5547H42.7769H43.3325V98.8709H39.9991V92.0949Z" fill="#8A8A8A"/>
<path id="path289" d="M48.3978 35.5558C48.1272 35.5558 47.9076 35.3069 47.9076 35.0002V33.0002C47.9076 32.5713 47.6008 32.2224 47.2223 32.2224C46.8429 32.2224 46.5351 32.5713 46.5351 33.0002V35.0002C46.5351 35.3069 46.3155 35.5558 46.0449 35.5558C45.7743 35.5558 45.5547 35.3069 45.5547 35.0002V33.0002C45.5547 31.958 46.3037 31.1113 47.2233 31.1113C48.1419 31.1113 48.888 31.9591 48.888 33.0002V35.0002C48.888 35.3069 48.6694 35.5558 48.3978 35.5558Z" fill="#8A8A8A"/>
</g>
</svg>
