<svg width="101" height="100" viewBox="0 0 101 100" fill="none" xmlns="http://www.w3.org/2000/svg">
<g id="chennai-central-railway-station-119687 1">
<path id="path592" d="M51.0013 32.2222C50.7831 32.2222 50.6061 32.3988 50.6061 32.6163V36.974H49.0346L49.0253 35.7888C49.0238 35.5728 48.8467 35.3978 48.6301 35.3978H48.6271C48.4089 35.3994 48.2334 35.5774 48.235 35.7949L48.2473 37.3711V39.3153H47.8398C47.6216 39.3153 47.4446 39.4918 47.4446 39.7093C47.4446 39.9268 47.6216 40.1034 47.8398 40.1034H48.0914L46.594 44.832H45.8638V43.6499C45.8638 43.4324 45.6868 43.2558 45.4686 43.2558C45.2505 43.2558 45.0735 43.4324 45.0735 43.6499V45.2261V46.8023V49.5607C45.0735 49.5765 45.0811 49.5889 45.0827 49.6038L43.5112 54.5649C43.5073 54.5783 43.5113 54.5923 43.5081 54.6065C43.5026 54.6325 43.4927 54.6559 43.4927 54.6835V56.2597V57.0478V77.1447H26.1044V76.3797H26.5212C26.7393 76.3797 26.9164 76.2031 26.9164 75.9856C26.9164 75.7681 26.7393 75.5915 26.5212 75.5915H26.0056L23.8969 69.2866H24.1408C24.3589 69.2866 24.536 69.1101 24.536 68.8926C24.536 68.6751 24.3589 68.4985 24.1408 68.4985H23.3489H22.9537V66.5282V64.952C22.9537 64.7345 22.7766 64.558 22.5585 64.558C22.3404 64.558 22.1633 64.7345 22.1633 64.952V66.1342H18.2114V64.952C18.2114 64.7345 18.0344 64.558 17.8162 64.558C17.5981 64.558 17.421 64.7345 17.421 64.952V66.5282V68.4985H17.0181H16.2416C16.0235 68.4985 15.8465 68.6751 15.8465 68.8926C15.8465 69.1101 16.0235 69.2866 16.2416 69.2866H16.4717L14.3599 75.5915H13.8612C13.6431 75.5915 13.4661 75.7681 13.4661 75.9856C13.4661 76.2031 13.6431 76.3797 13.8612 76.3797H14.2487V78.3268V79.115V99.2118H13.0632C12.845 99.2118 12.668 99.3884 12.668 99.6059C12.668 99.8234 12.845 99.9999 13.0632 99.9999H14.6439H25.7092H43.8879H58.1147H76.2934H87.3587H88.9394C89.1576 99.9999 89.3346 99.8234 89.3346 99.6059C89.3346 99.3884 89.1584 99.2118 88.9394 99.2118H87.7539V79.115V78.3268V76.3797H88.1491C88.3672 76.3797 88.5443 76.2031 88.5443 75.9856C88.5443 75.7681 88.3672 75.5915 88.1491 75.5915H87.6505L85.5417 69.2866H85.7857C86.0038 69.2866 86.1808 69.1101 86.1808 68.8926C86.1808 68.6751 86.0038 68.4985 85.7857 68.4985H84.9937H84.5985V66.5282V64.952C84.5985 64.7345 84.4215 64.558 84.2034 64.558C83.9852 64.558 83.8082 64.7345 83.8082 64.952V66.1342H79.8563V64.952C79.8563 64.7345 79.6792 64.558 79.4611 64.558C79.2429 64.558 79.0659 64.7345 79.0659 64.952V66.5282V68.4985H78.663H77.885C77.6668 68.4985 77.4898 68.6751 77.4898 68.8926C77.4898 69.1101 77.6668 69.2866 77.885 69.2866H78.115L76.0109 75.5684H75.5046C75.2864 75.5684 75.1094 75.745 75.1094 75.9625C75.1094 76.18 75.2864 76.3566 75.5046 76.3566H75.8997V77.1447H58.5114V57.0478V56.2597V54.6835C58.5114 54.6559 58.5015 54.6325 58.496 54.6065C58.4936 54.5923 58.4977 54.5783 58.4929 54.5649L56.9214 49.6038C56.923 49.5889 56.9292 49.5757 56.9292 49.5607V46.8023V45.2261V43.6499C56.9292 43.4324 56.7521 43.2558 56.534 43.2558C56.3158 43.2558 56.1388 43.4324 56.1388 43.6499V44.832H55.4102L53.9128 40.1034H54.1628C54.381 40.1034 54.558 39.9268 54.558 39.7093C54.558 39.4918 54.381 39.3153 54.1628 39.3153H53.78V37.3681V37.3665V37.3649L53.7677 35.7887C53.7661 35.5727 53.589 35.3977 53.3725 35.3977H53.3694C53.1512 35.3993 52.9757 35.5773 52.9773 35.7948L52.9865 36.9739H51.3965V32.6162C51.3965 32.3987 51.2194 32.2222 51.0013 32.2222ZM49.0377 37.7621H49.8157V39.3153H49.0377V37.7621ZM50.6061 37.7621H51.3965V39.3153H50.6061V37.7621ZM52.1869 37.7621H52.9896V39.3153H52.1869V37.7621ZM48.9127 40.1265H53.0915L57.5759 54.2894H55.3499V52.3191C55.3499 52.1016 55.1729 51.9251 54.9547 51.9251H53.5839L51.3749 45.8803C51.3187 45.7258 51.1703 45.6217 51.0059 45.6202H51.0028C50.8392 45.6202 50.6924 45.7205 50.6339 45.8726L48.2936 51.9251H47.0509C46.8328 51.9251 46.6558 52.1016 46.6558 52.3191V54.2894H44.4297L48.9127 40.1265ZM45.8638 45.6202H46.3455L45.8638 47.1364V46.8023V45.6202ZM55.6586 45.6202H56.1387V46.8023V47.1364L55.6586 45.6202ZM50.992 47.1348L52.9356 52.453C52.9363 52.4554 52.9386 52.4553 52.9402 52.4577C52.9663 52.5255 53.0114 52.5798 53.0683 52.6239C53.081 52.6334 53.0919 52.6422 53.1054 52.6501C53.1655 52.6863 53.231 52.7117 53.3061 52.7117H54.558V54.6789V54.6819C54.558 54.8995 54.7351 55.076 54.9532 55.076H55.7436H57.3243H57.7195V55.1483C57.5954 55.1042 57.4634 55.076 57.3243 55.076C57.02 55.076 56.7442 55.1947 56.534 55.3839C56.3237 55.1947 56.0479 55.076 55.7436 55.076C55.0899 55.076 54.558 55.6064 54.558 56.2582V57.0463C54.558 57.2638 54.7351 57.4403 54.9532 57.4403C55.1713 57.4403 55.3484 57.2638 55.3484 57.0463V56.2582C55.3484 56.0414 55.5262 55.8641 55.7436 55.8641C55.9609 55.8641 56.1388 56.0414 56.1388 56.2582V57.0463C56.1388 57.2638 56.3158 57.4403 56.534 57.4403C56.7521 57.4403 56.9291 57.2638 56.9291 57.0463V56.2582C56.9291 56.0414 57.107 55.8641 57.3243 55.8641C57.5417 55.8641 57.7195 56.0414 57.7195 56.2582V57.0463V61.3809H53.3724H48.6302H44.2831V57.0463V56.2582C44.2831 56.0414 44.4609 55.8641 44.6783 55.8641C44.8956 55.8641 45.0735 56.0414 45.0735 56.2582V57.0463C45.0735 57.2638 45.2505 57.4403 45.4687 57.4403C45.6868 57.4403 45.8639 57.2638 45.8639 57.0463V56.2582C45.8639 56.0414 46.0417 55.8641 46.259 55.8641C46.4764 55.8641 46.6542 56.0414 46.6542 56.2582V57.0463C46.6542 57.2638 46.8313 57.4403 47.0494 57.4403C47.2676 57.4403 47.4446 57.2638 47.4446 57.0463V56.2582C47.4446 55.6117 46.9209 55.086 46.2745 55.0775H47.0494C47.2676 55.0775 47.4446 54.901 47.4446 54.6835V52.7132H48.5653C48.5677 52.7132 48.5691 52.7116 48.5715 52.7116C48.5913 52.7108 48.6097 52.7032 48.6286 52.6993C48.7662 52.6765 48.8806 52.5899 48.9312 52.4638C48.932 52.4622 48.9319 52.4607 48.9328 52.4591L50.992 47.1348ZM44.2831 55.0775H44.6705C44.5344 55.0786 44.4047 55.1051 44.2831 55.1483V55.0775ZM44.6937 55.0775H46.2436C45.9456 55.0815 45.6752 55.198 45.4686 55.3838C45.2621 55.198 44.9917 55.0815 44.6937 55.0775ZM51.0013 55.0775C49.4759 55.0775 48.235 56.3149 48.235 57.8359C48.235 59.357 49.4766 60.5943 51.0013 60.5943C52.5267 60.5943 53.7676 59.357 53.7676 57.8359C53.7676 56.3149 52.5267 55.0775 51.0013 55.0775ZM51.0013 55.8656C52.0912 55.8656 52.9772 56.7491 52.9772 57.8359C52.9772 58.9227 52.0912 59.8062 51.0013 59.8062C49.9114 59.8062 49.0253 58.9227 49.0253 57.8359C49.0253 56.7491 49.9114 55.8656 51.0013 55.8656ZM51.0013 56.6537C50.7831 56.6537 50.6061 56.8303 50.6061 57.0478V57.8359C50.6069 58.0534 50.7831 58.23 51.0013 58.23C51.0084 58.23 51.0158 58.2269 51.0229 58.2269C51.03 58.2269 51.0359 58.23 51.043 58.23H52.1868C52.405 58.23 52.582 58.0534 52.582 57.8359C52.582 57.6184 52.405 57.4419 52.1868 57.4419H51.3965V57.0478C51.3965 56.8303 51.2194 56.6537 51.0013 56.6537ZM44.2831 62.1705H48.235V63.3527C48.235 63.5017 48.3206 63.6382 48.4542 63.7052L49.8157 64.384V65.717C49.8157 65.9346 49.9928 66.1111 50.2109 66.1111H50.6061V67.6873C50.388 67.6873 50.2109 67.8639 50.2109 68.0814C50.2109 68.2989 50.388 68.4754 50.6061 68.4754H51.3965C51.6146 68.4754 51.7917 68.2989 51.7917 68.0814C51.7917 67.8639 51.6146 67.6873 51.3965 67.6873V66.1111H51.7917C52.0098 66.1111 52.1869 65.9346 52.1869 65.717V64.384L53.5499 63.7052C53.6835 63.6382 53.7676 63.5017 53.7676 63.3527V62.1705H57.7195V71.6279H54.558V70.0517C54.558 69.1824 53.849 68.4754 52.9772 68.4754C52.1054 68.4754 51.3965 69.1824 51.3965 70.0517V71.6279H50.6061V70.0517C50.6061 69.1824 49.8971 68.4754 49.0253 68.4754C48.1536 68.4754 47.4446 69.1824 47.4446 70.0517V71.6279H44.2831V62.1705ZM49.0253 62.1721H52.9772V63.1095L51.6157 63.7884C51.4821 63.8553 51.3965 63.9919 51.3965 64.1408V65.323H50.6061V64.1408C50.6061 63.9919 50.522 63.8553 50.3884 63.7884L49.0253 63.1095V62.1721ZM18.2129 66.9223H18.991V68.4755H18.2129V66.9223ZM19.7814 66.9223H20.5717V68.4755H19.7814V66.9223ZM21.3621 66.9223H22.1648V68.4755H21.3621V66.9223ZM79.8563 66.9223H80.6358V68.4755H79.8563V66.9223ZM81.4262 66.9223H82.2166V68.4755H81.4262V66.9223ZM83.0054 66.9223H83.8081V68.4755H83.0054V66.9223ZM49.0253 69.2635C49.4616 69.2635 49.8157 69.6166 49.8157 70.0517V72.0219V73.5982V75.5684H48.235V70.0517C48.235 69.6166 48.5891 69.2635 49.0253 69.2635ZM52.9772 69.2635C53.4135 69.2635 53.7676 69.6166 53.7676 70.0517V75.5684H52.1869V73.5982V72.0219V70.0517C52.1869 69.6166 52.5409 69.2635 52.9772 69.2635ZM17.3053 69.2866H23.0664L25.1735 75.5915H24.3013H22.7252L20.4698 73.3211C20.3956 73.2462 20.2948 73.2041 20.1904 73.2041H20.1889C20.0837 73.2041 19.9829 73.2455 19.9094 73.3196L17.6417 75.5915H16.3975H15.1934L17.3053 69.2866ZM78.9486 69.2866H84.7097L86.8168 75.5915H85.7795H84.3685L82.1132 73.3211C82.0389 73.2462 81.9381 73.2041 81.8337 73.2041H81.8322C81.727 73.2041 81.6263 73.2455 81.5527 73.3196L79.2866 75.5915H77.9914C77.9543 75.5805 77.916 75.5684 77.8756 75.5684H76.846L78.9486 69.2866ZM44.2831 72.416H47.4446V75.5684H47.0494C46.8313 75.5684 46.6542 75.745 46.6542 75.9625V77.5387C46.6542 77.7562 46.8313 77.9328 47.0494 77.9328H54.9532C55.1713 77.9328 55.3484 77.7562 55.3484 77.5387V75.9625C55.3484 75.745 55.1713 75.5684 54.9532 75.5684H54.558V72.416H57.7195V77.5387V81.4793V87.3901H54.558V81.4793C54.558 80.3925 53.672 79.509 52.582 79.509C51.9331 79.509 51.3617 79.8271 51.0013 80.3094C50.6409 79.8271 50.0694 79.509 49.4205 79.509C48.3306 79.509 47.4446 80.3925 47.4446 81.4793V87.3901H44.2831V81.4793V77.5387V72.416ZM50.6061 72.416H51.3965V73.2041H50.6061V72.416ZM50.6061 73.9922H51.3965V75.5684H50.6061V73.9922ZM20.1873 74.1585L22.2791 76.2627C22.3534 76.3375 22.4549 76.3797 22.56 76.3797H24.3013H25.314V77.217C25.1899 77.1729 25.0579 77.1447 24.9188 77.1447C24.6145 77.1447 24.3387 77.2634 24.1284 77.4525C23.9182 77.2634 23.6424 77.1447 23.3381 77.1447C22.6844 77.1447 22.1525 77.6751 22.1525 78.3268V79.115C22.1525 79.3325 22.3295 79.509 22.5477 79.509C22.7658 79.509 22.9429 79.3325 22.9429 79.115V78.3268C22.9429 78.1101 23.1207 77.9328 23.3381 77.9328C23.5554 77.9328 23.7332 78.1101 23.7332 78.3268V79.115C23.7332 79.3325 23.9103 79.509 24.1284 79.509C24.3466 79.509 24.5236 79.3325 24.5236 79.115V78.3268C24.5236 78.1101 24.7015 77.9328 24.9188 77.9328C25.1362 77.9328 25.314 78.1101 25.314 78.3268V79.115V81.4793V99.2118H23.6931V96.4457C23.6931 94.4904 22.0973 92.8992 20.1364 92.8992C18.1755 92.8992 16.5797 94.4904 16.5797 96.4457V99.2118H15.0391V79.115V78.3268C15.0391 78.1101 15.2169 77.9328 15.4343 77.9328C15.6516 77.9328 15.8295 78.1101 15.8295 78.3268V79.115C15.8295 79.3325 16.0065 79.509 16.2247 79.509C16.4428 79.509 16.6198 79.3325 16.6198 79.115V78.3268C16.6198 78.1101 16.7977 77.9328 17.015 77.9328C17.2324 77.9328 17.4102 78.1101 17.4102 78.3268V79.115C17.4102 79.3325 17.5873 79.509 17.8054 79.509C18.0236 79.509 18.2006 79.3325 18.2006 79.115V78.3268C18.2006 77.6751 17.6687 77.1447 17.015 77.1447C16.7107 77.1447 16.4349 77.2634 16.2247 77.4525C16.0144 77.2634 15.7386 77.1447 15.4343 77.1447C15.2952 77.1447 15.1632 77.1729 15.0391 77.217V76.3797H16.3975H17.8054C17.9105 76.3797 18.0129 76.3383 18.0864 76.2642L20.1873 74.1585ZM81.8307 74.1585L83.9224 76.2627C83.9967 76.3375 84.0982 76.3797 84.2033 76.3797H85.7779H86.9635V77.217C86.8394 77.1729 86.7074 77.1447 86.5683 77.1447C86.264 77.1447 85.9882 77.2634 85.7779 77.4525C85.5677 77.2634 85.2918 77.1447 84.9875 77.1447C84.3339 77.1447 83.802 77.6751 83.802 78.3268V79.115C83.802 79.3325 83.979 79.509 84.1972 79.509C84.4153 79.509 84.5923 79.3325 84.5923 79.115V78.3268C84.5923 78.1101 84.7702 77.9328 84.9875 77.9328C85.2049 77.9328 85.3827 78.1101 85.3827 78.3268V79.115C85.3827 79.3325 85.5598 79.509 85.7779 79.509C85.9961 79.509 86.1731 79.3325 86.1731 79.115V78.3268C86.1731 78.1101 86.3509 77.9328 86.5683 77.9328C86.7856 77.9328 86.9635 78.1101 86.9635 78.3268V79.115V99.2118H85.3426V96.4457C85.3426 94.4904 83.7468 92.8992 81.7859 92.8992C79.825 92.8992 78.2292 94.4904 78.2292 96.4457V99.2118H76.6901V81.4793V79.115V78.3268C76.6901 78.1101 76.8679 77.9328 77.0853 77.9328C77.3027 77.9328 77.4805 78.1101 77.4805 78.3268V79.115C77.4805 79.3325 77.6575 79.509 77.8757 79.509C78.0938 79.509 78.2709 79.3325 78.2709 79.115V78.3268C78.2709 78.1101 78.4487 77.9328 78.6661 77.9328C78.8834 77.9328 79.0612 78.1101 79.0612 78.3268V79.115C79.0612 79.3325 79.2383 79.509 79.4564 79.509C79.6746 79.509 79.8516 79.3325 79.8516 79.115V78.3268C79.8516 77.6751 79.3197 77.1447 78.6661 77.1447C78.3618 77.1447 78.0859 77.2634 77.8757 77.4525C77.6654 77.2634 77.3896 77.1447 77.0853 77.1447C76.9462 77.1447 76.8142 77.1729 76.6901 77.217V76.3797H79.4503C79.5554 76.3797 79.6562 76.3383 79.7297 76.2642L81.8307 74.1585ZM20.1765 75.5684C19.5229 75.5684 18.991 76.0989 18.991 76.7506V79.115C18.991 79.3325 19.168 79.509 19.3862 79.509H20.9669C21.1851 79.509 21.3621 79.3325 21.3621 79.115V76.7506C21.3621 76.0989 20.8302 75.5684 20.1765 75.5684ZM81.826 75.5684C81.1724 75.5684 80.6405 76.0989 80.6405 76.7506V79.115C80.6405 79.3325 80.8175 79.509 81.0356 79.509H82.6164C82.8345 79.509 83.0116 79.3325 83.0116 79.115V76.7506C83.0116 76.0989 82.4797 75.5684 81.826 75.5684ZM20.1765 76.3566C20.3939 76.3566 20.5717 76.5339 20.5717 76.7506V78.7209H19.7814V76.7506C19.7814 76.5339 19.9592 76.3566 20.1765 76.3566ZM47.4446 76.3566H47.8398H48.235V77.1447H47.4446V76.3566ZM49.0253 76.3566H49.8157V77.1447H49.0253V76.3566ZM50.6061 76.3566H51.3965V77.1447H50.6061V76.3566ZM52.1869 76.3566H52.9772V77.1447H52.1869V76.3566ZM53.7676 76.3566H54.1628H54.558V77.1447H53.7676V76.3566ZM81.826 76.3566C82.0434 76.3566 82.2212 76.5339 82.2212 76.7506V78.7209H81.4308V76.7506C81.4308 76.5339 81.6087 76.3566 81.826 76.3566ZM26.1044 77.9328H43.4927V81.0852H26.1044V79.115V78.3268V77.9328ZM58.5099 77.9328H75.8982V78.3268V79.115V81.0852H58.5099V77.9328ZM49.4205 80.2971C50.0742 80.2971 50.6061 80.8275 50.6061 81.4793V87.3901H48.235V81.4793C48.235 80.8275 48.7669 80.2971 49.4205 80.2971ZM52.582 80.2971C53.2357 80.2971 53.7676 80.8275 53.7676 81.4793V87.3901H51.3965V81.4793C51.3965 80.8275 51.9284 80.2971 52.582 80.2971ZM20.1765 81.8657C18.5539 81.8657 17.1979 82.9599 16.7727 84.444C16.7474 84.4889 16.7319 84.5397 16.7264 84.5933C16.6631 84.8573 16.6214 85.1284 16.6214 85.4122V90.929C16.6206 91.1457 16.7969 91.323 17.015 91.323H23.338C23.5562 91.323 23.7332 91.1465 23.7332 90.929V85.4122C23.7332 85.1261 23.6907 84.8504 23.6267 84.584C23.6204 84.5336 23.6072 84.4881 23.5835 84.4455C23.1591 82.9607 21.8 81.8657 20.1765 81.8657ZM81.8276 81.8657C80.2049 81.8657 78.8474 82.9599 78.4221 84.444C78.3969 84.4889 78.3829 84.5397 78.3774 84.5933C78.3142 84.8573 78.2709 85.1284 78.2709 85.4122V90.929C78.2709 91.1465 78.4479 91.323 78.6661 91.323H84.9891C85.2072 91.323 85.3843 91.1465 85.3843 90.929V85.4122C85.3843 85.1261 85.3418 84.852 85.2778 84.5856C85.2706 84.5343 85.2559 84.4881 85.233 84.4455C84.8086 82.9607 83.451 81.8657 81.8276 81.8657ZM26.1044 81.8734H43.4927V88.1783H42.7023V84.8288C42.7023 84.0683 42.0819 83.4496 41.3192 83.4496C40.9319 83.4496 40.5825 83.6106 40.3312 83.8668C40.0798 83.6098 39.7305 83.4496 39.3432 83.4496C38.5805 83.4496 37.96 84.0683 37.96 84.8288V88.1783H37.1697V84.8288C37.1697 84.0683 36.5492 83.4496 35.7865 83.4496C35.3992 83.4496 35.0499 83.6106 34.7985 83.8668C34.5472 83.6098 34.1978 83.4496 33.8106 83.4496C33.0478 83.4496 32.4274 84.0683 32.4274 84.8288V88.1783H31.637V84.8288C31.637 84.0683 31.0166 83.4496 30.2539 83.4496C29.8666 83.4496 29.5172 83.6106 29.2659 83.8668C29.0146 83.6098 28.6652 83.4496 28.2779 83.4496C27.5152 83.4496 26.8948 84.0683 26.8948 84.8288V88.1783H26.1044V81.8734ZM58.5099 81.8734H75.8982V88.1783H75.1078V84.8288C75.1078 84.0683 74.4874 83.4496 73.7246 83.4496C73.3374 83.4496 72.988 83.6106 72.7367 83.8668C72.4853 83.6098 72.136 83.4496 71.7487 83.4496C70.986 83.4496 70.3655 84.0683 70.3655 84.8288V88.1783H69.5752V84.8288C69.5752 84.0683 68.9547 83.4496 68.192 83.4496C67.8047 83.4496 67.4554 83.6106 67.204 83.8668C66.9527 83.6098 66.6033 83.4496 66.2161 83.4496C65.4533 83.4496 64.8329 84.0683 64.8329 84.8288V88.1783H64.0425V84.8288C64.0425 84.0683 63.4221 83.4496 62.6594 83.4496C62.2721 83.4496 61.9227 83.6106 61.6714 83.8668C61.42 83.6098 61.0707 83.4496 60.6834 83.4496C59.9207 83.4496 59.3003 84.0683 59.3003 84.8288V88.1783H58.5099V81.8734ZM20.1765 82.6538C21.2791 82.6538 22.227 83.3046 22.6712 84.2377H17.6835C18.1276 83.3038 19.074 82.6538 20.1765 82.6538ZM81.826 82.6538C82.9286 82.6538 83.8765 83.3046 84.3207 84.2377H79.3329C79.7771 83.3038 80.7234 82.6538 81.826 82.6538ZM28.2779 84.2377C28.6043 84.2377 28.8707 84.5033 28.8707 84.8288V88.1783H27.6851V84.8288C27.6851 84.5033 27.9515 84.2377 28.2779 84.2377ZM30.2539 84.2377C30.5803 84.2377 30.8466 84.5033 30.8466 84.8288V88.1783H29.6611V84.8288C29.6611 84.5033 29.9274 84.2377 30.2539 84.2377ZM33.8106 84.2377C34.137 84.2377 34.4033 84.5033 34.4033 84.8288V88.1783H33.2178V84.8288C33.2178 84.5033 33.4841 84.2377 33.8106 84.2377ZM35.7865 84.2377C36.1129 84.2377 36.3793 84.5033 36.3793 84.8288V88.1783H35.1937V84.8288C35.1937 84.5033 35.4601 84.2377 35.7865 84.2377ZM39.3432 84.2377C39.6696 84.2377 39.936 84.5033 39.936 84.8288V88.1783H38.7504V84.8288C38.7504 84.5033 39.0168 84.2377 39.3432 84.2377ZM41.3192 84.2377C41.6456 84.2377 41.9119 84.5033 41.9119 84.8288V88.1783H40.7264V84.8288C40.7264 84.5033 40.9927 84.2377 41.3192 84.2377ZM60.6834 84.2377C61.0098 84.2377 61.2762 84.5033 61.2762 84.8288V88.1783H60.0906V84.8288C60.0906 84.5033 60.357 84.2377 60.6834 84.2377ZM62.6594 84.2377C62.9858 84.2377 63.2521 84.5033 63.2521 84.8288V88.1783H62.0666V84.8288C62.0666 84.5033 62.3329 84.2377 62.6594 84.2377ZM66.2161 84.2377C66.5425 84.2377 66.8088 84.5033 66.8088 84.8288V88.1783H65.6233V84.8288C65.6233 84.5033 65.8896 84.2377 66.2161 84.2377ZM68.192 84.2377C68.5184 84.2377 68.7848 84.5033 68.7848 84.8288V88.1783H67.5992V84.8288C67.5992 84.5033 67.8656 84.2377 68.192 84.2377ZM71.7487 84.2377C72.0751 84.2377 72.3415 84.5033 72.3415 84.8288V88.1783H71.1559V84.8288C71.1559 84.5033 71.4223 84.2377 71.7487 84.2377ZM73.7246 84.2377C74.0511 84.2377 74.3174 84.5033 74.3174 84.8288V88.1783H73.1319V84.8288C73.1319 84.5033 73.3982 84.2377 73.7246 84.2377ZM17.4504 85.0258H18.2006V85.8139H17.4102V85.4122C17.4102 85.2798 17.4322 85.1527 17.4504 85.0258ZM18.991 85.0258H19.7814V85.8139H18.991V85.0258ZM20.5717 85.0258H21.3621V85.8139H20.5717V85.0258ZM22.1525 85.0258H22.9043C22.9232 85.1527 22.9428 85.2798 22.9428 85.4122V85.8139H22.1525L22.1525 85.0258ZM79.0998 85.0258H79.8501V85.8139H79.0597V85.4122C79.0597 85.2798 79.0817 85.1527 79.0998 85.0258ZM80.6405 85.0258H81.4308V85.8139H80.6405V85.0258ZM82.2212 85.0258H83.0116V85.8139H82.2212V85.0258ZM83.802 85.0258H84.5538C84.5719 85.1527 84.5924 85.2806 84.5924 85.4122V85.8139H83.802V85.0258ZM17.4102 86.6021H18.2006V90.5349H17.4102V86.6021ZM18.991 86.6021H19.7814V90.5349H18.991V86.6021ZM20.5717 86.6021H21.3621V90.5349H20.5717V86.6021ZM22.1525 86.6021H22.9429V90.5349H22.1525V86.6021ZM79.0597 86.6021H79.8501V90.5349H79.0597V86.6021ZM80.6405 86.6021H81.4308V90.5349H80.6405V86.6021ZM82.2212 86.6021H83.0116V90.5349H82.2212V86.6021ZM83.802 86.6021H84.5923V90.5349H83.802V86.6021ZM44.2846 88.1783H47.8398H51.0013H54.1628H57.7195V99.2119H55.3082V94.0814C55.3082 91.6919 53.3576 89.7468 50.9611 89.7468C48.5647 89.7468 46.6141 91.6919 46.6141 94.0814V99.2119H44.2846V88.1783ZM26.1044 88.9664H27.2899H29.2659H31.2418H32.8226H34.7985H36.7745H38.3552H40.3312H42.3071H43.4927V99.2119H42.7023V96.0548C42.7023 94.7513 41.6385 93.6905 40.3312 93.6905C39.0239 93.6905 37.96 94.7513 37.96 96.0548V99.2119H37.1697V96.0548C37.1697 94.7513 36.1058 93.6905 34.7985 93.6905C33.4913 93.6905 32.4274 94.7513 32.4274 96.0548V99.2119H31.637V96.0548C31.637 94.7513 30.5732 93.6905 29.2659 93.6905C27.9586 93.6905 26.8948 94.7513 26.8948 96.0548V99.2119H26.1044V88.9664ZM58.5099 88.9664H59.6954H61.6714H63.6473H65.2281H67.204H69.18H70.7607H72.7367H74.7126H75.8982V99.2119H75.1078V96.0548C75.1078 94.7513 74.044 93.6905 72.7367 93.6905C71.4294 93.6905 70.3655 94.7513 70.3655 96.0548V99.2119H69.5752V96.0548C69.5752 94.7513 68.5113 93.6905 67.204 93.6905C65.8967 93.6905 64.8329 94.7513 64.8329 96.0548V99.2119H64.0425V96.0548C64.0425 94.7513 62.9787 93.6905 61.6714 93.6905C60.3641 93.6905 59.3003 94.7513 59.3003 96.0548V99.2119H58.5099V88.9664ZM27.2899 89.7468C27.0718 89.7468 26.8948 89.9233 26.8948 90.1409V92.1111C26.8948 92.3287 27.0718 92.5052 27.2899 92.5052H29.2659H31.2418C31.46 92.5052 31.637 92.3287 31.637 92.1111V90.1409C31.637 89.9233 31.46 89.7468 31.2418 89.7468H29.2659H27.2899ZM32.8226 89.7468C32.6044 89.7468 32.4274 89.9233 32.4274 90.1409V92.1111C32.4274 92.3287 32.6044 92.5052 32.8226 92.5052H34.7985H36.7745C36.9926 92.5052 37.1697 92.3287 37.1697 92.1111V90.1409C37.1697 89.9233 36.9926 89.7468 36.7745 89.7468H34.7985H32.8226ZM38.3552 89.7468C38.1371 89.7468 37.96 89.9233 37.96 90.1409V92.1111C37.96 92.3287 38.1371 92.5052 38.3552 92.5052H40.3312H42.3071C42.5253 92.5052 42.7023 92.3287 42.7023 92.1111V90.1409C42.7023 89.9233 42.5253 89.7468 42.3071 89.7468H40.3312H38.3552ZM59.6954 89.7468C59.4773 89.7468 59.3003 89.9233 59.3003 90.1409V92.1111C59.3003 92.3287 59.4773 92.5052 59.6954 92.5052H61.6714H63.6473C63.8655 92.5052 64.0425 92.3287 64.0425 92.1111V90.1409C64.0425 89.9233 63.8655 89.7468 63.6473 89.7468H61.6714H59.6954ZM65.2281 89.7468C65.0099 89.7468 64.8329 89.9233 64.8329 90.1409V92.1111C64.8329 92.3287 65.0099 92.5052 65.2281 92.5052H67.204H69.18C69.3981 92.5052 69.5752 92.3287 69.5752 92.1111V90.1409C69.5752 89.9233 69.3981 89.7468 69.18 89.7468H67.204H65.2281ZM70.7607 89.7468C70.5426 89.7468 70.3655 89.9233 70.3655 90.1409V92.1111C70.3655 92.3287 70.5426 92.5052 70.7607 92.5052H72.7367H74.7126C74.9308 92.5052 75.1078 92.3287 75.1078 92.1111V90.1409C75.1078 89.9233 74.9308 89.7468 74.7126 89.7468H72.7367H70.7607ZM27.6851 90.5349H28.8707V91.7171H27.6851V90.5349ZM29.6611 90.5349H30.8466V91.7171H29.6611V90.5349ZM33.2178 90.5349H34.4033V91.7171H33.2178V90.5349ZM35.1937 90.5349H36.3793V91.7171H35.1937V90.5349ZM38.7504 90.5349H39.936V91.7171H38.7504V90.5349ZM40.7264 90.5349H41.9119V91.7171H40.7264V90.5349ZM50.9611 90.5349C52.9221 90.5349 54.5178 92.1261 54.5178 94.0814V99.2042H47.4044V94.0814C47.4044 92.1261 49.0002 90.5349 50.9611 90.5349ZM60.0906 90.5349H61.2762V91.7171H60.0906V90.5349ZM62.0666 90.5349H63.2521V91.7171H62.0666V90.5349ZM65.6233 90.5349H66.8088V91.7171H65.6233V90.5349ZM67.5992 90.5349H68.7848V91.7171H67.5992V90.5349ZM71.1559 90.5349H72.3415V91.7171H71.1559V90.5349ZM73.1319 90.5349H74.3174V91.7171H73.1319V90.5349ZM20.1364 93.6874C21.6618 93.6874 22.9027 94.9247 22.9027 96.4458V99.2042H17.3701V96.4458C17.3701 94.9247 18.611 93.6874 20.1364 93.6874ZM81.7859 93.6874C83.3113 93.6874 84.5522 94.9247 84.5522 96.4458V99.2042H79.0196V96.4458C79.0196 94.9247 80.2605 93.6874 81.7859 93.6874ZM29.2659 94.4785C30.1377 94.4785 30.8466 95.1855 30.8466 96.0548V99.2118H27.6851V96.0548C27.6851 95.1855 28.3941 94.4785 29.2659 94.4785ZM34.7985 94.4785C35.6703 94.4785 36.3793 95.1855 36.3793 96.0548V99.2118H33.2178V96.0548C33.2178 95.1855 33.9268 94.4785 34.7985 94.4785ZM40.3312 94.4785C41.203 94.4785 41.9119 95.1855 41.9119 96.0548V99.2118H38.7504V96.0548C38.7504 95.1855 39.4594 94.4785 40.3312 94.4785ZM61.6714 94.4785C62.5432 94.4785 63.2521 95.1855 63.2521 96.0548V99.2118H60.0906V96.0548C60.0906 95.1855 60.7996 94.4785 61.6714 94.4785ZM67.204 94.4785C68.0758 94.4785 68.7848 95.1855 68.7848 96.0548V99.2118H65.6233V96.0548C65.6233 95.1855 66.3322 94.4785 67.204 94.4785ZM72.7367 94.4785C73.6085 94.4785 74.3174 95.1855 74.3174 96.0548V99.2118H71.1559V96.0548C71.1559 95.1855 71.8649 94.4785 72.7367 94.4785Z" fill="#8A8A8A"/>
</g>
</svg>
