<svg width="100" height="100" viewBox="0 0 100 100" fill="none" xmlns="http://www.w3.org/2000/svg">
<g id="india-gate-161357 1">
<g id="g5">
<path id="path145" d="M46 35.5557C45.724 35.5557 45.5 35.7797 45.5 36.0557V37.6064C43.9732 37.8282 42.7719 39.0286 42.5508 40.5557H40C39.724 40.5557 39.5 40.7797 39.5 41.0557V42.5557H34C33.724 42.5557 33.5 42.7797 33.5 43.0557V51.5557H31C30.724 51.5557 30.5 51.7797 30.5 52.0557V54.5557H29C28.724 54.5557 28.5 54.7797 28.5 55.0557V58.5557H26C25.827 58.5557 25.6662 58.6459 25.5742 58.7939C25.4842 58.9409 25.4757 59.1253 25.5527 59.2803L28.5 65.1748V75.5557H28C27.724 75.5557 27.5 75.7797 27.5 76.0557C27.5 76.3317 27.724 76.5557 28 76.5557H28.5V82.5557H27.0645C26.8795 82.5557 26.709 82.6583 26.623 82.8193C26.535 82.9823 26.5454 83.18 26.6484 83.333L28.5 86.1104V95.5557H28C27.724 95.5557 27.5 95.7797 27.5 96.0557C27.5 96.3317 27.724 96.5557 28 96.5557H28.5V98.5557H24.5C24.224 98.5557 24 98.7797 24 99.0557C24 99.3317 24.224 99.5557 24.5 99.5557H31H41H61H71H75.5C75.776 99.5557 76 99.3317 76 99.0557C76 98.7797 75.776 98.5557 75.5 98.5557H71.5V96.5557H72C72.276 96.5557 72.5 96.3317 72.5 96.0557C72.5 95.7797 72.276 95.5557 72 95.5557H71.5V86.208L73.416 83.333C73.518 83.179 73.5294 82.9823 73.4414 82.8193C73.3554 82.6573 73.185 82.5557 73 82.5557H71.5V76.5557H72C72.276 76.5557 72.5 76.3317 72.5 76.0557C72.5 75.7797 72.276 75.5557 72 75.5557H71.5V65.1729L74.4473 59.2783C74.5253 59.1233 74.5168 58.939 74.4258 58.792C74.3338 58.645 74.173 58.5557 74 58.5557H71.5V55.0557C71.5 54.7797 71.276 54.5557 71 54.5557H69.5V52.0557C69.5 51.7797 69.276 51.5557 69 51.5557H66.5V43.0557C66.5 42.7797 66.276 42.5557 66 42.5557H60.5V41.0557C60.5 40.7797 60.276 40.5557 60 40.5557H57.4492C57.4394 40.4882 57.4433 40.4168 57.4297 40.3506C57.1359 38.9186 55.96 37.8179 54.5 37.6064V36.0557C54.5 35.7797 54.276 35.5557 54 35.5557H46ZM46.5 36.5557H53.5V37.5557H46.5V36.5557ZM46 38.5557H54C55.207 38.5557 56.2192 39.4157 56.4512 40.5557H43.5508C43.7828 39.4157 44.793 38.5557 46 38.5557ZM40.5 41.5557H42.5H57.5H59.5V42.5557H40.5V41.5557ZM34.5 43.5557H65.5V51.5557H34.5V43.5557ZM44 45.5557C43.724 45.5557 43.5 45.7797 43.5 46.0557V49.0557C43.5 49.3317 43.724 49.5557 44 49.5557H45.5V50.0557C45.5 50.3317 45.724 50.5557 46 50.5557H54C54.276 50.5557 54.5 50.3317 54.5 50.0557V49.5557H56C56.276 49.5557 56.5 49.3317 56.5 49.0557V46.0557C56.5 45.7797 56.276 45.5557 56 45.5557H44ZM40 45.5771C38.621 45.5771 37.5 46.6981 37.5 48.0771C37.5 49.4561 38.621 50.5771 40 50.5771C41.379 50.5771 42.5 49.4561 42.5 48.0771C42.5 46.6981 41.379 45.5771 40 45.5771ZM60 45.5771C58.621 45.5771 57.5 46.6981 57.5 48.0771C57.5 49.4561 58.621 50.5771 60 50.5771C61.379 50.5771 62.5 49.4561 62.5 48.0771C62.5 46.6981 61.379 45.5771 60 45.5771ZM44.5 46.5557H55.5V48.5557H54C53.724 48.5557 53.5 48.7797 53.5 49.0557V49.5557H46.5V49.0557C46.5 48.7797 46.276 48.5557 46 48.5557H44.5V46.5557ZM40 46.5771C40.827 46.5771 41.5 47.2501 41.5 48.0771C41.5 48.9041 40.827 49.5771 40 49.5771C39.173 49.5771 38.5 48.9041 38.5 48.0771C38.5 47.2501 39.173 46.5771 40 46.5771ZM60 46.5771C60.827 46.5771 61.5 47.2501 61.5 48.0771C61.5 48.9041 60.827 49.5771 60 49.5771C59.173 49.5771 58.5 48.9041 58.5 48.0771C58.5 47.2501 59.173 46.5771 60 46.5771ZM31.5 52.5557H68.5V54.5557H31.5V52.5557ZM29.5 55.5557H70.5V58.5557H29.5V55.5557ZM26.8086 59.5557H73.1914L72.6914 60.5557H27.3086L26.8086 59.5557ZM27.8086 61.5557H28.5V62.9385L27.8086 61.5557ZM29.5 61.5557H31.5V64.5557H29.5V61.5557ZM32.5 61.5557H34.5V64.5557H32.5V61.5557ZM35.5 61.5557H37.5V64.5557H35.5V61.5557ZM38.5 61.5557H40.5V64.5557H38.5V61.5557ZM41.5 61.5557H43.5V64.5557H41.5V61.5557ZM44.5 61.5557H46.5V64.5557H44.5V61.5557ZM47.5 61.5557H49.5V64.5557H47.5V61.5557ZM50.5 61.5557H52.5V64.5557H50.5V61.5557ZM53.5 61.5557H55.5V64.5557H53.5V61.5557ZM56.5 61.5557H58.5V64.5557H56.5V61.5557ZM59.5 61.5557H61.5V64.5557H59.5V61.5557ZM62.5 61.5557H64.5V64.5557H62.5V61.5557ZM65.5 61.5557H67.5V64.5557H65.5V61.5557ZM68.5 61.5557H70.5V64.5557H68.5V61.5557ZM71.5 61.5557H72.1914L71.5 62.9385V61.5557ZM29.5 65.5557H40.5V68.0557V75.5557H39.5V72.0557C39.5 71.7797 39.276 71.5557 39 71.5557H31C30.724 71.5557 30.5 71.7797 30.5 72.0557V75.5557H29.5V65.5557ZM41.5 65.5557H58.5V67.5557H51C50.724 67.5557 50.5 67.7797 50.5 68.0557V71.5557H49.5V68.0557C49.5 67.7797 49.276 67.5557 49 67.5557H41.5V65.5557ZM59.5 65.5557H70.5V75.5557H69.5V72.0557C69.5 71.7797 69.276 71.5557 69 71.5557H61C60.724 71.5557 60.5 71.7797 60.5 72.0557V75.5557H59.5V68.0557V65.5557ZM35 66.5557C33.897 66.5557 33 67.4527 33 68.5557C33 69.6587 33.897 70.5557 35 70.5557C36.103 70.5557 37 69.6587 37 68.5557C37 67.4527 36.103 66.5557 35 66.5557ZM65 66.5557C63.897 66.5557 63 67.4527 63 68.5557C63 69.6587 63.897 70.5557 65 70.5557C66.103 70.5557 67 69.6587 67 68.5557C67 67.4527 66.103 66.5557 65 66.5557ZM35 67.5557C35.552 67.5557 36 68.0037 36 68.5557C36 69.1077 35.552 69.5557 35 69.5557C34.448 69.5557 34 69.1077 34 68.5557C34 68.0037 34.448 67.5557 35 67.5557ZM65 67.5557C65.552 67.5557 66 68.0037 66 68.5557C66 69.1077 65.552 69.5557 65 69.5557C64.448 69.5557 64 69.1077 64 68.5557C64 68.0037 64.448 67.5557 65 67.5557ZM41.5 68.5557H48.5V68.7217C45.2422 69.3873 42.7491 72.1606 42.5234 75.5557H41.5V68.5557ZM51.5 68.5557H58.5V75.5557H57.4766C57.2509 72.1606 54.7578 69.3873 51.5 68.7217V68.5557ZM48.5 69.7412V70.79C46.3559 71.4029 44.7549 73.272 44.5449 75.5557H43.5234C43.7413 72.713 45.7953 70.3832 48.5 69.7412ZM51.5 69.7412C54.2047 70.3832 56.2587 72.713 56.4766 75.5557H55.4551C55.2452 73.2715 53.6447 71.4024 51.5 70.79V69.7412ZM48.5 71.8369V72.0557C48.5 72.3317 48.724 72.5557 49 72.5557H51C51.276 72.5557 51.5 72.3317 51.5 72.0557V71.8369C53.0898 72.4031 54.2627 73.8259 54.457 75.5557H54C53.724 75.5557 53.5 75.7797 53.5 76.0557C53.5 76.3317 53.724 76.5557 54 76.5557H54.5V82.5557H54C53.724 82.5557 53.5 82.7797 53.5 83.0557C53.5 83.3317 53.724 83.5557 54 83.5557H54.5V98.5557H45.5V83.5557H46C46.276 83.5557 46.5 83.3317 46.5 83.0557C46.5 82.7797 46.276 82.5557 46 82.5557H45.5V76.5557H46C46.276 76.5557 46.5 76.3317 46.5 76.0557C46.5 75.7797 46.276 75.5557 46 75.5557H45.543C45.7374 73.8263 46.9106 72.4035 48.5 71.8369ZM31.5 72.5557H33V73.5557H31.5V72.5557ZM34 72.5557H36V73.5557H34V72.5557ZM37 72.5557H38.5V73.5557H37V72.5557ZM61.5 72.5557H63V73.5557H61.5V72.5557ZM64 72.5557H66V73.5557H64V72.5557ZM67 72.5557H68.5V73.5557H67V72.5557ZM31.5 74.5557H38.5V75.5557H31.5V74.5557ZM61.5 74.5557H68.5V75.5557H61.5V74.5557ZM29.5 76.5557H30.5V77.5557H29.5V76.5557ZM31.5 76.5557H38.5V77.5557H31.5V76.5557ZM39.5 76.5557H40.5V77.5557H39.5V76.5557ZM41.5 76.5557H44.5V82.5557H43H41.5V76.5557ZM55.5 76.5557H58.5V82.5557H57.75H55.5V76.5557ZM59.5 76.5557H60.5V77.5557H59.5V76.5557ZM61.5 76.5557H68.5V77.5557H61.5V76.5557ZM69.5 76.5557H70.5V77.5557H69.5V76.5557ZM29.5 78.5557H30.5V82.5557H29.5V78.5557ZM31.5 78.5557H32.5V81.0557C32.5 81.3317 32.724 81.5557 33 81.5557H37C37.276 81.5557 37.5 81.3317 37.5 81.0557V78.5557H38.5V82.5557H31.5V78.5557ZM33.5 78.5557H36.5V80.5557H33.5V78.5557ZM39.5 78.5557H40.5V82.5557H39.5V78.5557ZM59.5 78.5557H60.5V82.5557H59.5V78.5557ZM61.5 78.5557H62.5V81.0557C62.5 81.3317 62.724 81.5557 63 81.5557H67C67.276 81.5557 67.5 81.3317 67.5 81.0557V78.5557H68.5V82.5557H61.5V78.5557ZM63.5 78.5557H66.5V80.5557H63.5V78.5557ZM69.5 78.5557H70.5V82.5557H69.5V78.5557ZM27.998 83.5557H42.0664L40.7324 85.5557H29.3301L27.998 83.5557ZM43.2676 83.5557H44.5V98.5557H41.5V86.208L43.2676 83.5557ZM55.5 83.5557H56.7969L58.5 86.1104V98.5557H55.5V83.5557ZM57.998 83.5557H72.0664L70.7324 85.5557H59.3301L57.998 83.5557ZM29.5 86.5557H30.5V95.5557H29.5V86.5557ZM31.5 86.5557H38.5V95.5557H31.5V86.5557ZM39.5 86.5557H40.5V95.5557H39.5V86.5557ZM59.5 86.5557H60.5V95.5557H59.5V86.5557ZM61.5 86.5557H68.5V95.5557H61.5V86.5557ZM69.5 86.5557H70.5V95.5557H69.5V86.5557ZM29.5 96.5557H30.5V98.5557H29.5V96.5557ZM31.5 96.5557H32.5V98.5557H31.5V96.5557ZM33.5 96.5557H36.5V98.5557H33.5V96.5557ZM37.5 96.5557H38.5V98.5557H37.5V96.5557ZM39.5 96.5557H40.5V98.5557H39.5V96.5557ZM59.5 96.5557H60.5V98.5557H59.5V96.5557ZM61.5 96.5557H62.5V98.5557H61.5V96.5557ZM63.5 96.5557H66.5V98.5557H63.5V96.5557ZM67.5 96.5557H68.5V98.5557H67.5V96.5557ZM69.5 96.5557H70.5V98.5557H69.5V96.5557Z" fill="#005F89"/>
</g>
</g>
</svg>
