<svg width="112" height="100" viewBox="0 0 112 100" fill="none" xmlns="http://www.w3.org/2000/svg">
<g id="charminar-119682 1">
<path id="Vector" d="M40.2626 83.1665C39.3737 83.1665 38.5959 83.8665 38.5959 84.6665V86.6665C38.5959 86.9665 38.8181 87.1665 39.1515 87.1665H41.3737C41.707 87.1665 41.9293 86.9665 41.9293 86.6665V84.6665C41.9293 83.8665 41.1515 83.1665 40.2626 83.1665ZM40.8181 86.1665H39.707V84.6665C39.707 84.3665 39.9293 84.1665 40.2626 84.1665C40.5959 84.1665 40.8181 84.3665 40.8181 84.6665V86.1665ZM40.2626 78.1665C39.3737 78.1665 38.5959 78.8665 38.5959 79.6665V81.6665C38.5959 81.9665 38.8181 82.1665 39.1515 82.1665H41.3737C41.707 82.1665 41.9293 81.9665 41.9293 81.6665V79.6665C41.9293 78.8665 41.1515 78.1665 40.2626 78.1665ZM40.8181 81.1665H39.707V79.6665C39.707 79.3665 39.9293 79.1665 40.2626 79.1665C40.5959 79.1665 40.8181 79.3665 40.8181 79.6665V81.1665ZM32.4848 74.1665C32.8181 74.1665 33.0404 73.9665 33.0404 73.6665V71.6665C33.0404 70.8665 32.2626 70.1665 31.3737 70.1665C30.4848 70.1665 29.707 70.8665 29.707 71.6665V73.6665C29.707 73.9665 29.9293 74.1665 30.2626 74.1665H32.4848ZM30.8181 71.6665C30.8181 71.3665 31.0404 71.1665 31.3737 71.1665C31.707 71.1665 31.9293 71.3665 31.9293 71.6665V73.1665H30.8181V71.6665ZM30.2626 69.1665H32.4848C32.8181 69.1665 33.0404 68.9665 33.0404 68.6665V66.6665C33.0404 65.8665 32.2626 65.1665 31.3737 65.1665C30.4848 65.1665 29.707 65.8665 29.707 66.6665V68.6665C29.707 68.9665 29.9293 69.1665 30.2626 69.1665ZM30.8181 66.6665C30.8181 66.3665 31.0404 66.1665 31.3737 66.1665C31.707 66.1665 31.9293 66.3665 31.9293 66.6665V68.1665H30.8181V66.6665ZM34.707 74.1665H36.9293C37.2626 74.1665 37.4848 73.9665 37.4848 73.6665V71.6665C37.4848 70.8665 36.707 70.1665 35.8181 70.1665C34.9293 70.1665 34.1515 70.8665 34.1515 71.6665V73.6665C34.1515 73.9665 34.3737 74.1665 34.707 74.1665ZM35.2626 71.6665C35.2626 71.3665 35.4848 71.1665 35.8181 71.1665C36.1515 71.1665 36.3737 71.3665 36.3737 71.6665V73.1665H35.2626V71.6665ZM34.707 69.1665H36.9293C37.2626 69.1665 37.4848 68.9665 37.4848 68.6665V66.6665C37.4848 65.8665 36.707 65.1665 35.8181 65.1665C34.9293 65.1665 34.1515 65.8665 34.1515 66.6665V68.6665C34.1515 68.9665 34.3737 69.1665 34.707 69.1665ZM35.2626 66.6665C35.2626 66.3665 35.4848 66.1665 35.8181 66.1665C36.1515 66.1665 36.3737 66.3665 36.3737 66.6665V68.1665H35.2626V66.6665ZM75.8181 70.1665C74.9293 70.1665 74.1515 70.8665 74.1515 71.6665V73.6665C74.1515 73.9665 74.3737 74.1665 74.707 74.1665H76.9293C77.2626 74.1665 77.4848 73.9665 77.4848 73.6665V71.6665C77.4848 70.8665 76.707 70.1665 75.8181 70.1665ZM76.3737 73.1665H75.2626V71.6665C75.2626 71.3665 75.4848 71.1665 75.8181 71.1665C76.1515 71.1665 76.3737 71.3665 76.3737 71.6665V73.1665ZM75.8181 65.1665C74.9293 65.1665 74.1515 65.8665 74.1515 66.6665V68.6665C74.1515 68.9665 74.3737 69.1665 74.707 69.1665H76.9293C77.2626 69.1665 77.4848 68.9665 77.4848 68.6665V66.6665C77.4848 65.8665 76.707 65.1665 75.8181 65.1665ZM76.3737 68.1665H75.2626V66.6665C75.2626 66.3665 75.4848 66.1665 75.8181 66.1665C76.1515 66.1665 76.3737 66.3665 76.3737 66.6665V68.1665ZM80.2626 70.1665C79.3737 70.1665 78.5959 70.8665 78.5959 71.6665V73.6665C78.5959 73.9665 78.8181 74.1665 79.1515 74.1665H81.3737C81.707 74.1665 81.9293 73.9665 81.9293 73.6665V71.6665C81.9293 70.8665 81.1515 70.1665 80.2626 70.1665ZM80.8181 73.1665H79.707V71.6665C79.707 71.3665 79.9293 71.1665 80.2626 71.1665C80.5959 71.1665 80.8181 71.3665 80.8181 71.6665V73.1665ZM78.5959 66.6665V68.6665C78.5959 68.9665 78.8181 69.1665 79.1515 69.1665H81.3737C81.707 69.1665 81.9293 68.9665 81.9293 68.6665V66.6665C81.9293 65.8665 81.1515 65.1665 80.2626 65.1665C79.3737 65.1665 78.5959 65.8665 78.5959 66.6665ZM80.8181 66.6665V68.1665H79.707V66.6665C79.707 66.3665 79.9293 66.1665 80.2626 66.1665C80.5959 66.1665 80.8181 66.3665 80.8181 66.6665Z" fill="#8A8A8A"/>
<path id="Vector_2" d="M83.5935 76.1665C83.9269 76.1665 84.1491 75.9665 84.1491 75.6665V63.6665C84.1491 63.3665 83.9269 63.1665 83.5935 63.1665H80.8158V56.1665H82.4824C82.8158 56.1665 83.038 55.9665 83.038 55.6665V51.6665C83.038 51.3665 82.8158 51.1665 82.4824 51.1665H80.8158V47.6665H81.3713C81.7046 47.6665 81.9269 47.4665 81.9269 47.1665V44.1665C81.9269 43.8665 81.7046 43.6665 81.3713 43.6665H80.8158V40.3665C80.8158 39.2665 80.2602 38.2665 79.1491 37.6665L78.5935 37.3665V35.6665C78.5935 35.3665 78.3713 35.1665 78.038 35.1665C77.7046 35.1665 77.4824 35.3665 77.4824 35.6665V37.3665L76.9269 37.6665C75.9269 38.2665 75.2602 39.2665 75.2602 40.3665V43.6665H74.7046C74.3713 43.6665 74.1491 43.8665 74.1491 44.1665V47.1665C74.1491 47.4665 74.3713 47.6665 74.7046 47.6665H75.2602V51.1665H73.5935C73.2602 51.1665 73.038 51.3665 73.038 51.6665V55.6665C73.038 55.9665 73.2602 56.1665 73.5935 56.1665H75.2602V57.1665H36.3713V56.1665H38.038C38.3713 56.1665 38.5935 55.9665 38.5935 55.6665V51.6665C38.5935 51.3665 38.3713 51.1665 38.038 51.1665H36.3713V47.6665H36.9269C37.2602 47.6665 37.4824 47.4665 37.4824 47.1665V44.1665C37.4824 43.8665 37.2602 43.6665 36.9269 43.6665H36.3713V40.3665C36.3713 39.2665 35.8158 38.2665 34.7046 37.6665L34.1491 37.3665V35.6665C34.1491 35.3665 33.9269 35.1665 33.5935 35.1665C33.2602 35.1665 33.038 35.3665 33.038 35.6665V37.3665L32.4824 37.6665C31.4824 38.2665 30.8158 39.2665 30.8158 40.3665V43.6665H30.2602C29.9269 43.6665 29.7046 43.8665 29.7046 44.1665V47.1665C29.7046 47.4665 29.9269 47.6665 30.2602 47.6665H30.8158V51.1665H29.1491C28.8158 51.1665 28.5935 51.3665 28.5935 51.6665V55.6665C28.5935 55.9665 28.8158 56.1665 29.1491 56.1665H30.8158V63.1665H28.038C27.7046 63.1665 27.4824 63.3665 27.4824 63.6665V75.6665C27.4824 75.9665 27.7046 76.1665 28.038 76.1665H29.7046V98.1665H28.038C27.7046 98.1665 27.4824 98.3665 27.4824 98.6665C27.4824 98.9665 27.7046 99.1665 28.038 99.1665H30.2602H36.9269H43.5935H68.038H74.7046H81.3713H83.5935C83.9269 99.1665 84.1491 98.9665 84.1491 98.6665C84.1491 98.3665 83.9269 98.1665 83.5935 98.1665H81.9269V76.1665H83.5935ZM83.038 75.1665H81.3713H74.7046H73.038V64.1665H75.8158H80.2602H83.038V75.1665ZM68.038 75.1665H66.3713V70.6665C66.3713 69.1665 67.5935 68.4665 68.038 68.1665C68.4824 68.3665 69.7046 69.0665 69.7046 70.6665V75.1665H68.038ZM68.2602 67.1665C68.1491 67.1665 68.038 67.1665 67.9269 67.1665C67.8158 67.1665 65.2602 68.0665 65.2602 70.6665V75.1665H64.1491V70.6665C64.1491 68.0665 61.7046 67.2665 61.5935 67.1665C61.4824 67.1665 61.3713 67.1665 61.2602 67.1665C61.1491 67.1665 58.5935 68.0665 58.5935 70.6665V75.1665H53.038V70.6665C53.038 68.0665 50.5935 67.2665 50.4824 67.1665C50.3713 67.1665 50.2602 67.1665 50.1491 67.1665C50.038 67.1665 47.4824 68.0665 47.4824 70.6665V75.1665H46.3713V70.6665C46.3713 68.0665 43.9269 67.2665 43.8158 67.1665C43.7046 67.1665 43.5935 67.1665 43.4824 67.1665C43.3713 67.1665 40.8158 68.0665 40.8158 70.6665V75.1665H39.7046V64.1665H40.8158V64.6665C40.8158 64.9665 41.038 65.1665 41.3713 65.1665C41.7046 65.1665 41.9269 64.9665 41.9269 64.6665V64.1665H43.038V64.6665C43.038 64.9665 43.2602 65.1665 43.5935 65.1665C43.9269 65.1665 44.1491 64.9665 44.1491 64.6665V64.1665H45.2602V64.6665C45.2602 64.9665 45.4824 65.1665 45.8158 65.1665C46.1491 65.1665 46.3713 64.9665 46.3713 64.6665V64.1665H47.4824V64.6665C47.4824 64.9665 47.7046 65.1665 48.038 65.1665C48.3713 65.1665 48.5935 64.9665 48.5935 64.6665V64.1665H49.7046V64.6665C49.7046 64.9665 49.9269 65.1665 50.2602 65.1665C50.5935 65.1665 50.8158 64.9665 50.8158 64.6665V64.1665H51.9269V64.6665C51.9269 64.9665 52.1491 65.1665 52.4824 65.1665C52.8158 65.1665 53.038 64.9665 53.038 64.6665V64.1665H54.1491V64.6665C54.1491 64.9665 54.3713 65.1665 54.7046 65.1665C55.038 65.1665 55.2602 64.9665 55.2602 64.6665V64.1665H56.3713V64.6665C56.3713 64.9665 56.5935 65.1665 56.9269 65.1665C57.2602 65.1665 57.4824 64.9665 57.4824 64.6665V64.1665H58.5935V64.6665C58.5935 64.9665 58.8158 65.1665 59.1491 65.1665C59.4824 65.1665 59.7046 64.9665 59.7046 64.6665V64.1665H60.8158V64.6665C60.8158 64.9665 61.038 65.1665 61.3713 65.1665C61.7046 65.1665 61.9269 64.9665 61.9269 64.6665V64.1665H63.038V64.6665C63.038 64.9665 63.2602 65.1665 63.5935 65.1665C63.9269 65.1665 64.1491 64.9665 64.1491 64.6665V64.1665H65.2602V64.6665C65.2602 64.9665 65.4824 65.1665 65.8158 65.1665C66.1491 65.1665 66.3713 64.9665 66.3713 64.6665V64.1665H67.4824V64.6665C67.4824 64.9665 67.7046 65.1665 68.038 65.1665C68.3713 65.1665 68.5935 64.9665 68.5935 64.6665V64.1665H69.7046V64.6665C69.7046 64.9665 69.9269 65.1665 70.2602 65.1665C70.5935 65.1665 70.8158 64.9665 70.8158 64.6665V64.1665H71.9269V75.1665H70.8158V70.6665C70.8158 68.0665 68.3713 67.2665 68.2602 67.1665ZM59.7046 75.1665V70.6665C59.7046 69.1665 60.9269 68.4665 61.3713 68.1665C61.8158 68.3665 63.038 69.0665 63.038 70.6665V75.1665H59.7046ZM48.5935 75.1665V70.6665C48.5935 69.1665 49.8158 68.4665 50.2602 68.1665C50.7046 68.3665 51.9269 69.0665 51.9269 70.6665V75.1665H48.5935ZM43.5935 75.1665H41.9269V70.6665C41.9269 69.1665 43.1491 68.4665 43.5935 68.1665C44.038 68.3665 45.2602 69.0665 45.2602 70.6665V75.1665H43.5935ZM36.3713 60.1665H75.2602V63.1665H73.038V62.6665C73.038 61.8665 72.2602 61.1665 71.3713 61.1665C70.4824 61.1665 69.7046 61.8665 69.7046 62.6665V63.1665H68.5935V62.6665C68.5935 61.8665 67.8158 61.1665 66.9269 61.1665C66.038 61.1665 65.2602 61.8665 65.2602 62.6665V63.1665H64.1491V62.6665C64.1491 61.8665 63.3713 61.1665 62.4824 61.1665C61.5935 61.1665 60.8158 61.8665 60.8158 62.6665V63.1665H59.7046V62.6665C59.7046 61.8665 58.9269 61.1665 58.038 61.1665C57.1491 61.1665 56.3713 61.8665 56.3713 62.6665V63.1665H55.2602V62.6665C55.2602 61.8665 54.4824 61.1665 53.5935 61.1665C52.7046 61.1665 51.9269 61.8665 51.9269 62.6665V63.1665H50.8158V62.6665C50.8158 61.8665 50.038 61.1665 49.1491 61.1665C48.2602 61.1665 47.4824 61.8665 47.4824 62.6665V63.1665H46.3713V62.6665C46.3713 61.8665 45.5935 61.1665 44.7046 61.1665C43.8158 61.1665 43.038 61.8665 43.038 62.6665V63.1665H41.9269V62.6665C41.9269 61.8665 41.1491 61.1665 40.2602 61.1665C39.3713 61.1665 38.5935 61.8665 38.5935 62.6665V63.1665H36.3713V60.1665ZM71.9269 63.1665H70.8158V62.6665C70.8158 62.3665 71.038 62.1665 71.3713 62.1665C71.7046 62.1665 71.9269 62.3665 71.9269 62.6665V63.1665ZM67.4824 63.1665H66.3713V62.6665C66.3713 62.3665 66.5935 62.1665 66.9269 62.1665C67.2602 62.1665 67.4824 62.3665 67.4824 62.6665V63.1665ZM63.038 63.1665H61.9269V62.6665C61.9269 62.3665 62.1491 62.1665 62.4824 62.1665C62.8158 62.1665 63.038 62.3665 63.038 62.6665V63.1665ZM58.5935 63.1665H57.4824V62.6665C57.4824 62.3665 57.7046 62.1665 58.038 62.1665C58.3713 62.1665 58.5935 62.3665 58.5935 62.6665V63.1665ZM54.1491 63.1665H53.038V62.6665C53.038 62.3665 53.2602 62.1665 53.5935 62.1665C53.9269 62.1665 54.1491 62.3665 54.1491 62.6665V63.1665ZM49.7046 63.1665H48.5935V62.6665C48.5935 62.3665 48.8158 62.1665 49.1491 62.1665C49.4824 62.1665 49.7046 62.3665 49.7046 62.6665V63.1665ZM45.2602 63.1665H44.1491V62.6665C44.1491 62.3665 44.3713 62.1665 44.7046 62.1665C45.038 62.1665 45.2602 62.3665 45.2602 62.6665V63.1665ZM40.8158 63.1665H39.7046V62.6665C39.7046 62.3665 39.9269 62.1665 40.2602 62.1665C40.5935 62.1665 40.8158 62.3665 40.8158 62.6665V63.1665ZM80.8158 46.6665H80.2602H79.7046V46.1665C79.7046 45.8665 79.4824 45.6665 79.1491 45.6665C78.8158 45.6665 78.5935 45.8665 78.5935 46.1665V46.6665H77.4824V46.1665C77.4824 45.8665 77.2602 45.6665 76.9269 45.6665C76.5935 45.6665 76.3713 45.8665 76.3713 46.1665V46.6665H75.8158H75.2602V44.6665H80.8158V46.6665ZM77.4824 38.5665L78.038 38.2665L78.5935 38.5665C79.2602 38.9665 79.5935 39.5665 79.7046 40.1665H76.3713C76.4824 39.4665 76.8158 38.8665 77.4824 38.5665ZM76.3713 41.1665H79.7046V43.6665H78.5935V42.6665C78.5935 42.3665 78.3713 42.1665 78.038 42.1665C77.7046 42.1665 77.4824 42.3665 77.4824 42.6665V43.6665H76.3713V41.1665ZM76.3713 47.6665H79.7046V51.1665H76.3713V47.6665ZM74.1491 55.1665V52.1665H75.8158H80.2602H81.9269V55.1665H80.8158V53.6665C80.8158 53.3665 80.5935 53.1665 80.2602 53.1665C79.9269 53.1665 79.7046 53.3665 79.7046 53.6665V55.1665H78.5935V53.6665C78.5935 53.3665 78.3713 53.1665 78.038 53.1665C77.7046 53.1665 77.4824 53.3665 77.4824 53.6665V55.1665H76.3713V53.6665C76.3713 53.3665 76.1491 53.1665 75.8158 53.1665C75.4824 53.1665 75.2602 53.3665 75.2602 53.6665V55.1665H74.1491ZM79.7046 56.1665V63.1665H76.3713V56.1665H79.7046ZM75.2602 58.1665V59.1665H36.3713V58.1665H75.2602ZM36.3713 46.6665H35.8158H35.2602V46.1665C35.2602 45.8665 35.038 45.6665 34.7046 45.6665C34.3713 45.6665 34.1491 45.8665 34.1491 46.1665V46.6665H33.038V46.1665C33.038 45.8665 32.8158 45.6665 32.4824 45.6665C32.1491 45.6665 31.9269 45.8665 31.9269 46.1665V46.6665H31.3713H30.8158V44.6665H36.3713V46.6665ZM33.038 38.5665L33.5935 38.2665L34.1491 38.5665C34.8158 38.9665 35.1491 39.5665 35.2602 40.1665H31.9269C32.038 39.4665 32.3713 38.8665 33.038 38.5665ZM31.9269 41.1665H35.2602V43.6665H34.1491V42.6665C34.1491 42.3665 33.9269 42.1665 33.5935 42.1665C33.2602 42.1665 33.038 42.3665 33.038 42.6665V43.6665H31.9269V41.1665ZM31.9269 47.6665H35.2602V51.1665H31.9269V47.6665ZM29.7046 55.1665V52.1665H31.3713H35.8158H37.4824V55.1665H36.3713V53.6665C36.3713 53.3665 36.1491 53.1665 35.8158 53.1665C35.4824 53.1665 35.2602 53.3665 35.2602 53.6665V55.1665H34.1491V54.6665V53.6665C34.1491 53.3665 33.9269 53.1665 33.5935 53.1665C33.2602 53.1665 33.038 53.3665 33.038 53.6665V54.6665V55.1665H31.9269V53.6665C31.9269 53.3665 31.7046 53.1665 31.3713 53.1665C31.038 53.1665 30.8158 53.3665 30.8158 53.6665V55.1665H29.7046ZM31.9269 56.1665H35.2602V57.6665V59.6665V63.1665H31.9269V56.1665ZM28.5935 64.1665H31.3713H35.8158H38.5935V75.1665H36.9269H30.2602H28.5935V64.1665ZM30.8158 76.1665H36.3713V98.1665H30.8158V76.1665ZM37.4824 76.1665H38.5935V76.6665C38.5935 76.9665 38.8158 77.1665 39.1491 77.1665C39.4824 77.1665 39.7046 76.9665 39.7046 76.6665V76.1665H40.8158V76.6665C40.8158 76.9665 41.038 77.1665 41.3713 77.1665C41.7046 77.1665 41.9269 76.9665 41.9269 76.6665V76.1665H43.038V98.1665H37.4824V76.1665ZM44.1491 76.1665H45.2602V76.6665C45.2602 76.9665 45.4824 77.1665 45.8158 77.1665C46.1491 77.1665 46.3713 76.9665 46.3713 76.6665V76.1665H47.4824V76.6665C47.4824 76.9665 47.7046 77.1665 48.038 77.1665C48.3713 77.1665 48.5935 76.9665 48.5935 76.6665V76.1665H49.7046V76.6665C49.7046 76.9665 49.9269 77.1665 50.2602 77.1665C50.5935 77.1665 50.8158 76.9665 50.8158 76.6665V76.1665H51.9269V76.6665C51.9269 76.9665 52.1491 77.1665 52.4824 77.1665C52.8158 77.1665 53.038 76.9665 53.038 76.6665V76.1665H54.1491V76.6665C54.1491 76.9665 54.3713 77.1665 54.7046 77.1665C55.038 77.1665 55.2602 76.9665 55.2602 76.6665V76.1665H56.3713V76.6665C56.3713 76.9665 56.5935 77.1665 56.9269 77.1665C57.2602 77.1665 57.4824 76.9665 57.4824 76.6665V76.1665H58.5935V76.6665C58.5935 76.9665 58.8158 77.1665 59.1491 77.1665C59.4824 77.1665 59.7046 76.9665 59.7046 76.6665V76.1665H60.8158V76.6665C60.8158 76.9665 61.038 77.1665 61.3713 77.1665C61.7046 77.1665 61.9269 76.9665 61.9269 76.6665V76.1665H63.038V76.6665C63.038 76.9665 63.2602 77.1665 63.5935 77.1665C63.9269 77.1665 64.1491 76.9665 64.1491 76.6665V76.1665H65.2602V76.6665C65.2602 76.9665 65.4824 77.1665 65.8158 77.1665C66.1491 77.1665 66.3713 76.9665 66.3713 76.6665V76.1665H67.4824V98.1665H65.2602V88.2665C65.2602 84.8665 63.1491 81.7665 59.4824 79.9665L56.038 78.2665C55.8158 78.1665 55.7046 78.1665 55.4824 78.2665L52.038 79.9665C48.4824 81.7665 46.2602 84.8665 46.2602 88.2665V98.1665H44.038V76.1665H44.1491ZM64.1491 98.1665H47.4824V88.2665C47.4824 85.2665 49.3713 82.4665 52.5935 80.8665L55.8158 79.2665L58.9269 80.8665C62.1491 82.4665 64.1491 85.2665 64.1491 88.2665V98.1665ZM68.5935 76.1665H69.7046V76.6665C69.7046 76.9665 69.9269 77.1665 70.2602 77.1665C70.5935 77.1665 70.8158 76.9665 70.8158 76.6665V76.1665H71.9269V76.6665C71.9269 76.9665 72.1491 77.1665 72.4824 77.1665C72.8158 77.1665 73.038 76.9665 73.038 76.6665V76.1665H74.1491V98.1665H68.5935V76.1665ZM80.8158 98.1665H75.2602V76.1665H80.8158V98.1665Z" fill="#8A8A8A"/>
<path id="Vector_3" d="M46.9271 81.167C47.816 81.167 48.5938 80.467 48.5938 79.667C48.5938 78.867 47.816 78.167 46.9271 78.167C46.0382 78.167 45.2604 78.867 45.2604 79.667C45.2604 80.467 46.0382 81.167 46.9271 81.167ZM46.9271 79.167C47.2604 79.167 47.4826 79.367 47.4826 79.667C47.4826 79.967 47.2604 80.167 46.9271 80.167C46.5938 80.167 46.3715 79.967 46.3715 79.667C46.3715 79.367 46.5938 79.167 46.9271 79.167ZM64.7049 81.167C65.5938 81.167 66.3715 80.467 66.3715 79.667C66.3715 78.867 65.5938 78.167 64.7049 78.167C63.816 78.167 63.0382 78.867 63.0382 79.667C63.0382 80.467 63.816 81.167 64.7049 81.167ZM64.7049 79.167C65.0382 79.167 65.2604 79.367 65.2604 79.667C65.2604 79.967 65.0382 80.167 64.7049 80.167C64.3715 80.167 64.1493 79.967 64.1493 79.667C64.1493 79.367 64.3715 79.167 64.7049 79.167ZM55.816 68.167C54.9271 68.167 54.1493 68.867 54.1493 69.667C54.1493 70.467 54.9271 71.167 55.816 71.167C56.7049 71.167 57.4826 70.467 57.4826 69.667C57.4826 68.867 56.7049 68.167 55.816 68.167ZM55.816 70.167C55.4826 70.167 55.2604 69.967 55.2604 69.667C55.2604 69.367 55.4826 69.167 55.816 69.167C56.1493 69.167 56.3715 69.367 56.3715 69.667C56.3715 69.967 56.1493 70.167 55.816 70.167ZM40.2604 88.167C39.3715 88.167 38.5938 88.867 38.5938 89.667V91.667C38.5938 91.967 38.816 92.167 39.1493 92.167H41.3715C41.7049 92.167 41.9271 91.967 41.9271 91.667V89.667C41.9271 88.867 41.1493 88.167 40.2604 88.167ZM40.816 91.167H39.7049V89.667C39.7049 89.367 39.9271 89.167 40.2604 89.167C40.5938 89.167 40.816 89.367 40.816 89.667V91.167ZM40.2604 93.167C39.3715 93.167 38.5938 93.867 38.5938 94.667V96.667C38.5938 96.967 38.816 97.167 39.1493 97.167H41.3715C41.7049 97.167 41.9271 96.967 41.9271 96.667V94.667C41.9271 93.867 41.1493 93.167 40.2604 93.167ZM40.816 96.167H39.7049V94.667C39.7049 94.367 39.9271 94.167 40.2604 94.167C40.5938 94.167 40.816 94.367 40.816 94.667V96.167ZM71.3715 78.167C70.4826 78.167 69.7049 78.867 69.7049 79.667V81.667C69.7049 81.967 69.9271 82.167 70.2604 82.167H72.4826C72.816 82.167 73.0382 81.967 73.0382 81.667V79.667C73.0382 78.867 72.2604 78.167 71.3715 78.167ZM71.9271 81.167H70.816V79.667C70.816 79.367 71.0382 79.167 71.3715 79.167C71.7049 79.167 71.9271 79.367 71.9271 79.667V81.167ZM71.3715 83.167C70.4826 83.167 69.7049 83.867 69.7049 84.667V86.667C69.7049 86.967 69.9271 87.167 70.2604 87.167H72.4826C72.816 87.167 73.0382 86.967 73.0382 86.667V84.667C73.0382 83.867 72.2604 83.167 71.3715 83.167ZM71.9271 86.167H70.816V84.667C70.816 84.367 71.0382 84.167 71.3715 84.167C71.7049 84.167 71.9271 84.367 71.9271 84.667V86.167ZM71.3715 93.167C70.4826 93.167 69.7049 93.867 69.7049 94.667V96.667C69.7049 96.967 69.9271 97.167 70.2604 97.167H72.4826C72.816 97.167 73.0382 96.967 73.0382 96.667V94.667C73.0382 93.867 72.2604 93.167 71.3715 93.167ZM71.9271 96.167H70.816V94.667C70.816 94.367 71.0382 94.167 71.3715 94.167C71.7049 94.167 71.9271 94.367 71.9271 94.667V96.167ZM71.3715 88.167C70.4826 88.167 69.7049 88.867 69.7049 89.667V91.667C69.7049 91.967 69.9271 92.167 70.2604 92.167H72.4826C72.816 92.167 73.0382 91.967 73.0382 91.667V89.667C73.0382 88.867 72.2604 88.167 71.3715 88.167ZM71.9271 91.167H70.816V89.667C70.816 89.367 71.0382 89.167 71.3715 89.167C71.7049 89.167 71.9271 89.367 71.9271 89.667V91.167Z" fill="#8A8A8A"/>
</g>
</svg>
