<svg width="101" height="100" viewBox="0 0 101 100" fill="none" xmlns="http://www.w3.org/2000/svg">
<g id="gateway-of-india-119678 1">
<path id="Vector" d="M87.5844 98.8208H84.6322V74.0589H86.4035C86.6397 74.0589 86.8759 73.941 86.9939 73.7052L88.1748 70.1677C88.2929 69.9319 88.1748 69.814 88.0567 69.5782C87.9387 69.4603 87.8206 69.3423 87.5844 69.3423H84.6322V64.6258H85.2226C85.5769 64.6258 85.8131 64.39 85.8131 64.0362V60.4988C85.8131 60.1451 85.5769 59.9092 85.2226 59.9092H68.0998V55.7823C68.0998 55.4285 67.8637 55.1927 67.5094 55.1927H66.919V49.297V48.7074V46.9387C66.919 45.8775 66.2104 44.9342 65.1476 44.6984V42.8117C65.1476 42.458 64.9115 42.2222 64.5572 42.2222C64.2029 42.2222 63.9668 42.458 63.9668 42.8117V44.6984C62.904 44.9342 62.1954 45.8775 62.1954 46.9387V48.7074V49.297V51.6553H39.7587V49.297V48.7074V46.9387C39.7587 45.8775 39.0502 44.9342 37.9874 44.6984V42.8117C37.9874 42.458 37.7512 42.2222 37.3969 42.2222C37.0427 42.2222 36.8065 42.458 36.8065 42.8117V44.6984C35.7437 44.9342 35.0352 45.8775 35.0352 46.9387V48.7074V49.297V55.1927H34.4447C34.0905 55.1927 33.8543 55.4285 33.8543 55.7823V59.9092H16.7315C16.3772 59.9092 16.1411 60.1451 16.1411 60.4988V64.0362C16.1411 64.39 16.3772 64.6258 16.7315 64.6258H17.3219V69.3423H14.3697C14.1336 69.3423 14.0155 69.4603 13.8974 69.5782C13.7793 69.6961 13.7793 69.9319 13.7793 70.1677L14.9602 73.7052C15.0783 73.941 15.3144 74.0589 15.5506 74.0589H17.3219V98.8208H14.3697C14.0155 98.8208 13.7793 99.0566 13.7793 99.4104C13.7793 99.7641 14.0155 99.9999 14.3697 99.9999H17.9124H24.4072H29.1308H34.4447H40.3491H61.605H67.5094H72.8234H77.5469H84.0417H87.5844C87.9386 99.9999 88.1748 99.7641 88.1748 99.4104C88.1748 99.0566 87.9386 98.8208 87.5844 98.8208ZM85.9311 72.8798H68.0998V70.5215H86.7578L85.9311 72.8798ZM40.9396 56.3718H61.0146V63.4467H40.9396V56.3718ZM66.919 56.3718V63.4467H62.1954V56.3718H62.7859H66.3285H66.919ZM46.844 64.6258V69.3423H44.4822V64.6258H46.844ZM48.0249 64.6258H50.3866V69.3423H48.0249V64.6258ZM51.5675 64.6258H53.9293V69.3423H51.5675V64.6258ZM55.1101 64.6258H57.4719V69.3423H55.1101V64.6258ZM58.6528 64.6258H61.0146V69.3423H58.6528V64.6258ZM62.1954 69.3423V64.6258H66.919V69.3423H62.1954ZM43.3013 64.6258V69.3423H40.9396V64.6258H43.3013ZM39.7587 69.3423H35.0352V64.6258H39.7587V69.3423ZM39.7587 70.5215V72.8798H35.0352V70.5215H39.7587ZM62.1954 70.5215H66.919V72.8798H62.1954V70.5215ZM83.4513 69.3423H68.0998V64.6258H83.4513V69.3423ZM84.6322 61.0884V63.4467H84.0417H68.0998V61.0884H84.6322ZM63.3763 55.1927V49.297H65.7381V55.1927H63.3763ZM64.5572 45.7596C65.2657 45.7596 65.7381 46.2312 65.7381 46.9387V48.1179H63.3763V46.9387C63.3763 46.2312 63.8487 45.7596 64.5572 45.7596ZM62.1954 52.8344V55.1927H61.9593H61.605H40.3491H39.7587V52.8344H62.1954ZM37.3969 45.7596C38.1055 45.7596 38.5778 46.2312 38.5778 46.9387V48.1179H36.216V46.9387C36.216 46.2312 36.6884 45.7596 37.3969 45.7596ZM36.216 49.297H38.5778V55.1927H36.216V49.297ZM35.6256 56.3718H39.1682H39.7587V63.4467H35.0352V60.4988V56.3718H35.6256ZM17.3219 61.0884H33.8543V63.4467H17.9124H17.3219V61.0884ZM18.5028 64.6258H33.8543V69.3423H18.5028V64.6258ZM15.1964 70.5215H33.8543V72.8798H16.023L15.1964 70.5215ZM18.5028 74.0589H33.8543V98.8208H32.083V85.3786C32.083 82.195 30.3116 79.365 27.3594 77.9501C27.0052 77.7142 26.5328 77.7142 26.0605 77.9501C23.2263 79.365 21.455 82.195 21.3369 85.3786V98.8208H18.3847V74.0589H18.5028ZM23.8168 98.8208H22.6359V85.8503H30.9021V98.8208H29.7212V91.1564C29.7212 88.0906 27.1233 87.1473 27.0052 87.0294C26.8871 87.0294 26.769 87.0294 26.6509 87.0294C26.5328 87.0294 23.8168 88.0906 23.8168 91.1564V98.8208ZM22.6359 84.6711C22.8721 82.195 24.2891 79.9546 26.6509 78.7755C26.769 78.7755 26.769 78.7755 26.8871 78.7755C29.1308 79.9546 30.6659 82.077 30.9021 84.6711H22.6359ZM24.9977 98.8208V91.1564C24.9977 89.3877 26.2966 88.5623 26.769 88.2086C27.3594 88.5623 28.5403 89.3877 28.5403 91.1564V98.8208H24.9977ZM35.0352 98.8208V74.0589H39.7587V98.8208H35.0352ZM43.3013 98.8208V85.9682C43.3013 82.4308 45.0727 79.1292 48.1429 77.2426L50.9771 75.356L53.8112 77.1247C56.8815 79.0113 58.6528 82.3129 58.6528 85.9682V98.9387H43.3013V98.8208ZM54.4016 76.1814L51.2132 74.1768C50.9771 74.0589 50.7409 74.0589 50.6228 74.1768L47.4344 76.1814C44.1279 78.3038 42.1204 81.9591 42.1204 85.9682V98.8208H40.9396V70.5215H61.0146V98.8208H59.8337V85.8503C59.8337 81.9591 57.8262 78.3038 54.4016 76.1814ZM62.1954 98.8208V74.0589H66.919V98.8208H62.1954ZM71.052 85.8503H79.3182V98.8208H78.1373V91.1564C78.1373 88.0906 75.5394 87.1473 75.4213 87.0294C75.3032 87.0294 75.1851 87.0294 75.067 87.0294C74.949 87.0294 72.2329 88.0906 72.2329 91.1564V98.8208H71.052V85.8503ZM71.052 84.6711C71.2882 82.195 72.7053 79.9546 75.067 78.7755C75.1851 78.7755 75.1851 78.7755 75.3032 78.7755C77.5469 79.9546 79.082 82.077 79.3182 84.6711H71.052ZM73.4138 98.8208V91.1564C73.4138 89.3877 74.7128 88.5623 75.1851 88.2086C75.7756 88.5623 76.9565 89.3877 76.9565 91.1564V98.8208H73.4138ZM80.4991 98.8208V85.3786C80.4991 82.195 78.7278 79.365 75.7756 77.8321C75.4213 77.5963 74.949 77.5963 74.4766 77.8321C71.6425 79.2471 69.7531 82.195 69.7531 85.3786V98.8208H67.9818V74.0589H83.3332V98.8208H80.4991Z" fill="#8A8A8A"/>
</g>
</svg>
