<svg width="101" height="100" viewBox="0 0 101 100" fill="none" xmlns="http://www.w3.org/2000/svg">
<g id="shaniwar-wada-161359 1">
<path id="path47" d="M41.026 46.6665C40.8895 46.6665 40.7644 46.7442 40.703 46.8676L39.3587 49.5881H38.1372C38.0007 49.5881 37.8755 49.6658 37.8141 49.7892L35.6475 54.1716C35.6459 54.1747 35.6475 54.1785 35.646 54.1816C35.6241 54.2287 35.6094 54.2788 35.6094 54.3343V55.7951C35.6094 55.9966 35.7712 56.1603 35.9705 56.1603H37.0538V61.6739L33.1183 61.2759C33.113 61.2753 33.108 61.2777 33.1028 61.2773C33.0954 61.2769 33.0891 61.273 33.0816 61.273H25.8594C25.8519 61.273 25.8456 61.2769 25.8382 61.2773C25.833 61.2777 25.828 61.2753 25.8227 61.2759L18.6005 62.0063C18.4156 62.0246 18.276 62.1809 18.276 62.3686V71.1334V99.2694H16.6482C16.3248 99.2694 16.1094 99.4155 16.1094 99.6346C16.1094 99.8538 16.3248 99.9998 16.6482 99.9998H87.7927C88.1161 99.9998 88.3316 99.8538 88.3316 99.6346C88.3316 99.4155 88.1161 99.2694 87.7927 99.2694H86.8872V71.1334V62.3686C86.8872 62.1809 86.7476 62.0246 86.5627 62.0063L79.3405 61.2759C79.3353 61.2753 79.3302 61.2777 79.325 61.2773C79.3176 61.2769 79.3113 61.273 79.3038 61.273H72.0816C72.0741 61.273 72.0678 61.2769 72.0604 61.2773C72.0552 61.2777 72.0502 61.2753 72.0449 61.2759L68.1094 61.6739V56.1603H69.1927C69.392 56.1603 69.5538 55.9974 69.5538 55.7951V54.3343C69.5538 54.3297 69.5512 54.326 69.551 54.3214C69.5503 54.3011 69.5438 54.2817 69.5397 54.2615C69.534 54.2343 69.5298 54.2076 69.5186 54.183C69.5169 54.1793 69.5175 54.1753 69.5157 54.1716L67.3491 49.7892C67.2877 49.6658 67.1625 49.5867 67.026 49.5867H65.8045L64.4602 46.8676C64.3988 46.7442 64.2737 46.6665 64.1372 46.6665H41.026ZM41.2489 47.3955H63.9143L65.0286 49.6494C64.9288 49.7144 64.8594 49.8229 64.8594 49.9519C64.8594 50.1535 65.0212 50.3171 65.2205 50.3171H65.3587L65.7198 51.0475H39.4434L41.2489 47.3955ZM66.1656 50.3171H66.8032L68.6087 53.9691H65.2205V53.2387H66.3038C66.5032 53.2387 66.6649 53.0758 66.6649 52.8735V51.4127C66.6649 51.3572 66.6502 51.3071 66.6283 51.26C66.6268 51.2569 66.6284 51.2531 66.6268 51.25L66.1656 50.3171ZM38.36 50.3185H38.9976L38.5364 51.25C38.5348 51.2531 38.5364 51.2569 38.5349 51.26C38.513 51.3071 38.4983 51.3572 38.4983 51.4127V52.8735C38.4983 53.0751 38.66 53.2387 38.8594 53.2387H39.9427V53.9691H36.5545L38.36 50.3185ZM39.2205 51.7779H65.9427V52.5083H39.2205V51.7779ZM40.6649 53.2387H43.5538V56.2687C43.3589 56.2017 43.1226 56.1603 42.8316 56.1603C42.035 56.1603 41.3872 56.6927 41.3872 57.3472V57.621C41.1878 57.621 41.026 57.7847 41.026 57.9862C41.026 58.1878 41.1878 58.3514 41.3872 58.3514V62.0034H40.6649V55.7951V54.3343V53.2387ZM44.276 53.2387H60.8872V57.621C60.6878 57.621 60.526 57.7847 60.526 57.9862C60.526 58.1878 60.6878 58.3514 60.8872 58.3514V62.0034H60.1649L60.1678 55.4299C60.1678 54.6242 59.3575 53.9691 58.3608 53.9691C57.7686 53.9691 57.246 54.204 56.9163 54.5611C56.5867 54.2038 56.0646 53.9691 55.4719 53.9691C54.8797 53.9691 54.3571 54.204 54.0275 54.5611C53.6978 54.2038 53.1757 53.9691 52.583 53.9691C51.9909 53.9691 51.4682 54.204 51.1386 54.5611C50.8089 54.2038 50.2868 53.9691 49.6941 53.9691C49.102 53.9691 48.5793 54.204 48.2497 54.5611C47.92 54.2038 47.3979 53.9691 46.8052 53.9691C45.8093 53.9691 44.9983 54.6242 44.9983 55.4299V56.1603C44.7989 56.1603 44.6372 56.3239 44.6372 56.5255C44.6372 56.727 44.7989 56.8907 44.9983 56.8907V62.0034H44.276V53.2387ZM61.6094 53.2387H64.4983V54.3343V55.7951V62.0034H63.776V57.621C63.776 57.5722 63.7665 57.5267 63.7492 57.4841C63.7661 57.4418 63.776 57.3957 63.776 57.3472C63.776 56.6934 63.1282 56.1603 62.3316 56.1603C62.0672 56.1603 61.8228 56.2235 61.6094 56.3257V53.2387ZM36.3316 54.6995H39.9427V55.4299H36.3316V54.6995ZM46.8052 54.6995C47.378 54.6995 47.8798 55.0362 47.8886 55.4199C47.8885 55.4233 47.8872 55.4264 47.8872 55.4299V56.1603C47.6878 56.1603 47.526 56.3239 47.526 56.5255C47.526 56.727 47.6878 56.8907 47.8872 56.8907V60.5426H45.7205V56.8907C45.9198 56.8907 46.0816 56.727 46.0816 56.5255C46.0816 56.3239 45.9198 56.1603 45.7205 56.1603V55.4299C45.7205 55.0413 46.2275 54.6995 46.8052 54.6995ZM49.6941 54.6995C50.2669 54.6995 50.7687 55.0362 50.7775 55.4199C50.7774 55.4233 50.776 55.4264 50.776 55.4299V56.1603C50.5767 56.1603 50.4149 56.3239 50.4149 56.5255C50.4149 56.727 50.5767 56.8907 50.776 56.8907V60.5426H48.6108L48.6122 56.8907C48.8102 56.8891 48.9705 56.7261 48.9705 56.5255C48.9705 56.3248 48.8102 56.1618 48.6122 56.1603V55.4299C48.6122 55.4264 48.6108 55.4233 48.6108 55.4199C48.6195 55.0355 49.1214 54.6995 49.6941 54.6995ZM52.583 54.6995C53.1558 54.6995 53.6576 55.0362 53.6663 55.4199C53.6663 55.4233 53.6649 55.4264 53.6649 55.4299V56.1603C53.4656 56.1603 53.3038 56.3239 53.3038 56.5255C53.3038 56.727 53.4656 56.8907 53.6649 56.8907V60.5426H51.4997L51.5011 56.8907C51.6991 56.8891 51.8594 56.7261 51.8594 56.5255C51.8594 56.3248 51.6991 56.1618 51.5011 56.1603V55.4299C51.5011 55.4264 51.4997 55.4233 51.4997 55.4199C51.5084 55.0355 52.0103 54.6995 52.583 54.6995ZM55.4719 54.6995C56.0446 54.6995 56.5465 55.0362 56.5552 55.4199C56.5552 55.4233 56.5538 55.4264 56.5538 55.4299V56.1603C56.3545 56.1603 56.1927 56.3239 56.1927 56.5255C56.1927 56.727 56.3545 56.8907 56.5538 56.8907V60.5426H54.3886L54.39 56.8907C54.588 56.8891 54.7483 56.7261 54.7483 56.5255C54.7483 56.3248 54.588 56.1618 54.39 56.1603V55.4299C54.39 55.4264 54.3886 55.4233 54.3886 55.4199C54.3973 55.0355 54.8992 54.6995 55.4719 54.6995ZM58.3608 54.6995C58.9386 54.6995 59.4455 55.042 59.4455 55.4299V56.166C59.3507 56.1653 59.2548 56.2004 59.1888 56.2701C59.1173 56.3366 59.0816 56.4305 59.0816 56.5255C59.0816 56.6204 59.1166 56.7151 59.1888 56.7808C59.2545 56.8538 59.3488 56.8907 59.4427 56.8907H59.4455L59.4441 60.5426H57.2775L57.2789 56.8907C57.4769 56.8891 57.6372 56.7261 57.6372 56.5255C57.6372 56.3248 57.4769 56.1618 57.2789 56.1603V55.4299C57.2789 55.4264 57.2775 55.4233 57.2775 55.4199C57.2862 55.0355 57.788 54.6995 58.3608 54.6995ZM65.2205 54.6995H68.8316V55.4299H65.2205V54.6995ZM37.776 56.1603H39.9427V61.9663L37.776 61.7467V56.1603ZM65.2205 56.1603H67.3872V61.7467L65.2205 61.9663V56.1603ZM42.8316 56.8907C43.179 56.8907 43.5538 56.9795 43.5538 57.176V57.6367C43.4604 57.6372 43.3696 57.6624 43.3013 57.7309C43.2298 57.7974 43.1941 57.8913 43.1941 57.9862C43.1941 58.0812 43.2291 58.1759 43.3013 58.2416C43.3302 58.2774 43.3737 58.3076 43.417 58.3229C43.4603 58.3448 43.5033 58.3514 43.5538 58.3514V60.5426H42.1094V58.3514C42.3087 58.3514 42.4705 58.1878 42.4705 57.9862C42.4705 57.7847 42.3087 57.621 42.1094 57.621V57.3472C42.1094 57.1317 42.4185 56.8907 42.8316 56.8907ZM62.3316 56.8907C62.7447 56.8907 63.0538 57.1317 63.0538 57.3472C63.0538 57.396 63.0634 57.4415 63.0806 57.4841C63.0634 57.5267 63.0538 57.5722 63.0538 57.621V57.6367C62.9581 57.6367 62.8651 57.6619 62.8013 57.7309C62.7298 57.7974 62.6941 57.8913 62.6941 57.9862C62.6941 58.0812 62.7291 58.1759 62.8013 58.2416C62.8302 58.2774 62.8737 58.3076 62.917 58.3229C62.9603 58.3448 63.0033 58.3514 63.0538 58.3514V60.5426H61.6094V58.3514C61.8087 58.3514 61.9705 58.1878 61.9705 57.9862C61.9705 57.7847 61.8087 57.621 61.6094 57.621V57.3472C61.6094 57.1317 61.9185 56.8907 62.3316 56.8907ZM42.1094 61.273H43.5538V62.0034H42.1094V61.273ZM45.7205 61.273H47.8872V62.0034H45.7205V61.273ZM48.6094 61.273H50.776V62.0034H48.6094V61.273ZM51.4983 61.273H53.6649V62.0034H51.4983V61.273ZM54.3872 61.273H56.5538V62.0034H54.3872V61.273ZM57.276 61.273H59.4427V62.0034H57.276V61.273ZM61.6094 61.273H63.0538V62.0034H61.6094V61.273ZM26.2205 62.0034H32.7205V63.4642H26.2205V62.0034ZM72.4427 62.0034H78.9427V63.4642H72.4427V62.0034ZM25.4983 62.042V63.4642H18.9983V62.6996L25.4983 62.042ZM33.4427 62.042L39.9427 62.6996V63.4642H33.4427V62.042ZM71.7205 62.042V63.4642H65.2205V62.6996L71.7205 62.042ZM79.6649 62.042L86.1649 62.6996V63.4642H79.6649V62.042ZM40.6649 62.7338H42.8316V63.4642H40.6649V62.7338ZM43.5538 62.7338H61.6094V64.1946H43.5538V62.7338ZM62.3316 62.7338H64.4983V63.4642H62.3316V62.7338ZM18.9983 64.1946H25.4983V70.7682H18.9983V64.1946ZM26.2205 64.1946H32.7205V70.7682H26.2205V64.1946ZM33.4427 64.1946H39.9427V70.7682H33.4427V64.1946ZM40.6649 64.1946H42.8316V64.5598C42.8316 64.7614 42.9934 64.925 43.1927 64.925H43.5538V66.751V69.6726V70.647V70.7839H40.6649V64.1946ZM62.3316 64.1946H64.4983V70.7839H61.6094V70.647V66.751V64.925H61.9705C62.1698 64.925 62.3316 64.7622 62.3316 64.5598V64.1946ZM65.2205 64.1946H71.7205V70.7682H65.2205V64.1946ZM72.4427 64.1946H78.9427V70.7682H72.4427V64.1946ZM79.6649 64.1946H86.1649V70.7682H79.6649V64.1946ZM44.276 64.925H60.8872V66.3858H44.276V65.6554V64.925ZM22.2483 65.6554C21.651 65.6554 21.1649 66.147 21.1649 66.751V68.9422C21.1649 69.1438 21.3267 69.3074 21.526 69.3074H22.9705C23.1698 69.3074 23.3316 69.1445 23.3316 68.9422V66.751C23.3316 66.147 22.8455 65.6554 22.2483 65.6554ZM29.4705 65.6554C28.8732 65.6554 28.3872 66.147 28.3872 66.751V68.9422C28.3872 69.1438 28.5489 69.3074 28.7483 69.3074H30.1927C30.392 69.3074 30.5538 69.1445 30.5538 68.9422V66.751C30.5538 66.147 30.0678 65.6554 29.4705 65.6554ZM36.6927 65.6554C36.0954 65.6554 35.6094 66.147 35.6094 66.751V68.9422C35.6094 69.1438 35.7712 69.3074 35.9705 69.3074H37.4149C37.6143 69.3074 37.776 69.1445 37.776 68.9422V66.751C37.776 66.147 37.29 65.6554 36.6927 65.6554ZM68.4705 65.6554C67.8732 65.6554 67.3872 66.147 67.3872 66.751V68.9422C67.3872 69.1438 67.5489 69.3074 67.7483 69.3074H69.1927C69.392 69.3074 69.5538 69.1445 69.5538 68.9422V66.751C69.5538 66.147 69.0678 65.6554 68.4705 65.6554ZM75.6927 65.6554C75.0954 65.6554 74.6094 66.147 74.6094 66.751V68.9422C74.6094 69.1438 74.7712 69.3074 74.9705 69.3074H76.4149C76.6143 69.3074 76.776 69.1445 76.776 68.9422V66.751C76.776 66.147 76.29 65.6554 75.6927 65.6554ZM82.9149 65.6554C82.3176 65.6554 81.8316 66.147 81.8316 66.751V68.9422C81.8316 69.1438 81.9934 69.3074 82.1927 69.3074H83.6372C83.8365 69.3074 83.9983 69.1445 83.9983 68.9422V66.751C83.9983 66.147 83.5122 65.6554 82.9149 65.6554ZM20.0816 65.6711C19.8823 65.6711 19.7205 65.834 19.7205 66.0363V68.9579C19.7205 69.1595 19.8823 69.3231 20.0816 69.3231C20.2809 69.3231 20.4427 69.1595 20.4427 68.9579V66.0363C20.4427 65.834 20.2809 65.6711 20.0816 65.6711ZM24.4149 65.6711C24.2156 65.6711 24.0538 65.8347 24.0538 66.0363V68.9579C24.0538 69.1595 24.2156 69.3231 24.4149 69.3231C24.6143 69.3231 24.776 69.1595 24.776 68.9579V66.0363C24.776 65.8347 24.6143 65.6711 24.4149 65.6711ZM27.3038 65.6711C27.1045 65.6711 26.9427 65.8347 26.9427 66.0363V68.9579C26.9427 69.1595 27.1045 69.3231 27.3038 69.3231C27.5032 69.3231 27.6649 69.1595 27.6649 68.9579V66.0363C27.6649 65.8347 27.5032 65.6711 27.3038 65.6711ZM31.6372 65.6711C31.4378 65.6711 31.276 65.8347 31.276 66.0363V68.9579C31.276 69.1595 31.4378 69.3231 31.6372 69.3231C31.8365 69.3231 31.9983 69.1595 31.9983 68.9579V66.0363C31.9983 65.8347 31.8365 65.6711 31.6372 65.6711ZM34.526 65.6711C34.3267 65.6711 34.1649 65.8347 34.1649 66.0363V68.9579C34.1649 69.1595 34.3267 69.3231 34.526 69.3231C34.7254 69.3231 34.8872 69.1595 34.8872 68.9579V66.0363C34.8872 65.8347 34.7254 65.6711 34.526 65.6711ZM38.8594 65.6711C38.66 65.6711 38.4983 65.8347 38.4983 66.0363V68.9579C38.4983 69.1595 38.66 69.3231 38.8594 69.3231C39.0587 69.3231 39.2205 69.1595 39.2205 68.9579V66.0363C39.2205 65.8347 39.0587 65.6711 38.8594 65.6711ZM66.3038 65.6711C66.1045 65.6711 65.9427 65.8347 65.9427 66.0363V68.9579C65.9427 69.1595 66.1045 69.3231 66.3038 69.3231C66.5032 69.3231 66.6649 69.1595 66.6649 68.9579V66.0363C66.6649 65.8347 66.5032 65.6711 66.3038 65.6711ZM70.6372 65.6711C70.4378 65.6711 70.276 65.8347 70.276 66.0363V68.9579C70.276 69.1595 70.4378 69.3231 70.6372 69.3231C70.8365 69.3231 70.9983 69.1595 70.9983 68.9579V66.0363C70.9983 65.8347 70.8365 65.6711 70.6372 65.6711ZM73.526 65.6711C73.3267 65.6711 73.1649 65.8347 73.1649 66.0363V68.9579C73.1649 69.1595 73.3267 69.3231 73.526 69.3231C73.7254 69.3231 73.8872 69.1595 73.8872 68.9579V66.0363C73.8872 65.8347 73.7254 65.6711 73.526 65.6711ZM77.8594 65.6711C77.66 65.6711 77.4983 65.8347 77.4983 66.0363V68.9579C77.4983 69.1595 77.66 69.3231 77.8594 69.3231C78.0587 69.3231 78.2205 69.1595 78.2205 68.9579V66.0363C78.2205 65.8347 78.0587 65.6711 77.8594 65.6711ZM80.7483 65.6711C80.5489 65.6711 80.3872 65.8347 80.3872 66.0363V68.9579C80.3872 69.1595 80.5489 69.3231 80.7483 69.3231C80.9476 69.3231 81.1094 69.1595 81.1094 68.9579V66.0363C81.1094 65.8347 80.9476 65.6711 80.7483 65.6711ZM85.0816 65.6711C84.8823 65.6711 84.7205 65.8347 84.7205 66.0363V68.9579C84.7205 69.1595 84.8823 69.3231 85.0816 69.3231C85.2809 69.3231 85.4427 69.1595 85.4427 68.9579V66.0363C85.4427 65.8347 85.2809 65.6711 85.0816 65.6711ZM22.2483 66.3858C22.4469 66.3858 22.6094 66.5502 22.6094 66.751V68.577H21.8872V66.751C21.8872 66.5502 22.0497 66.3858 22.2483 66.3858ZM29.4705 66.3858C29.6691 66.3858 29.8316 66.5502 29.8316 66.751V68.577H29.1094V66.751C29.1094 66.5502 29.2719 66.3858 29.4705 66.3858ZM36.6927 66.3858C36.8913 66.3858 37.0538 66.5502 37.0538 66.751V68.577H36.3316V66.751C36.3316 66.5502 36.4941 66.3858 36.6927 66.3858ZM68.4705 66.3858C68.6691 66.3858 68.8316 66.5502 68.8316 66.751V68.577H68.1094V66.751C68.1094 66.5502 68.2719 66.3858 68.4705 66.3858ZM75.6927 66.3858C75.8913 66.3858 76.0538 66.5502 76.0538 66.751V68.577H75.3316V66.751C75.3316 66.5502 75.4941 66.3858 75.6927 66.3858ZM82.9149 66.3858C83.1135 66.3858 83.276 66.5502 83.276 66.751V68.577H82.5538V66.751C82.5538 66.5502 82.7163 66.3858 82.9149 66.3858ZM44.276 67.1162H60.8872V68.2218C60.5844 67.99 60.2122 67.8466 59.8038 67.8466C59.2109 67.8466 58.6887 68.141 58.3594 68.5884C58.0301 68.141 57.5079 67.8466 56.9149 67.8466C56.322 67.8466 55.7998 68.141 55.4705 68.5884C55.1412 68.141 54.619 67.8466 54.026 67.8466C53.4331 67.8466 52.9109 68.141 52.5816 68.5884C52.2523 68.141 51.7301 67.8466 51.1372 67.8466C50.5442 67.8466 50.022 68.141 49.6927 68.5884C49.3634 68.141 48.8412 67.8466 48.2483 67.8466C47.6553 67.8466 47.1331 68.141 46.8038 68.5884C46.4745 68.141 45.9523 67.8466 45.3594 67.8466C44.951 67.8466 44.5788 67.99 44.276 68.2218V67.1162ZM45.3594 68.577C45.9567 68.577 46.4427 69.0686 46.4427 69.6726V70.647C46.4427 70.6902 46.453 70.7297 46.4667 70.7682H44.276V69.6726C44.276 69.0686 44.7621 68.577 45.3594 68.577ZM48.2483 68.577C48.8455 68.577 49.3316 69.0686 49.3316 69.6726V70.647C49.3316 70.6902 49.3419 70.7297 49.3556 70.7682H47.1409C47.1546 70.7297 47.1649 70.6902 47.1649 70.647V69.6726C47.1649 69.0686 47.651 68.577 48.2483 68.577ZM51.1372 68.577C51.7344 68.577 52.2205 69.0686 52.2205 69.6726V70.647C52.2205 70.6902 52.2308 70.7297 52.2445 70.7682H50.0298C50.0435 70.7297 50.0538 70.6902 50.0538 70.647V69.6726C50.0538 69.0686 50.5399 68.577 51.1372 68.577ZM54.026 68.577C54.6233 68.577 55.1094 69.0686 55.1094 69.6726V70.647C55.1094 70.6902 55.1197 70.7297 55.1334 70.7682H52.9187C52.9324 70.7297 52.9427 70.6902 52.9427 70.647V69.6726C52.9427 69.0686 53.4288 68.577 54.026 68.577ZM56.9149 68.577C57.5122 68.577 57.9983 69.0686 57.9983 69.6726V70.647C57.9983 70.6902 58.0086 70.7297 58.0222 70.7682H55.8076C55.8213 70.7297 55.8316 70.6902 55.8316 70.647V69.6726C55.8316 69.0686 56.3177 68.577 56.9149 68.577ZM59.8038 68.577C60.4011 68.577 60.8872 69.0686 60.8872 69.6726V70.7682H58.6965C58.7102 70.7297 58.7205 70.6902 58.7205 70.647V69.6726C58.7205 69.0686 59.2065 68.577 59.8038 68.577ZM18.9983 71.4986H25.4983V72.229H18.9983V71.4986ZM26.2205 71.4986H32.7205V72.229H26.2205V71.4986ZM33.4427 71.4986H39.9427V72.229H33.4427V71.4986ZM44.276 71.4986H60.8872V72.229H44.276V71.4986ZM65.2205 71.4986H71.7205V72.229H66.3038H65.2205V71.4986ZM72.4427 71.4986H78.9427V72.229H72.4427V71.4986ZM79.6649 71.4986H86.1649V72.229H79.6649V71.4986ZM40.6649 71.5143H43.5538V72.229H40.6649V71.5143ZM61.6094 71.5143H64.4983V72.229H61.6094V71.5143ZM18.9983 72.9594H25.4983V99.2537H18.9983V72.9594ZM26.2205 72.9594H32.7205V99.2537H26.2205V72.9594ZM33.4427 72.9594H39.9427V99.2537H33.4427V72.9594ZM40.6649 72.9594H43.5538V99.2537H40.6649V72.9594ZM44.276 72.9594H60.8872V99.2537H59.4427V88.3534C59.4427 86.1629 58.2839 84.1126 56.4184 83.0024L53.1275 81.0451C53.0098 80.9758 52.865 80.9771 52.7509 81.0509L49.3104 83.2421C47.5143 84.3844 46.4427 86.348 46.4427 88.4946V99.2537H44.276V72.9594ZM61.6094 72.9594H64.4983V99.2537H61.6094V72.9594ZM65.2205 72.9594H66.3038H71.7205V99.2537H65.2205V72.9594ZM72.4427 72.9594H78.9427V99.2537H72.4427V72.9594ZM79.6649 72.9594H86.1649V99.2537H79.6649V72.9594ZM20.0816 74.4359C19.8823 74.4359 19.7205 74.5988 19.7205 74.8011V79.1835C19.7205 79.3851 19.8823 79.5487 20.0816 79.5487C20.2809 79.5487 20.4427 79.3851 20.4427 79.1835V74.8011C20.4427 74.5988 20.2809 74.4359 20.0816 74.4359ZM22.2483 74.4359C22.0489 74.4359 21.8872 74.5988 21.8872 74.8011V79.1835C21.8872 79.3851 22.0489 79.5487 22.2483 79.5487C22.4476 79.5487 22.6094 79.3851 22.6094 79.1835V74.8011C22.6094 74.5988 22.4476 74.4359 22.2483 74.4359ZM24.4149 74.4359C24.2156 74.4359 24.0538 74.5995 24.0538 74.8011V79.1835C24.0538 79.3851 24.2156 79.5487 24.4149 79.5487C24.6143 79.5487 24.776 79.3851 24.776 79.1835V74.8011C24.776 74.5995 24.6143 74.4359 24.4149 74.4359ZM27.3038 74.4359C27.1045 74.4359 26.9427 74.5995 26.9427 74.8011V79.1835C26.9427 79.3851 27.1045 79.5487 27.3038 79.5487C27.5032 79.5487 27.6649 79.3851 27.6649 79.1835V74.8011C27.6649 74.5995 27.5032 74.4359 27.3038 74.4359ZM29.4705 74.4359C29.2712 74.4359 29.1094 74.5995 29.1094 74.8011V79.1835C29.1094 79.3851 29.2712 79.5487 29.4705 79.5487C29.6698 79.5487 29.8316 79.3851 29.8316 79.1835V74.8011C29.8316 74.5995 29.6698 74.4359 29.4705 74.4359ZM31.6372 74.4359C31.4378 74.4359 31.276 74.5995 31.276 74.8011V79.1835C31.276 79.3851 31.4378 79.5487 31.6372 79.5487C31.8365 79.5487 31.9983 79.3851 31.9983 79.1835V74.8011C31.9983 74.5995 31.8365 74.4359 31.6372 74.4359ZM34.526 74.4359C34.3267 74.4359 34.1649 74.5995 34.1649 74.8011V79.1835C34.1649 79.3851 34.3267 79.5487 34.526 79.5487C34.7254 79.5487 34.8872 79.3851 34.8872 79.1835V74.8011C34.8872 74.5995 34.7254 74.4359 34.526 74.4359ZM36.6927 74.4359C36.4934 74.4359 36.3316 74.5995 36.3316 74.8011V79.1835C36.3316 79.3851 36.4934 79.5487 36.6927 79.5487C36.892 79.5487 37.0538 79.3851 37.0538 79.1835V74.8011C37.0538 74.5995 36.892 74.4359 36.6927 74.4359ZM38.8594 74.4359C38.66 74.4359 38.4983 74.5995 38.4983 74.8011V79.1835C38.4983 79.3851 38.66 79.5487 38.8594 79.5487C39.0587 79.5487 39.2205 79.3851 39.2205 79.1835V74.8011C39.2205 74.5995 39.0587 74.4359 38.8594 74.4359ZM42.1094 74.4359C41.91 74.4359 41.7483 74.5995 41.7483 74.8011V79.1835C41.7483 79.3851 41.91 79.5487 42.1094 79.5487C42.3087 79.5487 42.4705 79.3851 42.4705 79.1835V74.8011C42.4705 74.5995 42.3087 74.4359 42.1094 74.4359ZM46.8038 74.4359C46.6045 74.4359 46.4427 74.5995 46.4427 74.8011V79.1835C46.4427 79.3851 46.6045 79.5487 46.8038 79.5487C47.0032 79.5487 47.1649 79.3851 47.1649 79.1835V74.8011C47.1649 74.5995 47.0032 74.4359 46.8038 74.4359ZM49.6927 74.4359C49.4934 74.4359 49.3316 74.5995 49.3316 74.8011V79.1835C49.3316 79.3851 49.4934 79.5487 49.6927 79.5487C49.892 79.5487 50.0538 79.3851 50.0538 79.1835V74.8011C50.0538 74.5995 49.892 74.4359 49.6927 74.4359ZM52.5816 74.4359C52.3823 74.4359 52.2205 74.5995 52.2205 74.8011V79.1835C52.2205 79.3851 52.3823 79.5487 52.5816 79.5487C52.7809 79.5487 52.9427 79.3851 52.9427 79.1835V74.8011C52.9427 74.5995 52.7809 74.4359 52.5816 74.4359ZM55.4705 74.4359C55.2712 74.4359 55.1094 74.5995 55.1094 74.8011V79.1835C55.1094 79.3851 55.2712 79.5487 55.4705 79.5487C55.6698 79.5487 55.8316 79.3851 55.8316 79.1835V74.8011C55.8316 74.5995 55.6698 74.4359 55.4705 74.4359ZM58.3594 74.4359C58.16 74.4359 57.9983 74.5995 57.9983 74.8011V79.1835C57.9983 79.3851 58.16 79.5487 58.3594 79.5487C58.5587 79.5487 58.7205 79.3851 58.7205 79.1835V74.8011C58.7205 74.5995 58.5587 74.4359 58.3594 74.4359ZM63.0538 74.4359C62.8545 74.4359 62.6927 74.5995 62.6927 74.8011V79.1835C62.6927 79.3851 62.8545 79.5487 63.0538 79.5487C63.2532 79.5487 63.4149 79.3851 63.4149 79.1835V74.8011C63.4149 74.5995 63.2532 74.4359 63.0538 74.4359ZM66.3038 74.4359C66.1045 74.4359 65.9427 74.5995 65.9427 74.8011V79.1835C65.9427 79.3851 66.1045 79.5487 66.3038 79.5487C66.5032 79.5487 66.6649 79.3851 66.6649 79.1835V74.8011C66.6649 74.5995 66.5032 74.4359 66.3038 74.4359ZM68.4705 74.4359C68.2712 74.4359 68.1094 74.5995 68.1094 74.8011V79.1835C68.1094 79.3851 68.2712 79.5487 68.4705 79.5487C68.6698 79.5487 68.8316 79.3851 68.8316 79.1835V74.8011C68.8316 74.5995 68.6698 74.4359 68.4705 74.4359ZM70.6372 74.4359C70.4378 74.4359 70.276 74.5995 70.276 74.8011V79.1835C70.276 79.3851 70.4378 79.5487 70.6372 79.5487C70.8365 79.5487 70.9983 79.3851 70.9983 79.1835V74.8011C70.9983 74.5995 70.8365 74.4359 70.6372 74.4359ZM73.526 74.4359C73.3267 74.4359 73.1649 74.5995 73.1649 74.8011V79.1835C73.1649 79.3851 73.3267 79.5487 73.526 79.5487C73.7254 79.5487 73.8872 79.3851 73.8872 79.1835V74.8011C73.8872 74.5995 73.7254 74.4359 73.526 74.4359ZM75.6927 74.4359C75.4934 74.4359 75.3316 74.5995 75.3316 74.8011V79.1835C75.3316 79.3851 75.4934 79.5487 75.6927 79.5487C75.892 79.5487 76.0538 79.3851 76.0538 79.1835V74.8011C76.0538 74.5995 75.892 74.4359 75.6927 74.4359ZM77.8594 74.4359C77.66 74.4359 77.4983 74.5995 77.4983 74.8011V79.1835C77.4983 79.3851 77.66 79.5487 77.8594 79.5487C78.0587 79.5487 78.2205 79.3851 78.2205 79.1835V74.8011C78.2205 74.5995 78.0587 74.4359 77.8594 74.4359ZM80.7483 74.4359C80.5489 74.4359 80.3872 74.5995 80.3872 74.8011V79.1835C80.3872 79.3851 80.5489 79.5487 80.7483 79.5487C80.9476 79.5487 81.1094 79.3851 81.1094 79.1835V74.8011C81.1094 74.5995 80.9476 74.4359 80.7483 74.4359ZM82.9149 74.4359C82.7156 74.4359 82.5538 74.5995 82.5538 74.8011V79.1835C82.5538 79.3851 82.7156 79.5487 82.9149 79.5487C83.1143 79.5487 83.276 79.3851 83.276 79.1835V74.8011C83.276 74.5995 83.1143 74.4359 82.9149 74.4359ZM85.0816 74.4359C84.8823 74.4359 84.7205 74.5995 84.7205 74.8011V79.1835C84.7205 79.3851 84.8823 79.5487 85.0816 79.5487C85.2809 79.5487 85.4427 79.3851 85.4427 79.1835V74.8011C85.4427 74.5995 85.2809 74.4359 85.0816 74.4359ZM48.2483 80.2634C47.651 80.2634 47.1649 80.755 47.1649 81.359C47.1649 81.963 47.651 82.4546 48.2483 82.4546C48.8455 82.4546 49.3316 81.963 49.3316 81.359C49.3316 80.755 48.8455 80.2634 48.2483 80.2634ZM56.9149 80.2634C56.3177 80.2634 55.8316 80.755 55.8316 81.359C55.8316 81.963 56.3177 82.4546 56.9149 82.4546C57.5122 82.4546 57.9983 81.963 57.9983 81.359C57.9983 80.755 57.5122 80.2634 56.9149 80.2634ZM48.2483 80.9938C48.4469 80.9938 48.6094 81.1581 48.6094 81.359C48.6094 81.5598 48.4469 81.7242 48.2483 81.7242C48.0497 81.7242 47.8872 81.5598 47.8872 81.359C47.8872 81.1581 48.0497 80.9938 48.2483 80.9938ZM56.9149 80.9938C57.1135 80.9938 57.276 81.1581 57.276 81.359C57.276 81.5598 57.1135 81.7242 56.9149 81.7242C56.7163 81.7242 56.5538 81.5598 56.5538 81.359C56.5538 81.1581 56.7163 80.9938 56.9149 80.9938ZM52.9498 81.787L56.0502 83.6315C57.6969 84.6117 58.7205 86.4208 58.7205 88.3534V99.2537H57.276V88.3919C57.276 88.2091 57.2644 88.0287 57.2408 87.8498C57.0755 86.5975 56.3454 85.4671 55.2547 84.8184L53.1261 83.5516H53.1247L52.9357 83.4389L52.7495 83.5573L50.5235 84.9753C49.3247 85.7386 48.6094 87.0502 48.6094 88.4832V99.2537H47.1649V88.4946C47.1649 86.6 48.111 84.867 49.6955 83.8583L52.9498 81.787ZM53.3038 84.5046L54.8879 85.4475C55.187 85.6254 55.4481 85.852 55.675 86.1066H53.3038V84.5046ZM52.5816 84.5274V86.1066H50.2852C50.4704 85.9142 50.6772 85.7403 50.9086 85.593L52.5816 84.5274ZM56.1687 86.8241C56.3475 87.1727 56.4721 87.5507 56.5242 87.9454C56.5395 88.0617 56.5449 88.1793 56.5482 88.2978H53.3038V86.837H56.1024C56.1258 86.837 56.1466 86.8284 56.1687 86.8241ZM49.7491 86.8298H49.7505C49.7618 86.8309 49.7715 86.837 49.783 86.837H52.5816V88.2978H49.3429C49.3705 87.7752 49.507 87.2737 49.7491 86.8298ZM49.3316 89.0282H52.5816V90.489H49.3316V89.0282ZM53.3038 89.0282H56.5538V90.489H53.3038V89.0282ZM49.3316 91.2194H52.5816V92.6802H49.3316V91.2194ZM53.3038 91.2194H56.5538V92.6802H53.3038V91.2194ZM49.3316 93.4106H52.5816V94.8714H49.3316V93.4106ZM53.3038 93.4106H56.5538V94.8714H53.3038V93.4106ZM49.3316 95.6018H52.5816V97.0626H49.3316V95.6018ZM53.3038 95.6018H56.5538V97.0626H53.3038V95.6018ZM49.3316 97.7929H52.5816V99.2537H49.3316V97.7929ZM53.3038 97.7929H56.5538V99.2537H53.3038V97.7929Z" fill="#8A8A8A"/>
</g>
</svg>
