<svg width="74" height="74" viewBox="0 0 74 74" fill="none" xmlns="http://www.w3.org/2000/svg">
<g id="Group">
<path id="Vector" d="M69.9414 31.7089C68.7864 30.777 67.4739 29.7257 67.2495 28.8988C66.903 26.0284 70.6856 21.4569 68.8376 18.618C67.3098 15.5848 61.4718 16.5508 59.1356 14.8642C57.4398 12.5332 58.4176 6.68736 55.3805 5.16092C52.5416 3.31686 47.9715 7.08767 45.0997 6.74905C44.2728 6.52592 43.2228 5.21342 42.291 4.05842C38.6488 -0.975015 35.3715 -1.01701 31.7083 4.05842C29.2486 7.29899 28.6554 7.30817 24.9463 5.81717C19.3419 3.3103 16.625 4.93386 15.9924 11.0422C15.9237 12.3872 15.5369 13.6966 14.8636 14.8629C12.5418 16.5587 6.68152 15.5809 5.16033 18.618C3.31627 21.4569 7.08708 26.027 6.74845 28.8988C5.5357 31.5054 0.0350167 33.5844 0.235829 36.9995C0.0389542 40.412 5.5252 42.4976 6.74845 45.1003C7.09495 47.9707 3.31233 52.5422 5.16033 55.3811C6.68808 58.4143 12.5261 57.4483 14.8623 59.1349C15.5377 60.3008 15.9247 61.6111 15.9911 62.9569C16.625 69.0206 19.3012 70.7046 24.9463 68.1819C28.6777 66.6725 29.2565 66.725 31.7083 69.9407C35.3491 74.9741 38.6265 75.0161 42.2896 69.9407C44.7493 66.7001 45.3425 66.6909 49.0516 68.1819C54.656 70.6783 57.3755 69.0679 58.0055 62.9569C58.0742 61.6119 58.461 60.3025 59.1343 59.1362C61.4561 57.4404 67.3164 58.4182 68.8376 55.3811C70.6816 52.5422 66.9108 47.972 67.2495 45.1003C67.4726 44.2734 68.7851 43.2234 69.9401 42.2915C74.9735 38.6494 75.0168 35.372 69.9414 31.7089ZM36.999 59.3199C31.0818 59.3116 25.4093 56.9573 21.2253 52.7732C17.0412 48.5892 14.6869 42.9167 14.6786 36.9995C15.9268 7.3843 58.0751 7.39349 59.3193 36.9995C59.311 42.9167 56.9567 48.5892 52.7726 52.7732C48.5886 56.9573 42.9161 59.3116 36.999 59.3199Z" fill="#005F89"/>
</g>
</svg>
