<svg width="16" height="16" viewBox="0 0 16 16" fill="none" xmlns="http://www.w3.org/2000/svg">
<g id="svgexport-7 (66) 1" clip-path="url(#clip0_1833_16511)">
<g id="Group">
<path id="Vector" d="M15.0109 15.4607H14.5615V1.34831C14.5615 1.2768 14.5331 1.20821 14.4825 1.15764C14.4319 1.10707 14.3633 1.07866 14.2918 1.07866H9.25809C9.22268 1.07865 9.18761 1.08562 9.1549 1.09917C9.12218 1.11272 9.09245 1.13259 9.06741 1.15763C9.04237 1.18267 9.02251 1.2124 9.00896 1.24511C8.99541 1.27783 8.98843 1.3129 8.98844 1.34831V2.51684H8.44912V1.34831C8.44912 1.2768 8.42071 1.20821 8.37014 1.15764C8.31957 1.10707 8.25099 1.07866 8.17947 1.07866H7.01091V0.269656C7.01091 0.120687 6.89016 0 6.74125 0C6.59234 0 6.47159 0.120687 6.47159 0.269656V1.07866H5.30306C5.26765 1.07865 5.23258 1.08562 5.19986 1.09917C5.16715 1.11272 5.13742 1.13259 5.11238 1.15763C5.08734 1.18267 5.06747 1.2124 5.05392 1.24511C5.04037 1.27783 5.0334 1.3129 5.03341 1.34831V2.51684H4.22441C4.18899 2.51684 4.15393 2.52381 4.12121 2.53736C4.08849 2.55091 4.05876 2.57077 4.03372 2.59582C4.00868 2.62086 3.98882 2.65058 3.97527 2.6833C3.96172 2.71602 3.95475 2.75109 3.95475 2.7865V5.03369H1.70756C1.67215 5.03368 1.63708 5.04066 1.60436 5.05421C1.57165 5.06776 1.54192 5.08762 1.51688 5.11266C1.49184 5.1377 1.47197 5.16743 1.45842 5.20015C1.44487 5.23286 1.4379 5.26793 1.43791 5.30334V15.4607H0.988406C0.839469 15.4607 0.71875 15.5813 0.71875 15.7303C0.71875 15.8793 0.8395 16 0.988406 16H15.0109C15.1598 16 15.2806 15.8793 15.2806 15.7303C15.2806 15.5814 15.1598 15.4607 15.0109 15.4607ZM5.57269 1.61797H7.90975V2.51684H5.57269V1.61797ZM4.67381 15.4607H4.49403V15.0112C4.49403 14.8623 4.37328 14.7416 4.22437 14.7416C4.07547 14.7416 3.95472 14.8623 3.95472 15.0112V15.4607H3.77494V14.5618H4.67381V15.4607ZM6.47156 8.53931V15.4607H5.21312V14.2922C5.21312 14.2206 5.18471 14.1521 5.13414 14.1015C5.08357 14.0509 5.01499 14.0225 4.94347 14.0225H3.50528C3.46987 14.0225 3.4348 14.0295 3.40208 14.043C3.36937 14.0566 3.33964 14.0764 3.3146 14.1015C3.28956 14.1265 3.26969 14.1562 3.25614 14.189C3.24259 14.2217 3.23562 14.2567 3.23563 14.2922V15.4607H1.97719V5.57303H6.47156V8.53931ZM6.74122 5.03372H4.49403V3.05619H8.98841V8.26966H7.01091V7.37078H7.81991C7.96884 7.37078 8.08956 7.25009 8.08956 7.10112C8.08956 6.95216 7.96881 6.83147 7.81991 6.83147H7.01091V5.93259H7.81991C7.96884 5.93259 8.08956 5.81191 8.08956 5.66294C8.08956 5.51397 7.96881 5.39328 7.81991 5.39328H7.01091V5.30341C7.01091 5.26799 7.00394 5.23292 6.99039 5.2002C6.97683 5.16747 6.95697 5.13774 6.93193 5.1127C6.90688 5.08766 6.87715 5.06779 6.84443 5.05424C6.81171 5.04069 6.77664 5.03371 6.74122 5.03372ZM11.5053 15.4607H7.01091V8.809H11.5053V15.4607ZM14.0221 15.4607H12.0446V8.17975C12.0446 8.03078 11.9238 7.91009 11.7749 7.91009C11.626 7.91009 11.5053 8.03078 11.5053 8.17975V8.26962H10.966V8.17975C10.966 8.03078 10.8452 7.91009 10.6963 7.91009C10.5474 7.91009 10.4267 8.03078 10.4267 8.17975V8.26962H9.52778V1.61797H14.0222V15.4607H14.0221Z" fill="#005F89"/>
<path id="Vector_2" d="M8.17837 14.9202C8.24989 14.9201 8.31847 14.8917 8.36904 14.8412C8.41961 14.7906 8.44802 14.722 8.44803 14.6505V9.61681C8.44803 9.46784 8.32728 9.34716 8.17837 9.34716C8.02947 9.34716 7.90872 9.46784 7.90872 9.61681V14.6505C7.90872 14.6859 7.91569 14.721 7.92924 14.7537C7.9428 14.7864 7.96266 14.8162 7.9877 14.8412C8.01274 14.8662 8.04247 14.8861 8.07518 14.8996C8.1079 14.9132 8.14296 14.9202 8.17837 14.9202ZM9.25703 14.9202C9.32854 14.9201 9.39713 14.8917 9.4477 14.8412C9.49826 14.7906 9.52668 14.722 9.52668 14.6505V9.61681C9.52668 9.46784 9.40593 9.34716 9.25703 9.34716C9.10812 9.34716 8.98737 9.46784 8.98737 9.61681V14.6505C8.98737 14.6859 8.99435 14.721 9.0079 14.7537C9.02145 14.7864 9.04131 14.8162 9.06635 14.8412C9.0914 14.8662 9.12112 14.8861 9.15384 14.8996C9.18655 14.9132 9.22162 14.9202 9.25703 14.9202ZM10.3357 14.9202C10.4072 14.9201 10.4758 14.8917 10.5263 14.8412C10.5769 14.7906 10.6053 14.722 10.6053 14.6505V9.61681C10.6053 9.46784 10.4846 9.34716 10.3357 9.34716C10.1867 9.34716 10.066 9.46784 10.066 9.61681V14.6505C10.066 14.722 10.0944 14.7906 10.145 14.8412C10.1956 14.8918 10.2641 14.9202 10.3357 14.9202ZM10.6952 3.41447C10.7306 3.41447 10.7657 3.4075 10.7984 3.39395C10.8311 3.3804 10.8609 3.36054 10.8859 3.3355C10.9109 3.31046 10.9308 3.28073 10.9444 3.24801C10.9579 3.21529 10.9649 3.18023 10.9649 3.14481V2.78528C10.9649 2.63631 10.8441 2.51562 10.6952 2.51562C10.5463 2.51562 10.4256 2.63631 10.4256 2.78528V3.14484C10.4256 3.18025 10.4325 3.21532 10.4461 3.24803C10.4596 3.28075 10.4795 3.31047 10.5045 3.33551C10.5296 3.36055 10.5593 3.38041 10.592 3.39395C10.6247 3.4075 10.6598 3.41447 10.6952 3.41447ZM11.7739 3.41447C11.8093 3.41447 11.8444 3.4075 11.8771 3.39395C11.9098 3.3804 11.9395 3.36054 11.9646 3.3355C11.9896 3.31046 12.0095 3.28073 12.023 3.24801C12.0366 3.21529 12.0435 3.18023 12.0435 3.14481V2.78528C12.0435 2.63631 11.9228 2.51562 11.7739 2.51562C11.625 2.51562 11.5042 2.63631 11.5042 2.78528V3.14484C11.5042 3.18025 11.5112 3.21532 11.5247 3.24803C11.5383 3.28075 11.5582 3.31047 11.5832 3.33551C11.6082 3.36055 11.638 3.38041 11.6707 3.39395C11.7034 3.4075 11.7385 3.41447 11.7739 3.41447ZM12.8525 3.41447C12.8879 3.41447 12.923 3.4075 12.9557 3.39395C12.9884 3.3804 13.0182 3.36054 13.0432 3.3355C13.0683 3.31046 13.0881 3.28073 13.1017 3.24801C13.1152 3.21529 13.1222 3.18023 13.1222 3.14481V2.78528C13.1222 2.63631 13.0014 2.51562 12.8525 2.51562C12.7036 2.51562 12.5829 2.63631 12.5829 2.78528V3.14484C12.5829 3.18025 12.5898 3.21532 12.6034 3.24803C12.617 3.28075 12.6368 3.31047 12.6619 3.33551C12.6869 3.36055 12.7166 3.38041 12.7493 3.39395C12.7821 3.4075 12.8171 3.41447 12.8525 3.41447ZM10.6952 5.21222C10.7306 5.21222 10.7657 5.20525 10.7984 5.1917C10.8311 5.17815 10.8609 5.15829 10.8859 5.13325C10.9109 5.10821 10.9308 5.07848 10.9444 5.04576C10.9579 5.01304 10.9649 4.97798 10.9649 4.94256V4.583C10.9649 4.43403 10.8441 4.31334 10.6952 4.31334C10.5463 4.31334 10.4256 4.43403 10.4256 4.583V4.94256C10.4256 4.97798 10.4325 5.01304 10.4461 5.04576C10.4596 5.07848 10.4795 5.10821 10.5045 5.13325C10.5296 5.15829 10.5593 5.17815 10.592 5.1917C10.6247 5.20525 10.6598 5.21222 10.6952 5.21222ZM11.7739 5.21222C11.8093 5.21222 11.8444 5.20525 11.8771 5.1917C11.9098 5.17815 11.9395 5.15829 11.9646 5.13325C11.9896 5.10821 12.0095 5.07848 12.023 5.04576C12.0366 5.01304 12.0435 4.97798 12.0435 4.94256V4.583C12.0435 4.43403 11.9228 4.31334 11.7739 4.31334C11.625 4.31334 11.5042 4.43403 11.5042 4.583V4.94256C11.5042 4.97798 11.5112 5.01304 11.5247 5.04576C11.5383 5.07848 11.5581 5.10821 11.5832 5.13325C11.6082 5.15829 11.638 5.17815 11.6707 5.1917C11.7034 5.20525 11.7385 5.21222 11.7739 5.21222ZM12.8525 5.21222C12.8879 5.21222 12.923 5.20525 12.9557 5.1917C12.9884 5.17815 13.0182 5.15829 13.0432 5.13325C13.0683 5.10821 13.0881 5.07848 13.1017 5.04576C13.1152 5.01304 13.1222 4.97798 13.1222 4.94256V4.583C13.1222 4.43403 13.0014 4.31334 12.8525 4.31334C12.7036 4.31334 12.5829 4.43403 12.5829 4.583V4.94256C12.5829 4.97798 12.5898 5.01304 12.6034 5.04576C12.6169 5.07848 12.6368 5.10821 12.6618 5.13325C12.6869 5.15829 12.7166 5.17815 12.7493 5.1917C12.782 5.20525 12.8171 5.21222 12.8525 5.21222ZM10.6952 7.01C10.7306 7.01 10.7657 7.00303 10.7984 6.98948C10.8311 6.97593 10.8609 6.95607 10.8859 6.93103C10.9109 6.90599 10.9308 6.87626 10.9444 6.84354C10.9579 6.81082 10.9649 6.77576 10.9649 6.74034V6.38078C10.9649 6.23181 10.8441 6.11112 10.6952 6.11112C10.5463 6.11112 10.4256 6.23181 10.4256 6.38078V6.74034C10.4256 6.81186 10.454 6.88045 10.5045 6.93102C10.5551 6.98159 10.6237 7.01 10.6952 7.01ZM11.7739 7.01C11.8093 7.01 11.8444 7.00303 11.8771 6.98948C11.9098 6.97593 11.9395 6.95607 11.9646 6.93103C11.9896 6.90599 12.0095 6.87626 12.023 6.84354C12.0366 6.81082 12.0435 6.77576 12.0435 6.74034V6.38078C12.0435 6.23181 11.9228 6.11112 11.7739 6.11112C11.625 6.11112 11.5042 6.23181 11.5042 6.38078V6.74034C11.5042 6.81186 11.5326 6.88045 11.5832 6.93102C11.6338 6.98159 11.7024 7.01 11.7739 7.01ZM12.8525 7.01C12.8879 7.01 12.923 7.00303 12.9557 6.98948C12.9884 6.97593 13.0182 6.95607 13.0432 6.93103C13.0683 6.90599 13.0881 6.87626 13.1017 6.84354C13.1152 6.81082 13.1222 6.77576 13.1222 6.74034V6.38078C13.1222 6.23181 13.0014 6.11112 12.8525 6.11112C12.7036 6.11112 12.5829 6.23181 12.5829 6.38078V6.74034C12.5829 6.81186 12.6113 6.88045 12.6619 6.93102C12.7124 6.98159 12.781 7.01 12.8525 7.01ZM3.14466 7.72909C3.18007 7.7291 3.21514 7.72213 3.24785 7.70858C3.28057 7.69503 3.3103 7.67516 3.33534 7.65012C3.36038 7.62508 3.38024 7.59535 3.39379 7.56264C3.40734 7.52992 3.41432 7.49485 3.41431 7.45944V7.09987C3.41431 6.95091 3.29356 6.83022 3.14466 6.83022C2.99575 6.83022 2.875 6.95091 2.875 7.09987V7.45944C2.87501 7.53095 2.90342 7.59954 2.95399 7.6501C3.00456 7.70067 3.07314 7.72909 3.14466 7.72909ZM4.22331 7.72909C4.25872 7.7291 4.29379 7.72213 4.32651 7.70858C4.35923 7.69503 4.38896 7.67516 4.414 7.65012C4.43904 7.62508 4.4589 7.59535 4.47245 7.56264C4.486 7.52992 4.49297 7.49485 4.49297 7.45944V7.09987C4.49297 6.95091 4.37222 6.83022 4.22331 6.83022C4.07441 6.83022 3.95366 6.95091 3.95366 7.09987V7.45944C3.95366 7.53095 3.98207 7.59954 4.03264 7.65011C4.08321 7.70068 4.15179 7.72909 4.22331 7.72909ZM5.30197 7.72909C5.33738 7.7291 5.37245 7.72213 5.40517 7.70858C5.43788 7.69503 5.46761 7.67516 5.49265 7.65012C5.51769 7.62508 5.53756 7.59535 5.55111 7.56264C5.56466 7.52992 5.57163 7.49485 5.57162 7.45944V7.09987C5.57162 6.95091 5.45087 6.83022 5.30197 6.83022C5.15306 6.83022 5.03231 6.95091 5.03231 7.09987V7.45944C5.03231 7.53095 5.06072 7.59954 5.11129 7.65011C5.16186 7.70068 5.23045 7.72909 5.30197 7.72909ZM3.14466 9.52684C3.18007 9.52685 3.21514 9.51988 3.24785 9.50633C3.28057 9.49278 3.3103 9.47291 3.33534 9.44787C3.36038 9.42283 3.38024 9.3931 3.39379 9.36038C3.40734 9.32767 3.41432 9.2926 3.41431 9.25719V8.89762C3.41431 8.74866 3.29356 8.62797 3.14466 8.62797C2.99575 8.62797 2.875 8.74866 2.875 8.89762V9.25719C2.87501 9.3287 2.90342 9.39729 2.95399 9.44785C3.00456 9.49842 3.07314 9.52683 3.14466 9.52684ZM4.22331 9.52684C4.25872 9.52685 4.29379 9.51988 4.32651 9.50633C4.35923 9.49278 4.38896 9.47291 4.414 9.44787C4.43904 9.42283 4.4589 9.3931 4.47245 9.36038C4.486 9.32767 4.49297 9.2926 4.49297 9.25719V8.89762C4.49297 8.74866 4.37222 8.62797 4.22331 8.62797C4.07441 8.62797 3.95366 8.74866 3.95366 8.89762V9.25719C3.95366 9.3287 3.98207 9.39729 4.03264 9.44786C4.08321 9.49843 4.15179 9.52684 4.22331 9.52684ZM5.30197 9.52684C5.33738 9.52685 5.37245 9.51988 5.40517 9.50633C5.43788 9.49278 5.46761 9.47291 5.49265 9.44787C5.51769 9.42283 5.53756 9.3931 5.55111 9.36038C5.56466 9.32767 5.57163 9.2926 5.57162 9.25719V8.89762C5.57162 8.74866 5.45087 8.62797 5.30197 8.62797C5.15306 8.62797 5.03231 8.74866 5.03231 8.89762V9.25719C5.03231 9.3287 5.06072 9.39729 5.11129 9.44786C5.16186 9.49843 5.23045 9.52684 5.30197 9.52684ZM3.14466 11.3246C3.18007 11.3246 3.21514 11.3176 3.24785 11.3041C3.28057 11.2905 3.3103 11.2707 3.33534 11.2456C3.36038 11.2206 3.38024 11.1909 3.39379 11.1581C3.40734 11.1254 3.41432 11.0904 3.41431 11.0549V10.6954C3.41431 10.5464 3.29356 10.4257 3.14466 10.4257C2.99575 10.4257 2.875 10.5464 2.875 10.6954V11.0549C2.875 11.0903 2.88197 11.1254 2.89553 11.1581C2.90908 11.1908 2.92894 11.2206 2.95398 11.2456C2.97902 11.2707 3.00875 11.2905 3.04146 11.3041C3.07418 11.3176 3.10924 11.3246 3.14466 11.3246ZM4.22331 11.3246C4.25872 11.3246 4.29379 11.3176 4.32651 11.3041C4.35923 11.2905 4.38896 11.2707 4.414 11.2456C4.43904 11.2206 4.4589 11.1909 4.47245 11.1581C4.486 11.1254 4.49297 11.0904 4.49297 11.0549V10.6954C4.49297 10.5464 4.37222 10.4257 4.22331 10.4257C4.07441 10.4257 3.95366 10.5464 3.95366 10.6954V11.0549C3.95365 11.0904 3.96062 11.1254 3.97417 11.1581C3.98772 11.1909 4.00759 11.2206 4.03263 11.2456C4.05767 11.2707 4.0874 11.2905 4.12011 11.3041C4.15283 11.3176 4.1879 11.3246 4.22331 11.3246ZM5.30197 11.3246C5.33738 11.3246 5.37245 11.3176 5.40517 11.3041C5.43788 11.2905 5.46761 11.2707 5.49265 11.2456C5.51769 11.2206 5.53756 11.1909 5.55111 11.1581C5.56466 11.1254 5.57163 11.0904 5.57162 11.0549V10.6954C5.57162 10.5464 5.45087 10.4257 5.30197 10.4257C5.15306 10.4257 5.03231 10.5464 5.03231 10.6954V11.0549C5.03231 11.0904 5.03928 11.1254 5.05283 11.1581C5.06638 11.1909 5.08624 11.2206 5.11128 11.2456C5.13632 11.2707 5.16605 11.2905 5.19877 11.3041C5.23149 11.3176 5.26655 11.3246 5.30197 11.3246ZM3.14466 13.1223C3.18007 13.1223 3.21514 13.1154 3.24785 13.1018C3.28057 13.0883 3.3103 13.0684 3.33534 13.0434C3.36038 13.0183 3.38024 12.9886 3.39379 12.9559C3.40734 12.9232 3.41432 12.8881 3.41431 12.8527V12.4931C3.41431 12.3442 3.29356 12.2235 3.14466 12.2235C2.99575 12.2235 2.875 12.3442 2.875 12.4931V12.8527C2.875 12.9242 2.90341 12.9928 2.95398 13.0434C3.00455 13.0939 3.07314 13.1223 3.14466 13.1223ZM4.22331 13.1223C4.25872 13.1223 4.29379 13.1154 4.32651 13.1018C4.35923 13.0883 4.38896 13.0684 4.414 13.0434C4.43904 13.0183 4.4589 12.9886 4.47245 12.9559C4.486 12.9232 4.49297 12.8881 4.49297 12.8527V12.4931C4.49297 12.3442 4.37222 12.2235 4.22331 12.2235C4.07441 12.2235 3.95366 12.3442 3.95366 12.4931V12.8527C3.95365 12.8881 3.96062 12.9232 3.97417 12.9559C3.98772 12.9886 4.00759 13.0183 4.03263 13.0434C4.05767 13.0684 4.0874 13.0883 4.12011 13.1018C4.15283 13.1154 4.1879 13.1223 4.22331 13.1223ZM5.30197 13.1223C5.33738 13.1223 5.37245 13.1154 5.40517 13.1018C5.43788 13.0883 5.46761 13.0684 5.49265 13.0434C5.51769 13.0183 5.53756 12.9886 5.55111 12.9559C5.56466 12.9232 5.57163 12.8881 5.57162 12.8527V12.4931C5.57162 12.3442 5.45087 12.2235 5.30197 12.2235C5.15306 12.2235 5.03231 12.3442 5.03231 12.4931V12.8527C5.03231 12.8881 5.03928 12.9232 5.05283 12.9559C5.06638 12.9886 5.08624 13.0183 5.11128 13.0434C5.13632 13.0684 5.16605 13.0883 5.19877 13.1018C5.23149 13.1154 5.26655 13.1223 5.30197 13.1223ZM12.8525 8.80775C12.8879 8.80775 12.923 8.80078 12.9557 8.78723C12.9884 8.77368 13.0182 8.75382 13.0432 8.72878C13.0683 8.70374 13.0881 8.67401 13.1017 8.64129C13.1152 8.60857 13.1222 8.57351 13.1222 8.53809V8.17853C13.1222 8.02956 13.0014 7.90887 12.8525 7.90887C12.7036 7.90887 12.5829 8.02956 12.5829 8.17853V8.53809C12.5829 8.60961 12.6113 8.6782 12.6619 8.72877C12.7124 8.77934 12.781 8.80775 12.8525 8.80775ZM12.8525 10.6055C12.8879 10.6055 12.923 10.5985 12.9557 10.585C12.9884 10.5714 13.0182 10.5516 13.0432 10.5265C13.0683 10.5015 13.0881 10.4718 13.1017 10.439C13.1152 10.4063 13.1222 10.3713 13.1222 10.3358V9.97628C13.1222 9.82731 13.0014 9.70662 12.8525 9.70662C12.7036 9.70662 12.5829 9.82731 12.5829 9.97628V10.3358C12.5829 10.4074 12.6113 10.4759 12.6619 10.5265C12.7124 10.5771 12.781 10.6055 12.8525 10.6055ZM12.8525 12.4032C12.8879 12.4033 12.923 12.3963 12.9557 12.3827C12.9884 12.3692 13.0182 12.3493 13.0432 12.3243C13.0683 12.2992 13.0881 12.2695 13.1017 12.2368C13.1152 12.2041 13.1222 12.169 13.1222 12.1336V11.774C13.1222 11.6251 13.0014 11.5044 12.8525 11.5044C12.7036 11.5044 12.5829 11.6251 12.5829 11.774V12.1336C12.5829 12.169 12.5898 12.2041 12.6034 12.2368C12.6169 12.2695 12.6368 12.2992 12.6619 12.3243C12.6869 12.3493 12.7166 12.3692 12.7493 12.3827C12.7821 12.3963 12.8171 12.4032 12.8525 12.4032ZM12.8525 14.201C12.8879 14.201 12.923 14.194 12.9557 14.1805C12.9884 14.1669 13.0182 14.1471 13.0432 14.122C13.0683 14.097 13.0881 14.0673 13.1017 14.0345C13.1152 14.0018 13.1222 13.9668 13.1222 13.9313V13.5718C13.1222 13.4228 13.0014 13.3021 12.8525 13.3021C12.7036 13.3021 12.5829 13.4228 12.5829 13.5718V13.9313C12.5829 14.0029 12.6113 14.0714 12.6619 14.122C12.7124 14.1726 12.781 14.201 12.8525 14.201ZM8.08847 4.22347C8.08847 4.15195 8.06006 4.08336 8.00949 4.03279C7.95892 3.98222 7.89033 3.95381 7.81881 3.95381H5.6615C5.62609 3.95381 5.59102 3.96078 5.5583 3.97433C5.52558 3.98788 5.49585 4.00774 5.47081 4.03278C5.44577 4.05782 5.42591 4.08755 5.41236 4.12027C5.39881 4.15299 5.39184 4.18806 5.39184 4.22347C5.39184 4.29499 5.42025 4.36357 5.47082 4.41414C5.52139 4.46471 5.58998 4.49313 5.6615 4.49313H7.81881C7.85422 4.49313 7.88929 4.48616 7.92201 4.47261C7.95473 4.45906 7.98445 4.43919 8.0095 4.41415C8.03454 4.38911 8.0544 4.35938 8.06795 4.32667C8.0815 4.29395 8.08847 4.25888 8.08847 4.22347Z" fill="#005F89"/>
</g>
</g>
<defs>
<clipPath id="clip0_1833_16511">
<rect width="16" height="16" fill="white"/>
</clipPath>
</defs>
</svg>
