<svg width="65" height="64" viewBox="0 0 65 64" fill="none" xmlns="http://www.w3.org/2000/svg">
<g id="svgexport-16 (8) 1" clip-path="url(#clip0_1833_16691)">
<g id="Group">
<g id="Clip path group">
<mask id="mask0_1833_16691" style="mask-type:luminance" maskUnits="userSpaceOnUse" x="0" y="0" width="65" height="64">
<g id="a">
<path id="Vector" d="M0.5 0.00018692H64.4998V64H0.5V0.00018692Z" fill="white"/>
</g>
</mask>
<g mask="url(#mask0_1833_16691)">
<g id="Group_2">
<path id="Vector_2" d="M34.7165 12.5571C44.4815 13.6568 52.0709 21.9429 52.0709 32.0017C52.0709 42.8092 43.3098 51.5703 32.5023 51.5703C21.6948 51.5703 12.9336 42.8092 12.9336 32.0017C12.9336 21.9516 20.5099 13.6711 30.2627 12.5599" stroke="#006882" stroke-width="2" stroke-miterlimit="10" stroke-linecap="round" stroke-linejoin="round"/>
<path id="Vector_3" d="M36.0934 8.49443C36.7202 9.17549 37.5278 9.6643 38.4218 9.90386C39.3159 10.1434 40.2597 10.1238 41.143 9.84742C43.8681 8.99468 46.7401 10.6529 47.3643 13.4393C47.5665 14.3425 48.0214 15.1696 48.6759 15.8241C49.3304 16.4786 50.1575 16.9335 51.0607 17.1358C53.8471 17.7599 55.5054 20.6319 54.6526 23.357C54.3762 24.2404 54.3566 25.1841 54.5961 26.0782C54.8357 26.9723 55.3245 27.7798 56.0056 28.4066C58.1066 30.3402 58.1066 33.6565 56.0056 35.5902C55.3245 36.217 54.8357 37.0246 54.5961 37.9186C54.3566 38.8127 54.3762 39.7565 54.6526 40.6398C55.5054 43.3649 53.8471 46.2369 51.0607 46.8609C50.1575 47.0632 49.3304 47.5182 48.6759 48.1727C48.0214 48.8272 47.5665 49.6543 47.3643 50.5576C46.7401 53.3439 43.8681 55.002 41.143 54.1493C40.2597 53.8729 39.3159 53.8533 38.4218 54.0929C37.5278 54.3324 36.7202 54.8212 36.0934 55.5023C34.1598 57.6034 30.8434 57.6034 28.9098 55.5023C28.283 54.8212 27.4755 54.3324 26.5814 54.0929C25.6873 53.8533 24.7436 53.8729 23.8602 54.1493C21.1351 55.002 18.2631 53.3439 17.6391 50.5576C17.4368 49.6543 16.9818 48.8272 16.3273 48.1727C15.6728 47.5182 14.8457 47.0633 13.9425 46.8609C11.1561 46.2369 9.49787 43.3649 10.3507 40.6398C10.6271 39.7565 10.6467 38.8127 10.4071 37.9186C10.1675 37.0246 9.6787 36.217 8.99762 35.5902C6.89663 33.6565 6.89663 30.3402 8.99762 28.4066C9.6787 27.7798 10.1675 26.9723 10.4071 26.0782C10.6467 25.1841 10.6271 24.2404 10.3507 23.357C9.49787 20.6319 11.1561 17.7599 13.9425 17.1358C14.8457 16.9335 15.6728 16.4786 16.3273 15.8241C16.9819 15.1696 17.4368 14.3425 17.6391 13.4393C18.2631 10.6529 21.1351 8.99468 23.8602 9.84742C24.7436 10.1238 25.6873 10.1434 26.5814 9.90386C27.4755 9.6643 28.283 9.17549 28.9098 8.49443C30.8434 6.39331 34.1598 6.39331 36.0934 8.49443Z" stroke="#006882" stroke-width="2" stroke-miterlimit="10" stroke-linecap="round" stroke-linejoin="round"/>
<path id="Vector_4" d="M63.3024 0.939774L55.4609 8.78125" stroke="#006882" stroke-width="2" stroke-miterlimit="10" stroke-linecap="round" stroke-linejoin="round"/>
<path id="Vector_5" d="M49.7148 4.85938L50.7845 0.938637" stroke="#006882" stroke-width="2" stroke-miterlimit="10" stroke-linecap="round" stroke-linejoin="round"/>
<path id="Vector_6" d="M1.69922 0.935867L9.5407 8.77734" stroke="#006882" stroke-width="2" stroke-miterlimit="10" stroke-linecap="round" stroke-linejoin="round"/>
<path id="Vector_7" d="M5.61996 14.4414L1.69922 13.3718" stroke="#006882" stroke-width="2" stroke-miterlimit="10" stroke-linecap="round" stroke-linejoin="round"/>
<path id="Vector_8" d="M15.2884 4.85938L14.2188 0.938637" stroke="#006882" stroke-width="2" stroke-miterlimit="10" stroke-linecap="round" stroke-linejoin="round"/>
<path id="Vector_9" d="M63.3024 63.0625L55.4609 55.221" stroke="#006882" stroke-width="2" stroke-miterlimit="10" stroke-linecap="round" stroke-linejoin="round"/>
<path id="Vector_10" d="M49.7148 59.1418L50.7845 63.0625" stroke="#006882" stroke-width="2" stroke-miterlimit="10" stroke-linecap="round" stroke-linejoin="round"/>
<path id="Vector_11" d="M1.69922 63.0625L9.5407 55.221" stroke="#006882" stroke-width="2" stroke-miterlimit="10" stroke-linecap="round" stroke-linejoin="round"/>
<path id="Vector_12" d="M5.61996 49.5593L1.69922 50.6289" stroke="#006882" stroke-width="2" stroke-miterlimit="10" stroke-linecap="round" stroke-linejoin="round"/>
<path id="Vector_13" d="M15.2884 59.1418L14.2188 63.0625" stroke="#006882" stroke-width="2" stroke-miterlimit="10" stroke-linecap="round" stroke-linejoin="round"/>
<path id="Vector_14" d="M37.2019 35.6973L44.8945 28.0047C45.6627 27.2366 45.6627 25.9914 44.8945 25.2232L42.4769 22.8056C41.7088 22.0375 40.4634 22.0375 39.6953 22.8056L29.5007 33.0002L25.503 29.0025C24.7349 28.2344 23.4895 28.2344 22.7214 29.0025L20.1112 31.6127C19.3431 32.3808 19.3431 33.6262 20.1112 34.3942L26.7986 41.0817C28.1846 42.4676 30.4316 42.4676 31.8176 41.0817L34.123 38.7763" stroke="#006882" stroke-width="2" stroke-miterlimit="10" stroke-linecap="round" stroke-linejoin="round"/>
</g>
</g>
</g>
</g>
</g>
<defs>
<clipPath id="clip0_1833_16691">
<rect width="64" height="64" fill="white" transform="translate(0.5)"/>
</clipPath>
</defs>
</svg>
