<svg width="16" height="16" viewBox="0 0 16 16" fill="none" xmlns="http://www.w3.org/2000/svg">
<g id="svgexport-16 (20) 1" clip-path="url(#clip0_1769_7511)">
<g id="Group">
<path id="Vector" d="M14.9366 8.20729C14.9048 8.14283 14.8883 8.07192 14.8883 8.00006C14.8883 7.92819 14.9048 7.85729 14.9366 7.79283L15.5333 6.57205C15.8656 5.89234 15.6023 5.08219 14.934 4.72759L13.7337 4.09072C13.6701 4.05724 13.6151 4.00959 13.5729 3.95146C13.5306 3.89333 13.5023 3.82626 13.4901 3.75544L13.2554 2.41704C13.1246 1.67186 12.4353 1.17111 11.6864 1.27708L10.341 1.46739C10.2699 1.47768 10.1973 1.47147 10.129 1.44926C10.0606 1.42705 9.99831 1.38943 9.94682 1.3393L8.97023 0.394556C8.42645 -0.131503 7.57458 -0.131534 7.03084 0.394556L6.05422 1.33939C6.00272 1.38951 5.94039 1.42713 5.87205 1.44933C5.80371 1.47154 5.73118 1.47775 5.66006 1.46749L4.31466 1.27718C3.56545 1.17115 2.87639 1.67196 2.74567 2.41714L2.51092 3.75547C2.49872 3.82629 2.47041 3.89336 2.42818 3.9515C2.38594 4.00964 2.33091 4.05729 2.26733 4.09079L1.06703 4.72766C0.398719 5.08222 0.13547 5.89243 0.467718 6.57214L1.06443 7.79289C1.0962 7.85735 1.11272 7.92826 1.11272 8.00012C1.11272 8.07199 1.0962 8.14289 1.06443 8.20735L0.467687 9.4281C0.135439 10.1078 0.398687 10.918 1.067 11.2726L2.2673 11.9094C2.33089 11.9429 2.38592 11.9906 2.42817 12.0487C2.47041 12.1068 2.49872 12.1739 2.51092 12.2447L2.74567 13.5831C2.86467 14.2615 3.44636 14.7372 4.11488 14.7372C4.18073 14.7372 4.24754 14.7325 4.3147 14.723L5.66009 14.5327C5.73122 14.5224 5.80375 14.5286 5.8721 14.5508C5.94044 14.5731 6.00276 14.6107 6.05425 14.6608L7.03084 15.6056C7.30277 15.8686 7.65158 16.0001 8.00052 16.0001C8.34936 16.0001 8.69839 15.8686 8.9702 15.6056L9.94682 14.6608C10.0522 14.5589 10.1958 14.5123 10.341 14.5327L11.6864 14.723C12.4357 14.829 13.1246 14.3283 13.2554 13.5831L13.4901 12.2447C13.5023 12.1739 13.5307 12.1069 13.5729 12.0487C13.6151 11.9906 13.6702 11.9429 13.7337 11.9094L14.934 11.2726C15.6023 10.918 15.8656 10.1078 15.5333 9.42807L14.9366 8.20729ZM6.15487 3.84741C7.08774 3.84741 7.84671 4.60638 7.84671 5.53925C7.84671 6.47211 7.08774 7.23108 6.15487 7.23108C5.222 7.23108 4.46304 6.47211 4.46304 5.53925C4.46304 4.60638 5.222 3.84741 6.15487 3.84741ZM5.28163 11.3714C5.19153 11.4615 5.07344 11.5066 4.95538 11.5066C4.83732 11.5066 4.71919 11.4616 4.62913 11.3714C4.44895 11.1912 4.44895 10.8991 4.62913 10.7189L10.7194 4.62866C10.8995 4.44847 11.1917 4.44847 11.3719 4.62866C11.5521 4.80884 11.5521 5.101 11.3719 5.28118L5.28163 11.3714ZM9.8461 12.1527C8.91323 12.1527 8.15427 11.3938 8.15427 10.4609C8.15427 9.52803 8.91323 8.76907 9.8461 8.76907C10.779 8.76907 11.5379 9.52803 11.5379 10.4609C11.5379 11.3938 10.779 12.1527 9.8461 12.1527Z" fill="#009B34"/>
<path id="Vector_2" d="M9.84694 9.69122C9.42291 9.69122 9.07792 10.0362 9.07792 10.4602C9.07792 10.8842 9.42288 11.2292 9.84694 11.2292C10.271 11.2292 10.6159 10.8842 10.6159 10.4602C10.6159 10.0362 10.271 9.69122 9.84694 9.69122ZM6.15571 4.76953C5.73169 4.76953 5.38672 5.1145 5.38672 5.53853C5.38672 5.96256 5.73169 6.30755 6.15571 6.30755C6.57974 6.30755 6.92474 5.96259 6.92474 5.53853C6.92471 5.11453 6.57974 4.76953 6.15571 4.76953Z" fill="#009B34"/>
</g>
</g>
<defs>
<clipPath id="clip0_1769_7511">
<rect width="16" height="16" fill="white"/>
</clipPath>
</defs>
</svg>
