<svg width="65" height="64" viewBox="0 0 65 64" fill="none" xmlns="http://www.w3.org/2000/svg">
<g id="svgexport-16 (4) 1" clip-path="url(#clip0_1833_16661)">
<g id="Group">
<path id="Vector" d="M44.7788 44.8876C45.0268 44.8876 45.2647 44.7891 45.4401 44.6137C45.6155 44.4383 45.714 44.2004 45.714 43.9524V36.5801C45.714 36.4573 45.6898 36.3357 45.6428 36.2222C45.5958 36.1088 45.5269 36.0057 45.4401 35.9188C45.3533 35.832 45.2502 35.7631 45.1367 35.7161C45.0232 35.6691 44.9016 35.6449 44.7788 35.6449H43.203C42.955 35.6449 42.7171 35.7434 42.5417 35.9188C42.3663 36.0942 42.2678 36.3321 42.2678 36.5801C42.2678 36.8282 42.3663 37.0661 42.5417 37.2414C42.7171 37.4168 42.955 37.5154 43.203 37.5154H43.8435V43.9524C43.8435 44.0752 43.8677 44.1968 43.9147 44.3103C43.9617 44.4237 44.0306 44.5269 44.1175 44.6137C44.2043 44.7005 44.3074 44.7694 44.4209 44.8164C44.5343 44.8634 44.656 44.8876 44.7788 44.8876ZM21.277 43.2044C21.0828 43.3545 20.9554 43.5749 20.9222 43.818C20.889 44.0612 20.9527 44.3077 21.0996 44.5044C21.2465 44.701 21.4648 44.832 21.7074 44.8691C21.95 44.9063 22.1975 44.8466 22.3965 44.7029C22.4583 44.657 22.5173 44.6074 22.5759 44.5578C24.3168 43.0831 26.026 40.1873 25.2738 37.8293C25.1284 37.3738 24.8634 36.9689 24.5277 36.6308C23.9553 36.0544 23.1649 35.7239 22.3524 35.7239C20.661 35.7239 19.2852 37.0998 19.2852 38.7911C19.2852 40.4825 20.661 41.8584 22.3524 41.8584C22.3923 41.8584 22.4318 41.8569 22.4713 41.8554C21.8927 42.723 21.2983 43.1879 21.277 43.2044ZM22.3524 39.9876C21.6925 39.9876 21.1558 39.4509 21.1558 38.791C21.1558 38.1311 21.6927 37.5944 22.3524 37.5944C23.0122 37.5944 23.5489 38.1311 23.5489 38.791C23.5489 39.4509 23.0123 39.9876 22.3524 39.9876ZM26.8819 38.411V41.8204C26.8819 43.5116 28.2578 44.8876 29.949 44.8876C31.6403 44.8876 33.0162 43.5118 33.0162 41.8204V38.411C33.0162 36.7197 31.6403 35.3438 29.949 35.3438C28.2578 35.3438 26.8819 36.7197 26.8819 38.411ZM31.1455 38.411V41.8204C31.1455 42.4803 30.6088 43.017 29.949 43.017C29.2893 43.017 28.7525 42.4803 28.7525 41.8204V38.411C28.7525 37.7511 29.2893 37.2144 29.949 37.2144C30.6088 37.2144 31.1455 37.7512 31.1455 38.411ZM34.5592 38.411V41.8204C34.5592 43.5116 35.935 44.8876 37.6263 44.8876C39.3177 44.8876 40.6935 43.5118 40.6935 41.8204V38.411C40.6935 36.7197 39.3177 35.3438 37.6263 35.3438C35.935 35.3439 34.5592 36.7197 34.5592 38.411ZM38.8229 38.411V41.8204C38.8229 42.4803 38.286 43.017 37.6263 43.017C36.9664 43.017 36.4298 42.4803 36.4298 41.8204V38.411C36.4298 37.7511 36.9665 37.2144 37.6263 37.2144C38.2862 37.2145 38.8229 37.7512 38.8229 38.411Z" fill="#006882"/>
<path id="Vector_2" d="M61.1646 38.3399C63.2531 36.9024 64.5 34.5322 64.5 32C64.5 29.4678 63.2531 27.0976 61.1647 25.6601C60.7723 25.3921 60.4889 24.9924 60.3659 24.5334C60.2429 24.0743 60.2885 23.5864 60.4944 23.1581C61.0313 22.0316 61.2862 20.7913 61.2372 19.5443C61.1881 18.2973 60.8366 17.0809 60.2129 16C59.5886 14.9194 58.7109 14.0068 57.6555 13.3409C56.6001 12.6749 55.3986 12.2755 54.1545 12.1771C53.6807 12.1413 53.2354 11.9368 52.8994 11.6008C52.5634 11.2648 52.3589 10.8196 52.323 10.3457C52.3116 10.2026 52.2962 10.0599 52.277 9.91763C52.2605 9.7959 52.2202 9.67861 52.1584 9.57245C52.0966 9.4663 52.0145 9.37336 51.9168 9.29894C51.819 9.22452 51.7076 9.17008 51.5888 9.13872C51.4701 9.10736 51.3463 9.09971 51.2246 9.11619C50.9787 9.14947 50.7562 9.27905 50.6059 9.47642C50.5315 9.57415 50.477 9.68558 50.4457 9.80435C50.4143 9.92312 50.4066 10.0469 50.4231 10.1686C50.438 10.2781 50.4497 10.3874 50.4582 10.4937C50.6095 12.3984 52.1017 13.8907 54.0065 14.042C55.9201 14.194 57.6348 15.2756 58.593 16.9354C59.5512 18.5951 59.6306 20.6209 58.8055 22.3541C57.9841 24.0792 58.5304 26.1178 60.1043 27.201C61.6855 28.2894 62.6296 30.0835 62.6296 32C62.6296 33.9165 61.6855 35.7106 60.1041 36.799C58.5304 37.8822 57.9842 39.9207 58.8055 41.6459C59.212 42.4987 59.405 43.4375 59.368 44.3815C59.331 45.3255 59.065 46.2463 58.593 47.0646C58.1203 47.8826 57.4559 48.5734 56.6569 49.0774C55.8579 49.5815 54.9483 49.8837 54.0065 49.958C52.1016 50.1094 50.6095 51.6016 50.4582 53.5062C50.3061 55.42 49.2245 57.1346 47.5648 58.0928C46.7465 58.5648 45.8257 58.8309 44.8817 58.8679C43.9377 58.9049 42.9989 58.7119 42.1461 58.3054C40.4211 57.4837 38.3826 58.0304 37.2993 59.6041C36.2108 61.1854 34.4168 62.1295 32.5003 62.1295C30.5838 62.1295 28.7897 61.1854 27.7013 59.6041C26.618 58.0304 24.5796 57.4841 22.8544 58.3054C22.0016 58.7119 21.0628 58.905 20.1188 58.868C19.1748 58.8309 18.254 58.5649 17.4357 58.0928C16.6178 57.6201 15.927 56.9557 15.4229 56.1567C14.9188 55.3577 14.6166 54.4481 14.5422 53.5064C14.391 51.6017 12.8989 50.1094 10.994 49.958C9.08038 49.806 7.36575 48.7244 6.4075 47.0646C5.44925 45.4049 5.36987 43.3791 6.195 41.6459C7.01638 39.9207 6.47012 37.8822 4.89625 36.799C3.315 35.7106 2.37088 33.9165 2.37088 32C2.37088 30.0835 3.315 28.2894 4.89638 27.201C6.47013 26.1178 7.01625 24.0792 6.195 22.3541C5.78852 21.5013 5.59547 20.5625 5.63249 19.6185C5.6695 18.6745 5.93548 17.7537 6.4075 16.9354C6.88016 16.1174 7.54462 15.4266 8.34363 14.9226C9.14263 14.4185 10.0522 14.1163 10.994 14.042C12.8988 13.8907 14.391 12.3985 14.5422 10.4939C14.6944 8.58012 15.776 6.8655 17.4357 5.90725C18.254 5.43519 19.1749 5.16919 20.1188 5.13217C21.0628 5.09515 22.0016 5.28822 22.8544 5.69475C24.5798 6.516 26.618 5.96975 27.7013 4.396C28.7897 2.81475 30.5838 1.87063 32.5003 1.87063C34.4168 1.87063 36.2108 2.81475 37.2993 4.396C38.3825 5.96962 40.4209 6.516 42.1461 5.69475C42.9989 5.2882 43.9377 5.09512 44.8817 5.13214C45.8256 5.16916 46.7465 5.43517 47.5648 5.90725C48.0404 6.18133 48.4749 6.52119 48.8555 6.91675C49.0285 7.09032 49.2628 7.18906 49.5079 7.19171C49.753 7.19437 49.9893 7.10073 50.1661 6.93094C50.3428 6.76116 50.4459 6.52878 50.4531 6.28379C50.4603 6.0388 50.3711 5.80077 50.2046 5.62087C49.7021 5.09822 49.1282 4.64919 48.5 4.28713C47.4191 3.66343 46.2027 3.31192 44.9557 3.26288C43.7088 3.21384 42.4686 3.46874 41.342 4.00562C40.9137 4.21152 40.4258 4.25711 39.9668 4.13412C39.5077 4.01113 39.108 3.72771 38.84 3.33525C37.4024 1.24687 35.0321 0 32.5 0C29.9679 0 27.5976 1.24687 26.1601 3.33525C25.8921 3.7276 25.4923 4.01095 25.0333 4.13393C24.5743 4.25691 24.0864 4.21139 23.6581 4.00562C21.3691 2.916 18.6933 3.021 16.5001 4.28713C14.3073 5.55313 12.8781 7.81787 12.6772 10.3456C12.6414 10.8195 12.4369 11.2647 12.1009 11.6007C11.7649 11.9368 11.3196 12.1412 10.8457 12.1771C8.31825 12.378 6.05338 13.8071 4.78713 16C3.521 18.193 3.41587 20.869 4.50562 23.1581C4.71146 23.5864 4.75702 24.0743 4.63406 24.5333C4.5111 24.9923 4.22775 25.3921 3.83538 25.6601C1.74688 27.0976 0.5 29.4678 0.5 32C0.5 34.5322 1.74687 36.9024 3.83525 38.3399C4.22769 38.6079 4.51109 39.0076 4.63408 39.4666C4.75707 39.9257 4.7115 40.4136 4.50562 40.8419C3.96871 41.9684 3.71379 43.2087 3.76283 44.4557C3.81187 45.7027 4.1634 46.9191 4.78713 48C6.05338 50.193 8.31812 51.622 10.8455 51.8229C11.3194 51.8587 11.7647 52.0632 12.1007 52.3993C12.4367 52.7353 12.6412 53.1806 12.677 53.6545C12.878 56.1821 14.3071 58.4469 16.4999 59.7127C18.6927 60.979 21.3689 61.0841 23.6579 59.9943C24.0862 59.7884 24.5741 59.7429 25.0331 59.8659C25.4921 59.9889 25.8918 60.2722 26.1599 60.6646C27.5976 62.7531 29.9679 64 32.5 64C35.0321 64 37.4024 62.7531 38.8399 60.6647C39.1079 60.2724 39.5077 59.9891 39.9667 59.8661C40.4257 59.7431 40.9135 59.7886 41.3419 59.9944C42.4684 60.5312 43.7086 60.7861 44.9556 60.7371C46.2026 60.688 47.419 60.3365 48.4999 59.7129C50.6927 58.4469 52.1219 56.1821 52.3228 53.6544C52.3586 53.1805 52.5631 52.7353 52.8991 52.3993C53.2351 52.0632 53.6804 51.8588 54.1543 51.8229C56.6816 51.6221 58.9465 50.193 60.2126 48C61.4787 45.807 61.5839 43.131 60.4941 40.8419C60.2883 40.4135 60.2428 39.9257 60.3658 39.4666C60.4888 39.0076 60.7722 38.6079 61.1646 38.3399Z" fill="#006882"/>
<path id="Vector_3" d="M12.2611 39.5802C12.1481 39.6284 12.0458 39.6983 11.9599 39.7861C11.8739 39.8739 11.8061 39.9777 11.7603 40.0917C11.7145 40.2057 11.6917 40.3276 11.693 40.4504C11.6943 40.5732 11.7198 40.6946 11.768 40.8075C13.4984 44.8723 16.3867 48.338 20.0729 50.7729C23.7591 53.2077 28.0804 54.504 32.4981 54.5002C44.9209 54.5002 55.0275 44.3935 55.0275 31.9708C55.0275 19.548 44.9209 9.44141 32.4981 9.44141C20.0754 9.44141 9.96875 19.548 9.96875 31.9708C9.96875 33.4919 10.1214 35.0125 10.4222 36.4902C10.4725 36.7325 10.6167 36.9451 10.8234 37.0813C11.03 37.2175 11.2823 37.2663 11.5248 37.2169C11.7673 37.1675 11.9804 37.024 12.1173 36.8178C12.2543 36.6117 12.3039 36.3596 12.2554 36.1169C11.9783 34.7523 11.839 33.3633 11.8394 31.9708C11.8394 20.5795 21.1069 11.312 32.4983 11.312C43.8896 11.312 53.1571 20.5795 53.1571 31.9708C53.1571 43.362 43.8895 52.6297 32.4981 52.6297C28.447 52.6331 24.4844 51.4444 21.1041 49.2117C17.7238 46.9789 15.0753 43.8008 13.4885 40.0734C13.3911 39.8453 13.2071 39.6651 12.9769 39.5726C12.7468 39.4801 12.4893 39.4828 12.2611 39.5802Z" fill="#006882"/>
<path id="Vector_4" d="M22.0071 29.4265V19.9866C22.0071 19.7385 21.9085 19.5006 21.7331 19.3252C21.5577 19.1498 21.3198 19.0513 21.0717 19.0513C20.8237 19.0513 20.5858 19.1498 20.4104 19.3252C20.235 19.5006 20.1364 19.7385 20.1364 19.9866V29.4265C20.1364 29.6745 20.235 29.9124 20.4104 30.0878C20.5858 30.2632 20.8237 30.3618 21.0717 30.3618C21.3198 30.3618 21.5577 30.2632 21.7331 30.0878C21.9085 29.9124 22.0071 29.6745 22.0071 29.4265ZM28.3817 28.4911C27.3757 28.4911 26.4051 28.0828 25.7852 27.399C25.7027 27.3079 25.6031 27.2341 25.4921 27.1816C25.381 27.129 25.2607 27.0989 25.1381 27.0929C25.0154 27.0869 24.8927 27.1051 24.7771 27.1464C24.6614 27.1878 24.5551 27.2516 24.4641 27.3341C24.2803 27.5007 24.1702 27.7334 24.158 27.9812C24.1458 28.2289 24.2325 28.4714 24.3991 28.6552C25.3674 29.7237 26.8563 30.3617 28.3817 30.3617C30.2222 30.3617 31.8263 29.1507 32.1132 27.5448C32.3307 26.3262 31.7651 24.7296 29.5252 23.9033C28.3261 23.461 27.2126 22.9785 26.9141 22.8475C26.6464 22.6468 26.5169 22.3295 26.5663 21.9862C26.6301 21.5425 26.9748 21.1852 27.4887 21.0303C28.9532 20.5893 30.2827 21.6521 30.3123 21.6761C30.503 21.832 30.7475 21.9064 30.9927 21.8831C31.2379 21.8599 31.464 21.7409 31.622 21.5519C31.78 21.3629 31.857 21.1193 31.8365 20.8739C31.8159 20.6284 31.6994 20.401 31.5122 20.241C31.4272 20.1696 29.4023 18.5 26.9492 19.2392C25.7382 19.604 24.8819 20.5548 24.7146 21.7205C24.5584 22.8082 25.0297 23.8545 25.9444 24.4507C25.9857 24.4776 26.0291 24.5012 26.0742 24.5213C26.9973 24.9279 27.9323 25.3071 28.8778 25.6583C29.8748 26.0261 30.3828 26.5938 30.2718 27.216C30.1598 27.8428 29.4223 28.4911 28.3817 28.4911ZM44.8599 24.7065C44.8599 21.5882 42.3231 19.0512 39.2047 19.0512C36.0863 19.0512 33.5493 21.5882 33.5493 24.7065C33.5493 27.8247 36.0863 30.3617 39.2047 30.3617C42.3231 30.3617 44.8599 27.8248 44.8599 24.7065ZM35.4201 24.7065C35.4201 22.6196 37.1178 20.9218 39.2048 20.9218C41.2916 20.9218 42.9894 22.6196 42.9894 24.7065C42.9894 26.7933 41.2917 28.4911 39.2048 28.4911C37.1178 28.4911 35.4201 26.7933 35.4201 24.7065ZM15.6953 32.805C15.6953 33.053 15.7938 33.2909 15.9692 33.4663C16.1446 33.6417 16.3825 33.7402 16.6306 33.7402H48.3657C48.8823 33.7402 49.3009 33.3215 49.3009 32.805C49.3009 32.2885 48.8823 31.8697 48.3657 31.8697H16.6307C16.5079 31.8697 16.3862 31.8939 16.2727 31.9409C16.1593 31.9879 16.0561 32.0567 15.9693 32.1436C15.8824 32.2304 15.8135 32.3335 15.7665 32.447C15.7195 32.5605 15.6953 32.6821 15.6953 32.805Z" fill="#006882"/>
</g>
</g>
<defs>
<clipPath id="clip0_1833_16661">
<rect width="64" height="64" fill="white" transform="translate(0.5)"/>
</clipPath>
</defs>
</svg>
