<svg width="32" height="32" viewBox="0 0 32 32" fill="none" xmlns="http://www.w3.org/2000/svg">
<g id="svgexport-16 (16)" clip-path="url(#clip0_1764_6051)">
<g id="Group">
<path id="Vector" d="M19.75 27.0703V29.1891C19.75 30.7452 18.4938 32.0016 16.9375 32.0016H15.0625C13.5062 32.0016 12.25 30.7452 12.25 29.1891V27.0703C12.25 26.5452 12.6624 26.0703 13.1875 26.0703H18.8125C19.3376 26.0703 19.75 26.5452 19.75 27.0703Z" fill="#FEA832"/>
<path id="Vector_2" d="M19.75 27.0703V29.1891C19.75 30.7452 18.4938 32.0016 16.9375 32.0016H16V26.0703H18.8125C19.3376 26.0703 19.75 26.5452 19.75 27.0703Z" fill="#FE9923"/>
<path id="Vector_3" d="M15.9994 7.5625C15.3244 7.5625 14.6495 7.63744 13.9744 7.80625C10.9744 8.5 8.55573 10.8812 7.82442 13.8625C7.09317 16.8624 7.93692 19.8999 10.0931 22.0187C10.8619 22.7875 11.3119 23.9312 11.3119 25.1688V25.375C11.3119 26.9312 12.5681 28.25 14.1244 28.25H17.8744C19.4307 28.25 20.6869 26.9312 20.6869 25.375V25.1688C20.6869 23.9499 21.1557 22.7687 21.9807 21.9624C23.5557 20.3687 24.4369 18.25 24.4369 16C24.4369 11.2749 20.612 7.5625 15.9994 7.5625Z" fill="#FEDB41"/>
<path id="Vector_4" d="M24.4375 16C24.4375 18.25 23.5563 20.3687 21.9813 21.9625C21.1563 22.7687 20.6875 23.95 20.6875 25.1688V25.375C20.6875 26.9312 19.4313 28.25 17.875 28.25H16V7.5625C20.6126 7.5625 24.4375 11.2749 24.4375 16Z" fill="#FFCC33"/>
<path id="Vector_5" d="M7.38212 8.70873L4.73075 6.05736C4.36456 5.69117 4.36456 5.09786 4.73075 4.73167C5.09694 4.36548 5.69025 4.36548 6.05644 4.73167L8.70781 7.38305C9.074 7.74923 9.074 8.34255 8.70781 8.70873C8.34163 9.07498 7.74837 9.07498 7.38212 8.70873ZM4.75 16.9384H0.9375C0.419312 16.9384 0 16.5191 0 16.0009C0 15.4827 0.419312 15.0634 0.9375 15.0634H4.75C5.26819 15.0634 5.6875 15.4827 5.6875 16.0009C5.6875 16.5191 5.26819 16.9384 4.75 16.9384Z" fill="#FEA832"/>
<path id="Vector_6" d="M31.0606 16.9384H27.2481C26.7299 16.9384 26.3106 16.5191 26.3106 16.0009C26.3106 15.4827 26.7299 15.0634 27.2481 15.0634H31.0606C31.5788 15.0634 31.9981 15.4827 31.9981 16.0009C31.9981 16.5191 31.5788 16.9384 31.0606 16.9384ZM23.2903 8.70873C22.9241 8.34255 22.9241 7.74923 23.2903 7.38305L25.9416 4.73167C26.3078 4.36548 26.9011 4.36548 27.2673 4.73167C27.6335 5.09786 27.6335 5.69117 27.2673 6.05736L24.616 8.70873C24.2497 9.07498 23.6565 9.07498 23.2903 8.70873Z" fill="#FE9923"/>
<path id="Vector_7" d="M16.9375 0.9375V4.75C16.9375 5.27494 16.5251 5.6875 16 5.6875C15.4749 5.6875 15.0625 5.27494 15.0625 4.75V0.9375C15.0625 0.412437 15.4749 0 16 0C16.5251 0 16.9375 0.412437 16.9375 0.9375Z" fill="#FEA832"/>
<path id="Vector_8" d="M16.9375 0.9375V4.75C16.9375 5.27494 16.5251 5.6875 16 5.6875V0C16.5251 0 16.9375 0.412437 16.9375 0.9375Z" fill="#FE9923"/>
</g>
</g>
<defs>
<clipPath id="clip0_1764_6051">
<rect width="32" height="32" fill="white"/>
</clipPath>
</defs>
</svg>
