<svg width="65" height="64" viewBox="0 0 65 64" fill="none" xmlns="http://www.w3.org/2000/svg">
<g id="svgexport-16 (9) 1" clip-path="url(#clip0_1833_16672)">
<g id="Group">
<path id="Vector" d="M58.8001 11.0514C49.9945 8.63864 41.1371 4.88177 33.1855 0.187032C32.9782 0.064589 32.7419 0 32.5011 0C32.2604 0 32.024 0.064589 31.8168 0.187032C23.6358 5.01665 15.257 8.57027 6.20144 11.0514C5.91684 11.1293 5.66574 11.2987 5.48678 11.5333C5.30781 11.7679 5.21089 12.0548 5.21094 12.3499V26.1056C5.21094 40.271 11.7458 49.6474 17.228 55.0188C23.13 60.8019 30.005 64 32.5011 64C34.997 64 41.872 60.8019 47.774 55.0188C53.2561 49.6476 59.7906 40.2711 59.7906 26.1056V12.3498C59.7906 11.7433 59.3851 11.2115 58.8001 11.0514ZM57.0981 26.1055C57.0981 39.3358 51.003 48.0852 45.8895 53.0954C40.0856 58.7823 33.8803 61.3073 32.5011 61.3073C31.122 61.3073 24.9163 58.7823 19.1123 53.0954C13.9989 48.0851 7.90356 39.3358 7.90356 26.1055V13.3718C16.5633 10.913 24.628 7.48164 32.5014 2.90628C40.1781 7.36027 48.6452 10.9623 57.0981 13.3713V26.1055Z" fill="#006882"/>
<path id="Vector_2" d="M20.5693 13.219C20.2968 12.5271 19.5152 12.1872 18.8232 12.4598C16.4091 13.4107 13.9619 14.2754 11.4863 15.0525C11.2128 15.1383 10.9739 15.3091 10.8042 15.5401C10.6345 15.7712 10.543 16.0503 10.543 16.337V21.5358C10.543 22.2793 11.1458 22.8821 11.8892 22.8821C12.6326 22.8821 13.2355 22.2793 13.2355 21.5358V17.3208C15.451 16.6039 17.6436 15.8182 19.8102 14.9648C20.5021 14.6925 20.842 13.9108 20.5693 13.219ZM23.1267 13.4743C23.3073 13.4743 23.4907 13.438 23.6666 13.3612L23.6913 13.3505C24.3725 13.052 24.6792 12.2591 24.3807 11.5782C24.082 10.8971 23.2846 10.589 22.6042 10.8872L22.5825 10.8966C21.901 11.1942 21.5932 11.9865 21.8908 12.6677C22.1117 13.1735 22.6073 13.4743 23.1267 13.4743ZM48.5423 43.4082C47.9202 43.0016 47.086 43.1765 46.6788 43.7988C45.5695 45.4968 44.268 47.1228 42.81 48.6312C41.6108 49.8717 40.3199 51.0201 38.9483 52.0668C38.3572 52.5176 38.2435 53.3623 38.6941 53.9537C38.8197 54.1187 38.9818 54.2524 39.1677 54.3444C39.3536 54.4363 39.5582 54.4841 39.7656 54.4838C40.0503 54.4838 40.3372 54.394 40.581 54.208C42.0601 53.079 43.4522 51.8405 44.7456 50.5027C46.322 48.8722 47.7307 47.1122 48.933 45.2716C49.3398 44.6491 49.1647 43.8148 48.5423 43.4082ZM35.8218 54.1782L35.7446 54.2237C35.1012 54.5963 34.8813 55.4198 35.2538 56.0632C35.3423 56.2163 35.4601 56.3504 35.6005 56.4579C35.7409 56.5654 35.9011 56.6442 36.0719 56.6897C36.2428 56.7353 36.4209 56.7467 36.5962 56.7234C36.7714 56.7 36.9404 56.6424 37.0933 56.5537L37.1825 56.5013C37.8241 56.1256 38.0396 55.301 37.6638 54.6593C37.2878 54.018 36.4631 53.8028 35.8218 54.1782ZM23.3257 29.2502C22.4991 28.4235 21.3997 27.9685 20.2305 27.9685C19.0612 27.9685 17.9617 28.4236 17.1347 29.2502C15.4281 30.9572 15.4281 33.7347 17.1347 35.4416L25.0842 43.3908C25.911 44.2173 27.0103 44.6725 28.1797 44.6725C29.3491 44.6725 30.4485 44.2173 31.2753 43.3906L47.8705 26.7953C49.577 25.088 49.577 22.3108 47.8702 20.6045C47.0435 19.7777 45.9441 19.3227 44.7746 19.3227C43.6052 19.3227 42.5058 19.7778 41.679 20.6045L28.1796 34.1038L23.3257 29.2502ZM43.583 22.5085C43.7391 22.3515 43.9249 22.2271 44.1294 22.1425C44.334 22.0578 44.5533 22.0146 44.7747 22.0152C45.2252 22.0152 45.6482 22.1903 45.9666 22.5085C46.6235 23.1653 46.6235 24.2346 45.9663 24.8917L29.3715 41.4867C29.0533 41.8048 28.63 41.98 28.1797 41.98C27.7295 41.98 27.3061 41.8048 26.9878 41.4867L19.0386 33.5377C18.3815 32.8806 18.3815 31.8113 19.0383 31.1545C19.3566 30.8363 19.78 30.661 20.2303 30.661C20.6807 30.661 21.1038 30.8361 21.422 31.1542L27.2276 36.96C27.4802 37.2123 27.8225 37.3542 28.1796 37.3542C28.5367 37.3542 28.879 37.2125 29.1313 36.96L43.583 22.5085Z" fill="#006882"/>
</g>
</g>
<defs>
<clipPath id="clip0_1833_16672">
<rect width="64" height="64" fill="white" transform="translate(0.5)"/>
</clipPath>
</defs>
</svg>
