<svg width="16" height="17" viewBox="0 0 16 17" fill="none" xmlns="http://www.w3.org/2000/svg">
<g id="uil:location-point">
<path id="Vector" d="M12.0006 3.48693C10.9397 2.42607 9.5009 1.83008 8.0006 1.83008C6.50031 1.83008 5.06147 2.42607 4.0006 3.48693C2.93974 4.5478 2.34375 5.98664 2.34375 7.48693C2.34375 8.98722 2.93974 10.4261 4.0006 11.4869L7.51394 15.0069C7.57591 15.0694 7.64965 15.119 7.73089 15.1529C7.81213 15.1867 7.89926 15.2041 7.98727 15.2041C8.07528 15.2041 8.16242 15.1867 8.24366 15.1529C8.32489 15.119 8.39863 15.0694 8.4606 15.0069L12.0006 11.4536C13.057 10.3971 13.6505 8.9643 13.6505 7.47027C13.6505 5.97623 13.057 4.54338 12.0006 3.48693ZM11.0473 10.5003L8.0006 13.5603L4.95394 10.5003C4.35203 9.89781 3.94226 9.13043 3.7764 8.29513C3.61055 7.45982 3.69606 6.5941 4.02214 5.80739C4.34822 5.02068 4.90022 4.3483 5.60836 3.87525C6.3165 3.4022 7.14899 3.14972 8.0006 3.14972C8.85221 3.14972 9.68471 3.4022 10.3929 3.87525C11.101 4.3483 11.653 5.02068 11.9791 5.80739C12.3051 6.5941 12.3907 7.45982 12.2248 8.29513C12.059 9.13043 11.6492 9.89781 11.0473 10.5003ZM6.0006 5.44027C5.46241 5.98011 5.1602 6.71131 5.1602 7.4736C5.1602 8.23589 5.46241 8.96708 6.0006 9.50693C6.40044 9.90746 6.90966 10.181 7.46437 10.2932C8.01908 10.4054 8.59457 10.3513 9.11865 10.1377C9.64273 9.92408 10.0921 9.56045 10.4103 9.09243C10.7285 8.62441 10.9014 8.07285 10.9073 7.50693C10.9103 7.12907 10.8375 6.75444 10.6932 6.40519C10.5489 6.05594 10.3361 5.73917 10.0673 5.4736C9.80305 5.20332 9.48799 4.98796 9.14022 4.83991C8.79245 4.69186 8.41883 4.61405 8.04087 4.61095C7.66291 4.60785 7.28807 4.67953 6.93792 4.82186C6.58777 4.96419 6.26922 5.17435 6.0006 5.44027ZM9.12727 8.56027C8.87463 8.81676 8.54074 8.97754 8.18269 9.0151C7.82463 9.05267 7.46465 8.96469 7.16428 8.76622C6.8639 8.56774 6.6418 8.27109 6.53594 7.92699C6.43008 7.58288 6.44704 7.21269 6.58391 6.8797C6.72078 6.54671 6.96907 6.27161 7.28633 6.10142C7.60358 5.93124 7.97011 5.87654 8.32323 5.94668C8.67635 6.01682 8.99414 6.20744 9.22228 6.48595C9.45041 6.76447 9.57471 7.11358 9.57394 7.4736C9.56424 7.88511 9.3916 8.27595 9.09394 8.56027H9.12727Z" fill="#005F89"/>
</g>
</svg>
