<svg width="16" height="17" viewBox="0 0 16 17" fill="none" xmlns="http://www.w3.org/2000/svg">
<g id="svgexport-7 (65) 1">
<g id="Group">
<path id="Vector" d="M4.1688 8.35352C3.71127 8.35352 3.26401 8.48919 2.88358 8.74338C2.50316 8.99758 2.20665 9.35887 2.03156 9.78157C1.85647 10.2043 1.81066 10.6694 1.89992 11.1182C1.98918 11.5669 2.2095 11.9791 2.53303 12.3026C2.85655 12.6261 3.26875 12.8465 3.71749 12.9357C4.16624 13.025 4.63137 12.9792 5.05408 12.8041C5.47678 12.629 5.83808 12.3325 6.09227 11.9521C6.34646 11.5716 6.48214 11.1244 6.48214 10.6668C6.48214 10.3631 6.4223 10.0622 6.30604 9.78157C6.18979 9.50091 6.01939 9.24589 5.80458 9.03108C5.58976 8.81626 5.33474 8.64586 5.05408 8.52961C4.77341 8.41335 4.47259 8.35352 4.1688 8.35352ZM4.1688 12.3135C3.84312 12.3135 3.52476 12.2169 3.25396 12.036C2.98317 11.8551 2.77211 11.5979 2.64748 11.297C2.52285 10.9961 2.49024 10.665 2.55378 10.3456C2.61731 10.0262 2.77414 9.73277 3.00443 9.50248C3.23472 9.27219 3.52813 9.11536 3.84755 9.05182C4.16698 8.98829 4.49807 9.0209 4.79896 9.14553C5.09984 9.27016 5.35702 9.48122 5.53796 9.75201C5.71889 10.0228 5.81547 10.3412 5.81547 10.6668C5.81028 11.102 5.63512 11.5178 5.32743 11.8255C5.01974 12.1332 4.60391 12.3083 4.1688 12.3135ZM11.8355 8.35352C11.3779 8.35352 10.9307 8.48919 10.5503 8.74338C10.1698 8.99758 9.87332 9.35887 9.69823 9.78157C9.52314 10.2043 9.47733 10.6694 9.56659 11.1182C9.65585 11.5669 9.87617 11.9791 10.1997 12.3026C10.5232 12.6261 10.9354 12.8465 11.3842 12.9357C11.8329 13.025 12.298 12.9792 12.7207 12.8041C13.1435 12.629 13.5047 12.3325 13.7589 11.9521C14.0131 11.5716 14.1488 11.1244 14.1488 10.6668C14.1488 10.0533 13.9051 9.46491 13.4712 9.03108C13.0374 8.59724 12.449 8.35352 11.8355 8.35352ZM11.8355 12.3135C11.5098 12.3135 11.1914 12.2169 10.9206 12.036C10.6498 11.8551 10.4388 11.5979 10.3141 11.297C10.1895 10.9961 10.1569 10.665 10.2204 10.3456C10.284 10.0262 10.4408 9.73277 10.6711 9.50248C10.9014 9.27219 11.1948 9.11536 11.5142 9.05182C11.8336 8.98829 12.1647 9.0209 12.4656 9.14553C12.7665 9.27016 13.0237 9.48122 13.2046 9.75201C13.3856 10.0228 13.4821 10.3412 13.4821 10.6668C13.4769 11.102 13.3018 11.5178 12.9941 11.8255C12.6864 12.1332 12.2706 12.3083 11.8355 12.3135Z" fill="#005F89"/>
<path id="Vector_2" d="M15.0014 9.16602L12.968 5.01935C12.9385 4.96153 12.8935 4.91306 12.838 4.87935L12.6014 4.73602L12.5014 4.67935L12.258 4.07602C12.1521 3.80849 11.9685 3.57881 11.7309 3.41661C11.4932 3.25442 11.2124 3.16713 10.9247 3.16602C10.5903 3.16696 10.2664 3.28319 10.0078 3.49511C9.74909 3.70703 9.57141 4.00167 9.50469 4.32935L9.33469 5.09935L9.16469 6.16602H8.79469C8.56851 5.98813 8.2891 5.89143 8.00135 5.89143C7.7136 5.89143 7.4342 5.98813 7.20802 6.16602H6.83802L6.66802 5.11268L6.51469 4.34268C6.45045 4.01143 6.27296 3.71285 6.01265 3.49816C5.75234 3.28346 5.42544 3.16604 5.08802 3.16602C4.8003 3.16713 4.5195 3.25442 4.28185 3.41661C4.0442 3.57881 3.86058 3.80849 3.75469 4.07602L3.51135 4.67935L3.41135 4.73602L3.17469 4.87935C3.11921 4.91306 3.0742 4.96153 3.04469 5.01935L1.00135 9.16602C0.77911 9.63467 0.665184 10.1473 0.66802 10.666C0.666991 11.4546 0.932538 12.2203 1.42155 12.839C1.91056 13.4576 2.59431 13.8928 3.36181 14.0738C4.1293 14.2549 4.93546 14.1712 5.64941 13.8364C6.36335 13.5015 6.94316 12.9352 7.29469 12.2293C7.50409 12.3685 7.74992 12.4428 8.00135 12.4428C8.25279 12.4428 8.49862 12.3685 8.70802 12.2293C9.05955 12.9352 9.63936 13.5015 10.3533 13.8364C11.0672 14.1712 11.8734 14.2549 12.6409 14.0738C13.4084 13.8928 14.0922 13.4576 14.5812 12.839C15.0702 12.2203 15.3357 11.4546 15.3347 10.666C15.3375 10.1473 15.2236 9.63467 15.0014 9.16602ZM10.148 4.45935C10.1807 4.29419 10.266 4.14405 10.391 4.03134C10.5161 3.91864 10.6743 3.84942 10.8419 3.83405C11.0096 3.81867 11.1777 3.85795 11.3212 3.94602C11.4647 4.03409 11.5758 4.16623 11.638 4.32268L11.6614 4.38268C11.1508 4.27958 10.6212 4.32825 10.138 4.52268L10.148 4.45935ZM9.97469 5.35602C10.2849 5.14398 10.6467 5.01994 11.0217 4.99705C11.3968 4.97416 11.771 5.05328 12.1047 5.22602L12.2547 5.30935L12.408 5.40268L13.4747 7.57602C12.8474 7.24137 12.1326 7.10672 11.4265 7.19014C10.7204 7.27356 10.0568 7.57106 9.52469 8.04268L9.97469 5.35602ZM4.36469 4.32268C4.42687 4.16623 4.53801 4.03409 4.6815 3.94602C4.82499 3.85795 4.99312 3.81867 5.16077 3.83405C5.32843 3.84942 5.48661 3.91864 5.61168 4.03134C5.73675 4.14405 5.822 4.29419 5.85469 4.45935V4.52268C5.37249 4.3289 4.84417 4.28024 4.33469 4.38268L4.36469 4.32268ZM3.59135 5.40268L3.74469 5.30935L3.89469 5.22602C4.22836 5.05328 4.60259 4.97416 4.97763 4.99705C5.35266 5.01994 5.7145 5.14398 6.02469 5.35602L6.47135 8.04268C5.93927 7.57106 5.27561 7.27356 4.56951 7.19014C3.86341 7.10672 3.14869 7.24137 2.52135 7.57602L3.59135 5.40268ZM4.16802 13.4993C3.60764 13.4993 3.05984 13.3332 2.5939 13.0218C2.12797 12.7105 1.76481 12.268 1.55036 11.7503C1.33591 11.2326 1.2798 10.6629 1.38913 10.1133C1.49845 9.56365 1.7683 9.05879 2.16455 8.66255C2.5608 8.2663 3.06565 7.99645 3.61526 7.88712C4.16488 7.7778 4.73457 7.83391 5.25229 8.04836C5.77001 8.26281 6.21252 8.62596 6.52385 9.0919C6.83518 9.55784 7.00135 10.1056 7.00135 10.666C7.00047 11.4172 6.70168 12.1373 6.17052 12.6685C5.63935 13.1997 4.9192 13.4985 4.16802 13.4993ZM8.66802 9.16602C8.44643 9.63253 8.33251 10.1429 8.33469 10.6593C8.33642 10.9678 8.37788 11.2748 8.45802 11.5727H8.43135C8.37521 11.6297 8.30828 11.675 8.23445 11.706C8.16063 11.7369 8.08139 11.7528 8.00135 11.7528C7.92132 11.7528 7.84208 11.7369 7.76825 11.706C7.69443 11.675 7.6275 11.6297 7.57135 11.5727H7.54469C7.62427 11.277 7.66571 10.9723 7.66802 10.666C7.6712 10.1473 7.55726 9.63456 7.33469 9.16602C7.33634 9.14605 7.33634 9.12598 7.33469 9.10602L6.95135 6.83268H7.33469C7.37856 6.83294 7.42204 6.82453 7.46266 6.80794C7.50327 6.79135 7.54021 6.76691 7.57135 6.73602C7.6275 6.67897 7.69443 6.63367 7.76825 6.60275C7.84208 6.57182 7.92132 6.5559 8.00135 6.5559C8.08139 6.5559 8.16063 6.57182 8.23445 6.60275C8.30828 6.63367 8.37521 6.67897 8.43135 6.73602C8.4625 6.76691 8.49944 6.79135 8.54005 6.80794C8.58066 6.82453 8.62415 6.83294 8.66802 6.83268H9.05135L8.66802 9.11268C8.66671 9.13044 8.66671 9.14826 8.66802 9.16602ZM11.8347 13.4993C11.2743 13.4993 10.7265 13.3332 10.2606 13.0218C9.79463 12.7105 9.43148 12.268 9.21703 11.7503C9.00258 11.2326 8.94647 10.6629 9.0558 10.1133C9.16512 9.56365 9.43497 9.05879 9.83122 8.66255C10.2275 8.2663 10.7323 7.99645 11.2819 7.88712C11.8315 7.7778 12.4012 7.83391 12.919 8.04836C13.4367 8.26281 13.8792 8.62596 14.1905 9.0919C14.5019 9.55784 14.668 10.1056 14.668 10.666C14.6671 11.4172 14.3683 12.1373 13.8372 12.6685C13.306 13.1997 12.5859 13.4985 11.8347 13.4993Z" fill="#005F89"/>
</g>
</g>
</svg>
