<svg width="32" height="32" viewBox="0 0 32 32" fill="none" xmlns="http://www.w3.org/2000/svg">
<g id="svgexport-7 (59)" clip-path="url(#clip0_1833_16062)">
<g id="Group">
<path id="Vector" d="M16 0C14.2327 0 12.8 1.43267 12.8 3.2C12.8 4.96733 14.2327 6.4 16 6.4C17.7666 6.39827 19.1983 4.9666 19.2 3.2C19.2 1.43267 17.7673 0 16 0ZM16 5.33333C14.8218 5.33333 13.8667 4.3782 13.8667 3.2C13.8667 2.0218 14.8218 1.06667 16 1.06667C17.1782 1.06667 18.1333 2.0218 18.1333 3.2C18.1333 4.3782 17.1782 5.33333 16 5.33333ZM18.1333 6.93333H18.0075L17.8949 6.98933C17.3063 7.28243 16.6576 7.43498 16 7.43498C15.3424 7.43498 14.6937 7.28243 14.1051 6.98933L13.9925 6.93333H13.8667C12.3947 6.93507 11.2017 8.128 11.2 9.6V12.8C11.2 13.6837 11.9163 14.4 12.8 14.4H19.2C20.0837 14.4 20.8 13.6837 20.8 12.8V9.6C20.7983 8.128 19.6053 6.93507 18.1333 6.93333ZM19.7333 12.8C19.7333 12.9414 19.6771 13.0771 19.5771 13.1771C19.4771 13.2771 19.3414 13.3333 19.2 13.3333H12.8C12.6586 13.3333 12.5229 13.2771 12.4229 13.1771C12.3229 13.0771 12.2667 12.9414 12.2667 12.8V9.6C12.2668 8.76053 12.9157 8.06387 13.7531 8.00427C14.4571 8.331 15.2239 8.50027 16 8.50027C16.7761 8.50027 17.5429 8.331 18.2469 8.00427C19.0843 8.06387 19.7332 8.76053 19.7333 9.6V12.8ZM27.2 17.6C25.4327 17.6 24 19.0327 24 20.8C24 22.5673 25.4327 24 27.2 24C28.9673 24 30.4 22.5673 30.4 20.8C30.3983 19.0334 28.9666 17.6017 27.2 17.6ZM27.2 22.9333C26.0218 22.9333 25.0667 21.9782 25.0667 20.8C25.0667 19.6218 26.0218 18.6667 27.2 18.6667C28.3782 18.6667 29.3333 19.6218 29.3333 20.8C29.3333 21.9782 28.3782 22.9333 27.2 22.9333ZM29.3333 24.5333H29.2075L29.0949 24.5867C28.5062 24.8797 27.8576 25.0323 27.2 25.0323C26.5424 25.0323 25.8938 24.8797 25.3051 24.5867L25.1925 24.5333H25.0667C23.5947 24.5351 22.4017 25.728 22.4 27.2V30.4C22.4 31.2837 23.1163 32 24 32H30.4C31.2837 32 32 31.2837 32 30.4V27.2C31.9983 25.728 30.8053 24.5351 29.3333 24.5333ZM30.9333 30.4C30.9333 30.5415 30.8771 30.6771 30.7771 30.7771C30.6771 30.8771 30.5415 30.9333 30.4 30.9333H24C23.8586 30.9333 23.7229 30.8771 23.6229 30.7771C23.5229 30.6771 23.4667 30.5415 23.4667 30.4V27.2C23.4668 26.3605 24.1157 25.6639 24.9531 25.6043C25.6571 25.931 26.4239 26.1003 27.2 26.1003C27.9761 26.1003 28.7429 25.931 29.4469 25.6043C30.2843 25.6639 30.9332 26.3605 30.9333 27.2V30.4ZM4.8 17.6C3.03267 17.6 1.6 19.0327 1.6 20.8C1.6 22.5673 3.03267 24 4.8 24C6.56733 24 8 22.5673 8 20.8C7.99827 19.0334 6.5666 17.6017 4.8 17.6ZM4.8 22.9333C3.6218 22.9333 2.66667 21.9782 2.66667 20.8C2.66667 19.6218 3.6218 18.6667 4.8 18.6667C5.9782 18.6667 6.93333 19.6218 6.93333 20.8C6.93333 21.9782 5.9782 22.9333 4.8 22.9333ZM6.93333 24.5333H6.80747L6.69493 24.5867C6.10625 24.8797 5.4576 25.0323 4.8 25.0323C4.1424 25.0323 3.49376 24.8797 2.90507 24.5867L2.79253 24.5333H2.66667C1.19467 24.5351 0.00173333 25.728 0 27.2V30.4C0 31.2837 0.716333 32 1.6 32H8C8.88367 32 9.6 31.2837 9.6 30.4V27.2C9.59827 25.728 8.40533 24.5351 6.93333 24.5333ZM8.53333 30.4C8.53333 30.5415 8.47714 30.6771 8.37712 30.7771C8.2771 30.8771 8.14145 30.9333 8 30.9333H1.6C1.45855 30.9333 1.3229 30.8771 1.22288 30.7771C1.12286 30.6771 1.06667 30.5415 1.06667 30.4V27.2C1.0668 26.3605 1.71567 25.6639 2.55307 25.6043C3.25707 25.931 4.02387 26.1003 4.8 26.1003C5.57613 26.1003 6.34293 25.931 7.04693 25.6043C7.88433 25.6639 8.5332 26.3605 8.53333 27.2V30.4ZM21.2915 27.0851L21.2907 27.0832C21.2352 26.9531 21.1304 26.8503 20.9992 26.7975C20.8679 26.7447 20.7211 26.7462 20.591 26.8016C18.1826 27.8109 15.508 27.9951 12.9841 27.3253L13.4833 27.1787C13.7661 27.0959 13.9282 26.7996 13.8454 26.5168C13.7626 26.234 13.4663 26.0719 13.1835 26.1547L11.0502 26.7803C11.0422 26.7803 11.0363 26.7893 11.0289 26.792C10.9795 26.8104 10.9331 26.8361 10.8913 26.8683C10.8727 26.8783 10.8549 26.8895 10.8379 26.9019C10.7817 26.9521 10.7371 27.0139 10.7073 27.0832C10.6783 27.1529 10.6645 27.228 10.6667 27.3035C10.6797 27.3757 10.6975 27.4469 10.7201 27.5168C10.7233 27.5243 10.7201 27.5328 10.7259 27.5403L11.7926 29.5813C11.825 29.6435 11.8694 29.6986 11.9231 29.7436C11.9768 29.7886 12.0389 29.8225 12.1058 29.8435C12.1726 29.8645 12.243 29.8721 12.3128 29.866C12.3826 29.8598 12.4505 29.8399 12.5126 29.8075C12.5747 29.775 12.6299 29.7307 12.6748 29.677C12.7198 29.6232 12.7538 29.5612 12.7748 29.4943C12.7958 29.4274 12.8034 29.3571 12.7972 29.2873C12.791 29.2175 12.7712 29.1496 12.7387 29.0875L12.3046 28.2576C15.1722 29.1196 18.2509 28.9521 21.0081 27.784C21.1383 27.7289 21.2414 27.6243 21.2945 27.4932C21.3477 27.3622 21.3466 27.2153 21.2915 27.0851ZM30.2437 14.0229C30.1437 13.9229 30.0081 13.8668 29.8667 13.8668C29.7252 13.8668 29.5896 13.9229 29.4896 14.0229L28.7349 14.7776C28.2933 10.1063 25.3275 6.05253 21.0091 4.2176C20.8789 4.16215 20.7321 4.16067 20.6009 4.21348C20.4697 4.26629 20.3648 4.36907 20.3093 4.4992C20.2539 4.62933 20.2524 4.77616 20.3052 4.90739C20.358 5.03861 20.4608 5.14349 20.5909 5.19893C24.4649 6.8454 27.1579 10.4435 27.6453 14.6245L27.0437 14.0229C26.9431 13.9258 26.8084 13.872 26.6686 13.8732C26.5287 13.8745 26.395 13.9305 26.2961 14.0294C26.1972 14.1283 26.1411 14.2621 26.1399 14.4019C26.1387 14.5418 26.1924 14.6765 26.2896 14.7771L27.8896 16.3771C27.9391 16.4267 27.9978 16.466 28.0625 16.4929C28.1272 16.5198 28.1965 16.5337 28.2665 16.5338C28.3366 16.5338 28.406 16.5201 28.4707 16.4934C28.5354 16.4667 28.5943 16.4275 28.6439 16.378L28.6448 16.3771L30.2448 14.7771C30.3446 14.6769 30.4006 14.5412 30.4004 14.3998C30.4002 14.2584 30.3439 14.1228 30.2437 14.0229ZM11.7179 4.61813C11.7162 4.58701 11.7115 4.55612 11.704 4.52587C11.704 4.52107 11.6981 4.51787 11.696 4.51253C11.6939 4.5072 11.696 4.50347 11.696 4.4992C11.6815 4.47326 11.6647 4.44863 11.6459 4.4256C11.6286 4.39432 11.6082 4.36484 11.5851 4.3376C11.5535 4.30967 11.5186 4.28584 11.4811 4.26667C11.4623 4.25072 11.4423 4.23628 11.4213 4.22347L9.288 3.24907C9.16045 3.19669 9.01758 3.19575 8.88936 3.24644C8.76113 3.29713 8.65752 3.3955 8.60026 3.52093C8.54299 3.64636 8.53653 3.78908 8.58222 3.91917C8.62792 4.04926 8.72221 4.1566 8.84533 4.21867L9.94987 4.72373C5.79167 6.94913 3.197 11.2837 3.2 16C3.2 16.1414 3.25619 16.2771 3.35621 16.3771C3.45623 16.4771 3.59188 16.5333 3.73333 16.5333C3.87478 16.5333 4.01044 16.4771 4.11046 16.3771C4.21048 16.2771 4.26667 16.1414 4.26667 16C4.264 11.8471 6.46007 8.0032 10.0389 5.89653L9.65333 6.7024C9.59227 6.82973 9.5842 6.97608 9.63089 7.10936C9.67758 7.24263 9.77522 7.35195 9.9024 7.41333C9.97431 7.44848 10.0533 7.46672 10.1333 7.46667C10.2337 7.46653 10.332 7.43808 10.4169 7.38458C10.5018 7.33109 10.5699 7.25473 10.6133 7.16427L11.68 4.93867C11.68 4.93333 11.68 4.92747 11.6843 4.92213C11.6981 4.88566 11.7078 4.84773 11.7131 4.80907C11.7222 4.78033 11.729 4.75093 11.7333 4.72107C11.7316 4.68633 11.7264 4.65186 11.7179 4.61813Z" fill="white"/>
</g>
</g>
<defs>
<clipPath id="clip0_1833_16062">
<rect width="32" height="32" fill="white"/>
</clipPath>
</defs>
</svg>
