<svg width="154" height="154" viewBox="0 0 154 154" fill="none" xmlns="http://www.w3.org/2000/svg">
<g id="svgexport-16 (21) 1" clip-path="url(#clip0_1435_13920)">
<g id="Group">
<path id="Vector" d="M9.02344 9.02344H36.0938V0H0V36.0938H9.02344V9.02344ZM117.906 0V9.02344H144.977V36.0938H154V0H117.906ZM144.977 144.977H117.906V154H154V117.906H144.977V144.977ZM9.02344 117.906H0V154H36.0938V144.977H9.02344V117.906Z" fill="black"/>
<path id="Vector_2" d="M18.3477 18.0469V63.1641H63.4648V36.0938H72.4883V27.0703H63.4648V18.0469H18.3477ZM54.4414 54.1406H27.3711V27.0703H54.4414V54.1406ZM135.652 135.352V90.2344H117.605V81.2109H108.582V90.2344H81.5117V99.2578H90.5352V108.281H81.5117V117.305H90.5352V135.352H135.652ZM99.5586 99.2578H126.629V126.328H99.5586V99.2578ZM45.418 81.2109H63.4648V72.1875H18.3477V81.2109H36.3945V90.2344H27.3711V99.2578H36.3945V117.305H27.3711V126.328H36.3945V135.352H81.5117V126.328H72.4883V117.305H63.4648V126.328H45.418V117.305H54.4414V108.281H45.418V81.2109Z" fill="black"/>
<path id="Vector_3" d="M36.3945 36.0938H45.418V45.1172H36.3945V36.0938ZM108.582 36.0938H117.605V45.1172H108.582V36.0938Z" fill="black"/>
<path id="Vector_4" d="M117.605 63.1641H135.652V18.0469H90.5352V63.1641H108.582V72.1875H117.605V63.1641ZM99.5586 54.1406V27.0703H126.629V54.1406H99.5586ZM135.652 81.2109V72.1875H117.605V81.2109H135.652ZM108.582 108.281H117.605V117.305H108.582V108.281ZM72.4883 99.2578H81.5117V108.281H72.4883V99.2578ZM54.4414 108.281H63.4648V90.2344H54.4414V108.281ZM63.4648 81.2109H72.4883V90.2344H63.4648V81.2109ZM27.3711 99.2578H18.3477V117.305H27.3711V99.2578ZM18.3477 126.328H27.3711V135.352H18.3477V126.328ZM72.4883 18.0469H81.5117V27.0703H72.4883V18.0469ZM72.4883 54.1406H81.5117V36.0938H72.4883V54.1406ZM81.5117 72.1875V63.1641H72.4883V81.2109H108.582V72.1875H81.5117Z" fill="black"/>
</g>
</g>
<defs>
<clipPath id="clip0_1435_13920">
<rect width="154" height="154" fill="white"/>
</clipPath>
</defs>
</svg>
