<svg width="65" height="64" viewBox="0 0 65 64" fill="none" xmlns="http://www.w3.org/2000/svg">
<g id="svgexport-16 (3) 1">
<g id="Group">
<path id="Vector" d="M59.1888 39.625C60.0813 38.6287 60.625 37.3137 60.625 35.875C60.625 32.7738 58.1012 30.25 55 30.25H44.0825C45.1637 26.9688 45.625 22.615 45.625 20.7488V18.875C45.625 14.74 42.26 11.375 38.125 11.375H36.25C35.39 11.375 34.64 11.96 34.4313 12.795L33.41 16.8813C31.9788 22.6038 27.435 28.9175 22.7325 30.065C21.9088 27.98 19.875 26.5 17.5 26.5H6.25C5.215 26.5 4.375 27.34 4.375 28.375V62.125C4.375 63.16 5.215 64 6.25 64H17.5C19.7362 64 21.6712 62.6888 22.5775 60.7938L29.02 62.9412C31.1263 63.6437 33.3212 64 35.5425 64H51.25C54.3512 64 56.875 61.4762 56.875 58.375C56.875 57.6437 56.735 56.9438 56.48 56.3025C58.865 55.6513 60.625 53.465 60.625 50.875C60.625 49.4362 60.0813 48.1213 59.1888 47.125C60.0813 46.1287 60.625 44.8138 60.625 43.375C60.625 41.9363 60.0813 40.6213 59.1888 39.625ZM19.375 58.375C19.375 59.4087 18.5338 60.25 17.5 60.25H8.125V30.25H17.5C18.5338 30.25 19.375 31.0912 19.375 32.125V58.375ZM51.25 41.5H55C56.0337 41.5 56.875 42.3412 56.875 43.375C56.875 44.4087 56.0337 45.25 55 45.25H51.25C50.215 45.25 49.375 46.09 49.375 47.125C49.375 48.16 50.215 49 51.25 49H55C56.0337 49 56.875 49.8413 56.875 50.875C56.875 51.9087 56.0337 52.75 55 52.75H51.25C50.215 52.75 49.375 53.59 49.375 54.625C49.375 55.66 50.215 56.5 51.25 56.5C52.2837 56.5 53.125 57.3413 53.125 58.375C53.125 59.4087 52.2837 60.25 51.25 60.25H35.5425C33.725 60.25 31.9287 59.9588 30.205 59.3838L23.125 57.0238V33.8225C26.0662 33.2637 28.945 31.4013 31.5438 28.3525C34.0813 25.375 36.1388 21.4275 37.0475 17.7913L37.7137 15.125H38.125C40.1925 15.125 41.875 16.8075 41.875 18.875V20.7488C41.875 23.2663 41.0875 28.095 40.08 30.25H36.25C35.215 30.25 34.375 31.09 34.375 32.125C34.375 33.16 35.215 34 36.25 34H55C56.0337 34 56.875 34.8412 56.875 35.875C56.875 36.9088 56.0337 37.75 55 37.75H51.25C50.215 37.75 49.375 38.59 49.375 39.625C49.375 40.66 50.215 41.5 51.25 41.5Z" fill="#006882"/>
<path id="Vector_2" d="M13.75 56.5C14.7855 56.5 15.625 55.6605 15.625 54.625C15.625 53.5895 14.7855 52.75 13.75 52.75C12.7145 52.75 11.875 53.5895 11.875 54.625C11.875 55.6605 12.7145 56.5 13.75 56.5Z" fill="#006882"/>
<path id="Vector_3" d="M39.9988 0C38.9633 0 38.1238 0.8395 38.1238 1.875V5.75C38.1238 6.7855 38.9633 7.625 39.9988 7.625C41.0343 7.625 41.8738 6.7855 41.8738 5.75V1.875C41.8738 0.8395 41.0343 0 39.9988 0ZM32.0438 8.2685L29.3922 5.61688C28.6601 4.88463 27.4728 4.88463 26.7406 5.61688C26.0083 6.34912 26.0083 7.53625 26.7406 8.2685L29.3922 10.9201C30.1243 11.6523 31.3117 11.6524 32.0438 10.9201C32.7761 10.1879 32.7761 9.00075 32.0438 8.2685ZM53.2571 5.61688C52.525 4.88463 51.3377 4.88463 50.6055 5.61688L47.9538 8.26838C47.2216 9.00063 47.2216 10.1877 47.9538 10.92C48.686 11.6523 49.8732 11.6524 50.6055 10.9201L53.2571 8.2685C53.9893 7.53625 53.9893 6.34912 53.2571 5.61688Z" fill="#006882"/>
</g>
</g>
</svg>
