<svg width="17" height="17" viewBox="0 0 17 17" fill="none" xmlns="http://www.w3.org/2000/svg">
<g id="svgexport-7 (67) 1" clip-path="url(#clip0_1833_16523)">
<g id="Group">
<path id="Vector" d="M15.9859 15.0735L12.1779 11.1129C13.1573 9.95085 13.6942 8.47978 13.6934 6.95999C13.6934 3.39801 10.7954 0.5 7.23343 0.5C3.67145 0.5 0.773438 3.39801 0.773438 6.95999C0.773438 10.522 3.67145 13.42 7.23343 13.42C8.57065 13.42 9.84495 13.0167 10.9344 12.251L14.7714 16.2416C14.9318 16.4082 15.1475 16.5 15.3786 16.5C15.5974 16.5 15.805 16.4166 15.9626 16.2649C16.1234 16.1099 16.2162 15.8974 16.2205 15.674C16.2249 15.4507 16.1405 15.2347 15.9859 15.0735ZM7.23343 2.18522C9.8663 2.18522 12.0082 4.32713 12.0082 6.95999C12.0082 9.59286 9.8663 11.7348 7.23343 11.7348C4.60056 11.7348 2.45865 9.59286 2.45865 6.95999C2.45865 4.32713 4.60056 2.18522 7.23343 2.18522Z" fill="#005F89"/>
</g>
</g>
<defs>
<clipPath id="clip0_1833_16523">
<rect width="16" height="16" fill="white" transform="translate(0.5 0.5)"/>
</clipPath>
</defs>
</svg>
