<svg width="116" height="153" viewBox="0 0 116 153" fill="none" xmlns="http://www.w3.org/2000/svg">
<g id="Group 7">
<g id="Group">
<path id="Vector" d="M0.140625 0.546137H116C116 0.546137 110.903 2.44794 107.481 6.63069C103.101 11.9849 100.666 11.7419 95.5553 6.14339C92.5294 2.82952 88.7404 3.95237 86.3063 6.14339C83.8723 8.33442 81.1952 9.55084 76.8131 7.60408C73.8213 6.27464 69.7539 9.55084 70.9716 13.6886C72.1892 17.8264 73.7082 19.8254 73.1626 22.6946C72.1892 27.8057 66.3477 27.8057 64.887 23.4249C62.809 17.1909 67.8084 15.8797 67.8084 12.228C67.8084 8.57625 62.453 5.6561 58.5594 7.11678C54.6647 8.57746 49.1987 14.3935 53.4483 25.1286C58.0733 36.8116 62.2597 48.4534 53.9356 53.6071C48.8244 56.7715 42.4956 51.9034 41.7652 45.5745C40.4807 34.4408 46.1461 30.9701 47.6067 19.2871C48.664 10.8341 44.9296 5.17001 40.3045 5.6561C35.6794 6.14339 38.1135 14.419 31.5417 14.419C24.9698 14.419 29.8379 6.38644 23.9964 5.41305C18.2339 4.45304 20.352 8.57746 15.9639 8.57746C11.0958 8.57746 12.4701 4.47856 9.63506 3.46629C6.22761 2.24865 3.79355 5.90035 0.141841 0.544922L0.140625 0.546137Z" fill="#51B7EF"/>
<path id="Vector_2" d="M70.9704 13.6886C70.0383 7.65998 73.7168 3.75551 76.7037 5.02662C81.0761 6.8871 83.7483 5.72415 86.1775 3.63156C88.6067 1.53775 93.2197 1.6374 95.4083 3.63156C100.873 8.60906 102.522 8.82658 107.311 4.09698C109.049 2.3811 112.533 1.24731 115.552 0.544922H0.140625C0.203816 0.637278 0.26458 0.719912 0.326556 0.806192C2.72417 2.59863 5.7622 2.14292 8.94727 2.01047C11.9355 1.88651 11.1164 5.95747 15.9736 5.95747C20.3532 5.95747 19.5743 2.01047 23.9903 2.93403C29.7687 4.14194 27.9641 11.144 31.521 11.5401C36.3551 12.0785 35.6503 3.63156 40.2657 3.16613C44.5797 2.73108 48.1171 7.43273 47.6991 14.6474C47.8328 16.0692 47.8133 17.6235 47.6043 19.2871C46.3867 29.0319 42.2465 33.0664 41.6498 40.5958C41.6717 40.8328 41.6935 41.0697 41.7239 41.314C42.453 47.3621 48.7685 52.0139 53.8699 48.9905C56.8144 47.2454 58.1852 44.719 58.5291 41.6919C57.9227 36.7047 55.7401 30.924 53.447 25.1298C52.1358 21.816 51.7518 18.9724 51.9596 16.5796C51.1041 9.61039 55.2419 5.47017 58.4865 4.56241C63.3899 3.19165 67.8254 7.03171 67.8084 12.2292C67.8084 14.8722 65.1908 16.2892 64.5322 19.2336C64.6051 19.5265 64.6914 19.8291 64.802 20.1475C66.2408 24.2804 71.9377 24.3302 73.018 19.631C72.5951 17.9941 71.7262 16.2527 70.9716 13.6898L70.9704 13.6886Z" fill="#AAD6EF"/>
<path id="Vector_3" opacity="0.5" d="M48.4216 46.7623C50.2322 48.1124 51.1157 49.9887 50.3963 50.9548C49.6769 51.9209 47.6256 51.6086 45.815 50.2597C44.0043 48.9096 43.1208 47.0333 43.8402 46.0672C44.5596 45.1011 46.6109 45.4134 48.4216 46.7623Z" fill="white"/>
<path id="Vector_4" opacity="0.5" d="M47.2132 36.807C46.9289 38.7963 46.2727 40.3481 45.7477 40.2728C45.2215 40.1975 45.0259 38.5241 45.3102 36.5348C45.5946 34.5455 46.2508 32.9937 46.7757 33.069C47.3019 33.1444 47.4976 34.8177 47.2132 36.807Z" fill="white"/>
<path id="Vector_5" d="M52.8517 28.6113C52.8517 28.6113 56.5909 35.3946 56.4147 40.3563C56.326 42.8244 55.7974 45.2925 53.418 46.7909C51.9488 47.7156 50.1564 45.4687 51.8309 43.9704C53.5055 42.472 54.2468 40.6237 54.4752 37.8882C54.7401 34.7153 52.8517 28.6113 52.8517 28.6113Z" fill="#73C3EF"/>
<path id="Vector_6" opacity="0.5" d="M46.9766 28.4873C46.9766 27.8007 47.5331 27.2441 48.2197 27.2441C48.9063 27.2441 49.4629 27.8007 49.4629 28.4873C49.4629 29.1739 48.9063 29.7305 48.2197 29.7305C47.5331 29.7305 46.9766 29.1739 46.9766 28.4873Z" fill="white"/>
<path id="Vector_7" opacity="0.5" d="M68.1307 18.3896C67.9022 19.2573 67.5316 19.9123 67.3019 19.8515C67.0723 19.7908 67.071 19.0385 67.2995 18.1709C67.528 17.3032 67.8986 16.6482 68.1283 16.709C68.3579 16.7697 68.358 17.522 68.1307 18.3896Z" fill="white"/>
<path id="Vector_8" opacity="0.5" d="M68.4569 14.6864C68.4921 14.3813 68.768 14.1638 69.0718 14.1991C69.3768 14.2343 69.5943 14.5101 69.5591 14.814C69.5238 15.119 69.248 15.3365 68.9442 15.3013C68.6392 15.266 68.4216 14.9902 68.4569 14.6864Z" fill="white"/>
<path id="Vector_9" opacity="0.5" d="M69.6994 23.9616C69.4212 24.5133 68.4125 24.5644 67.4477 24.0771C66.4828 23.5898 65.9262 22.7476 66.2045 22.1959C66.4828 21.6442 67.4914 21.5932 68.4563 22.0805C69.4212 22.5678 69.9777 23.4099 69.6994 23.9616Z" fill="white"/>
<g id="Group_2" opacity="0.5">
<path id="Vector_10" d="M36.8243 0.544922H27.6641C28.6277 1.76013 29.3338 3.30709 29.8016 4.80666C30.7337 7.79 32.5978 9.65414 34.4632 5.5528C35.1826 3.96938 36.0405 2.1648 36.8243 0.544922Z" fill="white"/>
<path id="Vector_11" d="M10.8906 0.544922C11.4253 0.798901 11.8458 1.09784 12.1046 1.45147C14.1559 4.24767 17.138 4.43481 19.0034 2.7566C19.6912 2.13806 20.1493 1.3178 20.605 0.544922H10.8906Z" fill="white"/>
</g>
<g id="Group_3" opacity="0.5">
<path id="Vector_12" d="M107.515 0.544922H95.2773C96.5108 1.06139 97.6142 1.88773 98.4405 3.12846C101.263 7.36347 105.582 2.94253 107.513 0.544922H107.515Z" fill="white"/>
<path id="Vector_13" d="M44.6418 0.544922C45.5678 1.60459 46.54 3.02638 47.1598 4.80666C48.6508 9.09514 50.329 9.84006 52.5662 5.92587C54.8034 2.01047 61.3291 0.519403 63.7535 2.7566C66.1778 4.99381 67.6689 6.85794 69.533 4.43481C71.3971 2.01047 76.6177 1.82454 78.4818 3.3156C80.3459 4.80666 82.0241 4.06174 83.7023 2.19639C84.1969 1.64712 85.3587 1.01764 86.8424 0.544922H44.6406L44.6418 0.544922Z" fill="white"/>
</g>
<path id="Vector_14" opacity="0.5" d="M13.7852 6.10787C13.7852 5.38725 14.3697 4.80273 15.0903 4.80273C15.8109 4.80273 16.3954 5.38725 16.3954 6.10787C16.3954 6.82849 15.8109 7.41301 15.0903 7.41301C14.3697 7.41301 13.7852 6.82849 13.7852 6.10787Z" fill="white"/>
<path id="Vector_15" opacity="0.5" d="M29.2695 11.5204C29.2695 10.6964 29.9379 10.0293 30.7606 10.0293C31.5833 10.0293 32.2516 10.6977 32.2516 11.5204C32.2516 12.3431 31.5833 13.0114 30.7606 13.0114C29.9379 13.0114 29.2695 12.3431 29.2695 11.5204Z" fill="white"/>
<path id="Vector_16" opacity="0.5" d="M52.3963 4.90112C53.0683 4.11124 53.9651 3.76976 54.4002 4.13919C54.8352 4.50861 54.6432 5.44918 53.9712 6.24028C53.2992 7.03017 52.4023 7.37165 51.9673 7.00222C51.5323 6.6328 51.7242 5.69223 52.3963 4.90112Z" fill="white"/>
<path id="Vector_17" opacity="0.5" d="M68.7715 5.81566C68.3048 5.38062 68.4944 4.41939 69.1944 3.66717C69.8943 2.91496 70.841 2.65733 71.3076 3.09238C71.7743 3.52742 71.5847 4.48865 70.8847 5.24087C70.1848 5.99308 69.2381 6.25071 68.7715 5.81566Z" fill="white"/>
<path id="Vector_18" opacity="0.5" d="M82.0411 7.23256C82.6592 7.23256 83.1603 6.73147 83.1603 6.11335C83.1603 5.49523 82.6592 4.99414 82.0411 4.99414C81.423 4.99414 80.9219 5.49523 80.9219 6.11335C80.9219 6.73147 81.423 7.23256 82.0411 7.23256Z" fill="white"/>
<path id="Vector_19" opacity="0.5" d="M100.855 7.2313C100.855 6.40738 101.524 5.74023 102.347 5.74023C103.169 5.74023 103.838 6.4086 103.838 7.2313C103.838 8.05399 103.169 8.72236 102.347 8.72236C101.524 8.72236 100.855 8.05399 100.855 7.2313Z" fill="white"/>
<path id="Vector_20" opacity="0.5" d="M34.4349 3.52327C34.6877 2.8148 35.2199 2.35666 35.6246 2.50127C36.0293 2.64588 36.152 3.33612 35.9004 4.04581C35.6477 4.75427 35.1154 5.21241 34.7107 5.0678C34.3061 4.9244 34.1833 4.23295 34.4361 3.52327H34.4349Z" fill="white"/>
<g id="Group_4" opacity="0.5">
<path id="Vector_21" d="M25.4775 3.67959C26.2358 4.36253 26.9503 5.1184 27.5324 5.95811C27.8144 6.3652 28.0465 6.7966 28.2676 7.23894C28.4511 7.60836 28.5739 8.15885 28.8752 8.44929C29.1681 8.73122 29.2167 8.02153 29.2058 7.87206C29.1304 6.83913 28.4426 5.82322 27.8289 5.02482C27.2031 4.20942 26.4606 3.52039 25.5565 3.0258C25.3402 2.90793 25.3499 3.56536 25.4775 3.67959Z" fill="white"/>
</g>
<g id="Group_5" opacity="0.5">
<path id="Vector_22" d="M49.2966 12.2755C49.3525 13.4822 49.4121 14.7022 49.3878 15.9114C49.3756 16.5457 49.3404 17.1776 49.2626 17.8071C49.1885 18.4038 49.0609 19.0065 49.0511 19.6092C49.0426 20.1768 49.1836 20.6713 49.4169 21.1817C49.4631 21.2826 49.5239 21.3835 49.5518 21.4916C49.5749 21.5791 49.5883 21.4588 49.5421 21.6204C49.4704 21.8732 49.3379 22.1126 49.2517 22.3617C49.0147 23.0446 48.8883 24.5588 49.8204 24.7788C50.2214 24.8735 50.14 23.6644 49.9735 23.4943C49.914 23.4335 49.858 23.3278 49.7961 23.2804C49.7633 23.2561 49.7523 23.1285 49.7693 23.2622C49.7815 23.3521 49.773 23.2318 49.7936 23.1929C49.8459 23.0933 49.8799 22.9693 49.9212 22.8636C50.1011 22.4054 50.2299 21.9449 50.2177 21.4479C50.2056 20.9338 50.0172 20.4927 49.807 20.0334C49.5943 19.5691 49.7523 19.1001 49.8022 18.6067C50.0245 16.4266 50.0829 14.2028 49.6636 12.0482C49.5725 11.5804 49.282 12.0093 49.2942 12.2755H49.2966Z" fill="white"/>
</g>
<g id="Group_6" opacity="0.5">
<path id="Vector_23" d="M96.622 2.36431C96.9987 2.86983 97.435 3.31825 97.9198 3.72048C98.2892 4.02671 98.7875 4.61731 99.2991 4.43138C99.609 4.31836 99.5215 3.57344 99.423 3.36321C99.1581 2.79449 98.6575 2.52593 98.1762 2.15529C97.7412 1.81989 97.3098 1.48814 96.8334 1.21593C96.4227 0.980182 96.4883 2.1881 96.6208 2.36431H96.622Z" fill="white"/>
</g>
</g>
<g id="Group_7">
<g id="Group_8">
<path id="Vector_24" d="M55.1966 81.0321C52.9433 81.2975 49.6828 83.2879 50.1845 87.7982C50.6862 92.3098 53.6927 94.8158 57.9528 93.8124C62.7578 92.682 62.7032 88.2542 62.2129 86.2943C61.461 83.2866 59.4567 80.5303 55.1953 81.0321H55.1966Z" fill="#73C3EF"/>
<path id="Vector_25" d="M55.0807 92.2456C53.0536 91.5698 49.271 87.4507 52.7627 83.6682C55.5444 80.6541 59.1948 82.8667 60.4129 85.059C61.5713 87.1459 61.1076 89.4639 59.9493 90.8547C58.7909 92.2456 57.1676 92.9416 55.0807 92.2456Z" fill="#AAD6EF"/>
<path id="Vector_26" opacity="0.5" d="M53.687 88.7665C53.2018 89.2923 52.8602 89.8258 52.6328 90.3542C53.3962 91.3106 54.35 92.0003 55.0791 92.2429C57.1647 92.939 58.788 92.2429 59.9477 90.8521C60.3008 90.4291 60.5878 89.9198 60.7847 89.3571C59.2351 87.5001 56.1283 86.122 53.6883 88.7652L53.687 88.7665Z" fill="white"/>
<path id="Vector_27" opacity="0.5" d="M51.8359 84.1226C51.8359 84.6612 52.2729 85.0969 52.8101 85.0969C53.3474 85.0969 53.7843 84.6612 53.7843 84.1226C53.7843 83.5841 53.3474 83.1484 52.8101 83.1484C52.2729 83.1484 51.8359 83.5841 51.8359 84.1226Z" fill="white"/>
<path id="Vector_28" opacity="0.5" d="M56.1328 87.8435C56.1328 86.8808 56.914 86.0996 57.8767 86.0996C58.8395 86.0996 59.6207 86.8808 59.6207 87.8435C59.6207 88.8063 58.8395 89.5875 57.8767 89.5875C56.914 89.5875 56.1328 88.8063 56.1328 87.8435Z" fill="white"/>
<path id="Vector_29" opacity="0.5" d="M57.2592 83.9596C56.8146 83.515 56.8146 82.7936 57.2592 82.349C57.7038 81.9045 58.4252 81.9045 58.8698 82.349C59.3143 82.7936 59.3143 83.515 58.8698 83.9596C58.4252 84.4042 57.7038 84.4042 57.2592 83.9596Z" fill="white"/>
</g>
<g id="Group_9">
<path id="Vector_30" d="M83.526 122.022C83.526 122.022 82.9252 116.404 84.7313 114.199C86.5388 111.994 89.7015 110.01 89.2493 107.807C88.7971 105.602 86.7649 103.839 84.2804 106.704C81.796 109.57 83.8283 112.215 80.8916 113.538C77.955 114.86 75.9228 114.199 74.5662 112.656C73.211 111.113 72.5327 110.01 69.3713 110.893C66.2086 111.775 61.6906 115.743 58.9801 114.42C56.2696 113.098 55.8174 111.334 56.2695 110.453C56.7217 109.571 58.9801 108.469 58.3031 106.264C57.6248 104.059 55.8187 102.957 54.0112 105.382C52.2038 107.807 54.9143 109.129 53.559 110.672C52.2038 112.215 51.5268 112.656 49.9454 111.334C48.3641 110.012 46.5566 111.555 44.9766 112.215C43.3952 112.877 42.0399 114.42 39.1033 112.215C36.1667 110.01 33.9084 108.909 33.6823 107.145C33.4562 105.382 33.4562 104.28 30.9718 104.059C28.4873 103.838 28.2612 108.248 30.2935 108.688C32.3257 109.129 34.1332 110.451 34.5854 112.215C35.0375 113.978 34.5104 116.036 32.402 116.11C30.2935 116.183 35.4885 121.914 35.4885 121.914L83.526 122.021V122.022Z" fill="#AAD6EF"/>
<path id="Vector_31" d="M92.5308 105.795C90.9875 109.542 94.074 110.425 92.5308 112.629C90.9875 114.832 88.122 118.36 87.4603 119.683C86.7985 121.005 85.0355 116.597 80.8466 119.021C76.6576 121.446 78.4218 117.037 76.4378 115.935C74.4538 114.832 72.9106 117.257 71.1476 116.597C69.3846 115.935 70.7068 113.51 70.7068 111.747C70.7068 109.984 69.3846 108.661 68.0611 108.661C66.7376 108.661 64.9746 109.763 64.9746 111.967C64.9746 114.171 66.5179 114.392 66.2968 116.597C66.0758 118.802 64.0918 121.005 61.4473 119.242C58.8016 117.479 54.4576 113.979 53.0706 117.258C49.8177 124.947 48.2504 117.158 46.9281 116.277C45.6059 115.395 42.2692 117.478 42.4889 115.715C42.7099 113.952 45.3544 109.322 40.7259 108C36.0962 106.678 36.3172 113.511 37.4197 115.936C38.5222 118.361 34.9556 120.819 33.232 115.715C32.6337 113.943 30.3665 114.834 29.7047 115.715C29.043 116.597 24.9632 112.094 25.8447 110.331C26.7262 108.568 27.059 105.795 25.296 105.135C22.7849 104.194 18.6823 108 21.9898 111.968C25.296 115.936 27.9418 118.802 28.3825 121.447C28.8233 124.093 26.6195 128.061 27.7208 129.162C28.8233 130.265 36.3185 131.808 38.963 131.808C41.6074 131.808 52.1891 133.351 57.2596 133.792C62.3301 134.233 70.0451 133.571 73.1316 133.571C76.2181 133.571 84.3738 132.249 85.6973 130.925L88.6491 125.47C88.8702 123.927 90.327 120.565 91.4295 119.241C92.532 117.919 97.6012 111.526 97.8223 107.778C98.0433 104.031 94.0753 102.047 92.532 105.794L92.5308 105.795Z" fill="#51B7EF"/>
<path id="Vector_32" d="M92.4929 105.802C90.9497 109.549 94.0362 110.432 92.4929 112.635C90.9497 114.839 88.0842 118.366 87.4225 119.69C86.7607 121.012 84.9977 116.603 80.8087 119.028C76.6197 121.453 78.384 117.044 76.4 115.941C74.416 114.839 72.8728 117.264 71.1098 116.603C69.3468 115.941 70.6691 113.517 70.6691 111.754C70.6691 109.991 69.3468 108.667 68.0233 108.667C66.6998 108.667 64.9368 109.77 64.9368 111.973C64.9368 114.177 66.4801 114.398 66.2591 116.603C66.038 118.808 64.0553 121.012 61.4096 119.249C58.7638 117.486 54.4199 113.985 53.0328 117.265C49.78 124.953 48.2126 117.165 46.8904 116.283C45.5681 115.402 42.2314 117.485 42.4511 115.722C42.6721 113.959 45.3166 109.329 40.6881 108.007C36.0584 106.685 36.2794 113.518 37.3819 115.943C38.4844 118.367 34.9178 120.825 33.1929 115.722C32.5947 113.95 30.3274 114.84 29.6657 115.722C29.0039 116.603 25.1465 111.516 26.0279 109.752C26.9094 107.989 27.0199 105.802 25.257 105.14C22.7458 104.199 18.6432 108.006 21.9507 111.973C25.2569 115.941 27.9027 118.807 28.3435 121.453C28.7474 123.874 26.9425 127.396 27.4772 128.821H27.3718C27.3718 128.821 27.4264 128.872 27.5394 128.967C27.5801 129.041 27.6232 129.111 27.6817 129.168C27.8176 129.304 28.0526 129.447 28.3625 129.593C31.2331 131.617 40.631 136.922 60.2982 136.922C78.3967 136.922 86.6388 132.574 89.6681 130.355C89.6681 130.355 89.583 126.485 89.752 125.198C89.9552 123.653 90.2867 120.571 91.3879 119.249C92.4904 117.927 97.5596 111.534 97.7806 107.786C98.0016 104.039 94.0337 102.055 92.4904 105.802H92.4929Z" fill="#51B7EF"/>
<path id="Vector_33" d="M6.193 128.878C6.5207 128.812 6.70233 129.255 6.41782 129.43C5.35342 130.089 4.29793 131.29 4.71963 133.401C5.30771 136.34 14.2712 141.042 18.7155 143.208C19.0432 143.368 18.8667 143.863 18.5136 143.777C13.3834 142.528 2.57431 139.346 1.97861 134.576C1.47816 130.567 4.18106 129.283 6.19427 128.876L6.193 128.878Z" fill="#AAD6EF"/>
<path id="Vector_34" d="M44.6826 148.074C51.7181 149.085 65.5158 150.484 77.4782 148.221C78.1908 148.086 78.4689 149.105 77.7894 149.36C74.3485 150.655 68.8551 152.01 60.9356 152.01C53.73 152.01 48.0143 150.52 44.393 149.218C43.7199 148.975 43.9739 147.972 44.6826 148.074Z" fill="#AAD6EF"/>
<path id="Vector_35" d="M95.9599 144.328C101.822 141.225 114.568 133.806 112.035 129.189C111.866 128.882 112.215 128.544 112.518 128.721C114.4 129.822 116.843 132.269 112.862 136.564C108.809 140.937 100.672 143.716 96.2202 144.976C95.8138 145.092 95.5852 144.525 95.9586 144.328H95.9599Z" fill="#AAD6EF"/>
<path id="Vector_36" d="M75.4161 145.526C74.9703 145.559 74.8852 144.905 75.3247 144.824C84.4241 143.141 100.643 139.105 103.129 131.423C104.837 126.145 100.732 123.725 97.1194 122.63C96.7053 122.504 96.8387 121.883 97.268 121.939C102.166 122.579 108.622 124.949 105.741 133.251C102.6 142.304 85.016 144.822 75.4149 145.525L75.4161 145.526Z" fill="#73C3EF"/>
<path id="Vector_37" d="M94.0685 132.533C94.3797 132.141 93.8843 131.626 93.4791 131.92C89.896 134.522 81.6971 139.392 69.9735 140.22C54.3759 141.321 39.2673 140.348 30.8881 136.183C21.8191 131.676 21.3098 130.881 22.2637 131.596C22.2637 131.596 28.8698 142.055 59.3308 143.155C82.0591 143.977 90.996 136.421 94.0685 132.533Z" fill="#51B7EF"/>
<path id="Vector_38" d="M20.915 124.27C21.3824 124.171 21.6111 124.816 21.1843 125.031C18.014 126.631 13.7551 129.516 15.823 132.745C19.6423 138.712 32.9981 142.981 45.8432 144.689C46.3513 144.756 46.3005 145.507 45.7886 145.5C37.5161 145.39 20.0018 143.411 12.9524 136.253C5.52702 128.714 15.3847 125.446 20.9163 124.269L20.915 124.27Z" fill="#73C3EF"/>
<path id="Vector_39" d="M69.3693 110.891C69.3693 110.891 66.7642 108.184 66.3742 111.693C65.9843 115.201 70.0247 113.988 69.3693 110.891Z" fill="#73C3EF"/>
<path id="Vector_40" d="M94.8181 105.263C93.7017 105.054 92.8697 108.382 94.0383 109.55C95.2081 110.72 97.9364 105.848 94.8181 105.263Z" fill="#73C3EF"/>
<path id="Vector_41" d="M40.1844 109.357C38.692 108.502 37.1525 110.969 38.1001 113.992C39.0476 117.015 42.6485 110.767 40.1844 109.357Z" fill="#73C3EF"/>
<path id="Vector_42" d="M24.4654 106.244C23.4797 105.505 20.5685 107.414 21.7371 108.972C22.9069 110.531 26.0239 107.414 24.4654 106.244Z" fill="#73C3EF"/>
<path id="Vector_43" opacity="0.5" d="M54.6719 106.439C54.6719 105.901 55.1076 105.465 55.6461 105.465C56.1847 105.465 56.6203 105.901 56.6203 106.439C56.6203 106.978 56.1847 107.413 55.6461 107.413C55.1076 107.413 54.6719 106.978 54.6719 106.439Z" fill="white"/>
<path id="Vector_44" opacity="0.5" d="M94.8203 108.964C94.8203 108.426 95.2572 107.99 95.7945 107.99C96.3318 107.99 96.7688 108.426 96.7688 108.964C96.7688 109.503 96.3318 109.939 95.7945 109.939C95.2572 109.939 94.8203 109.503 94.8203 108.964Z" fill="white"/>
<path id="Vector_45" opacity="0.5" d="M67.7227 110.323C67.7227 109.892 68.072 109.543 68.5026 109.543C68.9331 109.543 69.2824 109.892 69.2824 110.323C69.2824 110.753 68.9331 111.103 68.5026 111.103C68.072 111.103 67.7227 110.753 67.7227 110.323Z" fill="white"/>
<path id="Vector_46" d="M48.4491 113.477C48.4705 113.477 48.4691 113.428 48.4491 113.428C48.4291 113.428 48.4278 113.477 48.4491 113.477Z" fill="white"/>
<path id="Vector_47" opacity="0.5" d="M46.6046 114.106C46.9488 113.705 47.6576 113.619 48.1504 113.69C48.3346 113.716 48.4298 113.398 48.4641 113.281C48.5492 112.996 48.52 112.733 48.4641 112.448C48.4324 112.284 48.3358 112.066 48.1504 112.039C47.2816 111.912 46.6516 112.512 46.3163 113.257C46.2223 113.465 46.2197 113.753 46.2972 113.967C46.348 114.108 46.4649 114.269 46.6046 114.106Z" fill="white"/>
<path id="Vector_48" opacity="0.5" d="M84.6023 109.904C84.6632 109.502 84.9046 109.103 85.203 108.83C85.3542 108.691 85.5371 108.583 85.706 108.468C85.9918 108.272 86.049 108.082 86.2065 107.777C86.3424 107.515 86.3818 106.808 86.0731 106.631C85.9995 106.596 85.9321 106.55 85.8712 106.495C85.7962 106.45 85.7213 106.45 85.6463 106.495C84.5807 107.114 84.1387 108.6 84.0942 109.748C84.0891 109.892 84.1247 110.29 84.3178 110.325C84.5222 110.36 84.5794 110.045 84.601 109.904H84.6023Z" fill="white"/>
<path id="Vector_49" d="M71.9601 136.22C72.331 135.85 72.5647 135.374 72.5165 134.763C72.331 132.438 70.2848 133.183 68.8902 131.974C67.4955 130.764 70.1921 129.462 70.2848 126.58C70.3775 123.698 67.2161 124.069 66.1936 124.906C65.1711 125.743 61.1726 124.814 60.3356 122.117C59.4986 119.421 57.1742 120.443 56.8947 121.745C56.6153 123.047 54.6631 125.743 49.7348 123.977C44.8066 122.21 43.0398 129.555 39.0414 130.485C35.0429 131.415 35.7872 124.534 31.8814 123.232C28.4558 122.09 27.5692 127.247 27.4041 128.53C27.4206 128.632 27.4435 128.727 27.4765 128.815H27.3711C27.3711 128.815 27.4257 128.865 27.5388 128.961C27.5794 129.034 27.6226 129.104 27.681 129.161C27.8169 129.297 28.0519 129.441 28.3618 129.587C31.2324 131.61 40.6303 136.916 60.2975 136.916C64.7608 136.916 68.6234 136.652 71.9589 136.22H71.9601Z" fill="#73C3EF"/>
<path id="Vector_50" opacity="0.5" d="M39.4141 110.402C39.4141 109.683 39.9971 109.1 40.716 109.1C41.4349 109.1 42.0179 109.683 42.0179 110.402C42.0179 111.12 41.4349 111.703 40.716 111.703C39.9971 111.703 39.4141 111.12 39.4141 110.402Z" fill="white"/>
<path id="Vector_51" opacity="0.5" d="M21.7266 109.469C21.7266 108.851 22.2283 108.348 22.8481 108.348C23.4679 108.348 23.9697 108.849 23.9697 109.469C23.9697 110.089 23.4679 110.591 22.8481 110.591C22.2283 110.591 21.7266 110.089 21.7266 109.469Z" fill="white"/>
<path id="Vector_52" d="M85.152 124.631C81.5257 126.166 84.5944 129.235 81.6654 130.21C78.7364 131.187 80.4105 126.863 75.8074 128.397C71.2044 129.932 76.5047 131.605 70.6468 132.721C64.7888 133.836 68.8343 127.7 60.6049 127.282C52.3755 126.864 56.8388 133.558 50.4233 131.606C44.0077 129.654 51.1206 126.306 50.9809 123.935C50.8412 121.564 40.7993 121.704 43.868 124.353C46.9367 127.003 38.2894 128.259 36.3372 127.003C34.3849 125.748 39.1264 124.631 36.4769 122.679C33.9162 120.793 30.4322 121.732 28.3923 122.566C28.2691 124.85 27.0205 127.595 27.4765 128.813H27.3711C27.3711 128.813 27.4257 128.864 27.5388 128.959C27.5794 129.033 27.6226 129.102 27.681 129.16C27.8169 129.295 28.0519 129.439 28.3618 129.585C31.2324 131.608 40.6303 136.914 60.2975 136.914C78.396 136.914 86.6381 132.566 89.6674 130.347C89.6674 130.347 88.7758 123.098 85.1495 124.631H85.152Z" fill="#73C3EF"/>
<path id="Vector_53" d="M68.692 134.539C66.0424 134.539 64.5081 132.865 64.5081 130.633V130.622C64.5132 128.987 63.309 127.594 61.6883 127.382C61.353 127.337 60.991 127.305 60.6036 127.285C52.3742 126.867 56.1403 134.677 51.5385 133.421C48.2399 132.522 50.1565 127.476 48.8953 126.434C46.3092 124.298 46.0348 129.949 41.0787 131.051C36.0577 132.166 33.2685 128.262 33.4082 125.333C33.5161 123.072 29.8847 123.553 28.2221 123.891C27.8601 125.831 27.1056 127.829 27.4765 128.818H27.3711C27.3711 128.818 27.4257 128.869 27.5388 128.964C27.5794 129.038 27.6226 129.108 27.681 129.165C27.8169 129.301 28.0519 129.444 28.3618 129.59C31.2324 131.614 40.6303 136.919 60.2975 136.919C64.5652 136.919 68.2843 136.678 71.5181 136.279C70.9859 135.434 70.093 134.539 68.6933 134.539H68.692Z" fill="#AAD6EF"/>
</g>
</g>
</g>
</svg>
