<svg width="5" height="21" viewBox="0 0 5 21" fill="none" xmlns="http://www.w3.org/2000/svg">
<g id="Group">
<path id="Vector" d="M0.25 10.5C0.25 11.7405 1.2595 12.75 2.5 12.75C3.7405 12.75 4.75 11.7405 4.75 10.5C4.75 9.2595 3.7405 8.25 2.5 8.25C1.2595 8.25 0.25 9.2595 0.25 10.5ZM0.25 18C0.25 19.2405 1.2595 20.25 2.5 20.25C3.7405 20.25 4.75 19.2405 4.75 18C4.75 16.7595 3.7405 15.75 2.5 15.75C1.2595 15.75 0.25 16.7595 0.25 18ZM0.25 3C0.25 4.2405 1.2595 5.25 2.5 5.25C3.7405 5.25 4.75 4.2405 4.75 3C4.75 1.7595 3.7405 0.75 2.5 0.75C1.2595 0.75 0.25 1.7595 0.25 3Z" fill="black"/>
</g>
</svg>
